<svg width="241" height="114" viewBox="0 0 241 114" fill="none" xmlns="http://www.w3.org/2000/svg">
<path d="M237.399 54.902L212.805 46.704V21.8C212.805 10.754 203.851 1.79999 192.805 1.79999H21.8053C10.7593 1.79999 1.8053 10.754 1.8053 21.8V91.8C1.8053 102.846 10.7593 111.8 21.8053 111.8H192.805C203.851 111.8 212.805 102.846 212.805 91.8V66.895L237.399 58.697C239.222 58.089 239.222 55.51 237.399 54.902Z" fill="white"/>
<path d="M237.878 53.167C230.706 50.776 223.533 48.385 216.361 45.995L213.284 44.969L214.605 46.705V33.506C214.605 29.06 214.91 24.494 214.53 20.057C213.766 11.121 207.511 3.365 198.869 0.856003C196.324 0.117003 193.737 0 191.119 0H22.4563C17.5613 0 12.8013 1.31701 8.84933 4.28101C3.17233 8.53801 0.0153333 15.106 0.00533333 22.175C-0.00666667 30.665 0.00533333 39.156 0.00533333 47.646V83.11C0.00533333 85.92 -0.000666667 88.729 0.00533333 91.539C0.0213333 98.892 3.55234 105.739 9.64734 109.892C13.4833 112.507 17.9703 113.6 22.5653 113.6H27.9693C35.8083 113.6 43.6483 113.6 51.4873 113.6H184.759C189.642 113.6 194.988 114.07 199.668 112.495C208.251 109.606 214.28 101.562 214.592 92.502C214.743 88.127 214.604 83.725 214.604 79.348V66.896L213.283 68.632C221.342 65.946 229.424 63.318 237.463 60.572C238.483 60.224 239.432 59.758 240.014 58.789C241.356 56.553 240.115 54.085 237.878 53.168C236.971 52.796 235.909 53.571 235.664 54.425C235.369 55.453 236.026 56.272 236.921 56.639C237.021 56.68 236.927 56.916 236.777 57.01C236.424 57.232 235.868 57.313 235.475 57.444L229.797 59.337L215.736 64.024L212.326 65.161C211.569 65.413 211.005 66.075 211.005 66.897V79.723C211.005 84.084 211.204 88.495 210.978 92.853C210.541 101.298 204.035 108.333 195.773 109.771C194.108 110.061 192.399 110.002 190.713 110.002H22.7223C18.7913 110.002 15.0673 109.158 11.7373 106.968C6.43533 103.48 3.60633 97.551 3.60633 91.295V65.957C3.60633 54.222 3.60633 42.487 3.60633 30.752C3.60633 27.894 3.60233 25.035 3.60633 22.177C3.61533 15.669 6.79433 9.58501 12.4323 6.19901C15.6323 4.27701 19.1533 3.60201 22.8283 3.60201H190.863C192.852 3.60201 194.81 3.588 196.772 4.033C205.043 5.91 210.945 13.344 211.006 21.802C211.036 26.035 211.006 30.27 211.006 34.503C211.006 38.571 211.006 42.638 211.006 46.706C211.006 47.532 211.571 48.19 212.327 48.442C219.499 50.833 226.672 53.224 233.844 55.614L236.921 56.64C239.124 57.374 240.069 53.898 237.878 53.168V53.167Z" fill="#211715"/>
</svg>
