<svg width="219" height="50" viewBox="0 0 219 50" fill="none" xmlns="http://www.w3.org/2000/svg">
<mask id="path-1-inside-1_21_106" fill="white">
<path fill-rule="evenodd" clip-rule="evenodd" d="M8 0C3.58172 0 0 3.58172 0 8V42C0 46.4183 3.58172 50 8 50H192.83C197.248 50 200.83 46.4183 200.83 42V32.3131L219 25L200.83 17.6869V8C200.83 3.58172 197.248 0 192.83 0H8Z"/>
</mask>
<path fill-rule="evenodd" clip-rule="evenodd" d="M8 0C3.58172 0 0 3.58172 0 8V42C0 46.4183 3.58172 50 8 50H192.83C197.248 50 200.83 46.4183 200.83 42V32.3131L219 25L200.83 17.6869V8C200.83 3.58172 197.248 0 192.83 0H8Z" fill="white"/>
<path d="M200.83 32.3131L199.71 29.5301L197.83 30.2867V32.3131H200.83ZM219 25L220.12 27.783L227.035 25L220.12 22.217L219 25ZM200.83 17.6869H197.83V19.7133L199.71 20.4699L200.83 17.6869ZM3 8C3 5.23858 5.23858 3 8 3V-3C1.92487 -3 -3 1.92487 -3 8H3ZM3 42V8H-3V42H3ZM8 47C5.23858 47 3 44.7614 3 42H-3C-3 48.0751 1.92487 53 8 53V47ZM192.83 47H8V53H192.83V47ZM197.83 42C197.83 44.7614 195.591 47 192.83 47V53C198.905 53 203.83 48.0751 203.83 42H197.83ZM197.83 32.3131V42H203.83V32.3131H197.83ZM217.88 22.217L199.71 29.5301L201.95 35.0962L220.12 27.783L217.88 22.217ZM199.71 20.4699L217.88 27.783L220.12 22.217L201.95 14.9038L199.71 20.4699ZM197.83 8V17.6869H203.83V8H197.83ZM192.83 3C195.591 3 197.83 5.23858 197.83 8H203.83C203.83 1.92487 198.905 -3 192.83 -3V3ZM8 3H192.83V-3H8V3Z" fill="black" mask="url(#path-1-inside-1_21_106)"/>
</svg>
