<svg width="497" height="210" viewBox="0 0 497 210" fill="none" xmlns="http://www.w3.org/2000/svg">
<g clip-path="url(#clip0_1_202)">
<path d="M232.672 207.4C232.672 196.912 232.195 122.186 232.195 110.635H130.567C130.567 112.218 130.696 188.345 130.696 207.57" fill="white"/>
<path d="M226.371 110.637C226.371 107.946 226.326 103.909 226.326 102.248H135.917C135.917 103.705 135.926 109.483 135.926 110.637" fill="white"/>
<path d="M278.207 207.555C278.207 196.023 277.965 88.877 277.965 76.176H193.458C193.458 80.121 193.6 205.995 193.6 207.298" fill="white"/>
<path d="M370.138 207.384C370.138 195.827 369.613 135.349 369.613 122.62H248.255C248.255 124.366 248.397 186.387 248.397 207.572" fill="white"/>
<path d="M379.252 46.635C379.252 43.944 379.246 39.828 379.246 38.167C357.968 38.167 318.398 38.161 313.586 38.161V46.654" fill="white"/>
<path d="M386.711 207.594C386.711 201.055 386.191 59.537 386.191 46.916H306.127C306.127 47.835 306.166 164.873 306.204 207.678" fill="white"/>
<path d="M94.341 207.4C94.341 196.912 93.864 139.194 93.864 127.643H14.914C14.914 129.226 15.043 199.613 15.043 207.592" fill="white"/>
<path d="M115.154 207.568C115.154 202.679 115.085 61.31 115.08 56.868H36.13C36.13 57.568 36.155 179.868 36.183 207.541" fill="white"/>
<path d="M482.909 206.564C482.909 194.344 482.432 107.78 482.432 94.321H403.525C403.525 96.167 403.654 184.364 403.654 206.762" fill="white"/>
<path d="M403.651 170.39C403.651 168.769 403.651 96.239 403.651 94.321H482.564C482.564 96.239 482.564 168.769 482.564 170.39" fill="#87CCE3"/>
<path d="M335.148 134.569C334.034 134.569 324.841 134.592 322.978 134.592V146.492H335.1C335.1 144.507 335.148 135.132 335.148 134.569Z" fill="#87CCE3"/>
<path d="M357.014 134.569C355.899 134.569 346.706 134.592 344.844 134.592V146.492H356.962C356.962 144.507 357.014 135.132 357.014 134.569Z" fill="#87CCE3"/>
<path d="M40.236 142.038C39.224 142.038 30.882 142.058 29.192 142.058V152.858H40.192C40.189 151.056 40.236 142.548 40.236 142.038Z" fill="#87CCE3"/>
<path d="M60.078 142.038C59.067 142.038 50.724 142.058 49.034 142.058V152.858H60.034C60.032 151.056 60.078 142.548 60.078 142.038Z" fill="#87CCE3"/>
<path d="M79.921 141.89C78.909 141.89 70.567 141.91 68.877 141.91V152.71H79.877C79.874 150.908 79.921 142.4 79.921 141.89Z" fill="#87CCE3"/>
<path d="M40.236 162.447C39.224 162.447 30.882 162.468 29.192 162.468V173.268H40.192C40.189 171.466 40.236 162.958 40.236 162.447Z" fill="#87CCE3"/>
<path d="M60.078 162.447C59.067 162.447 50.724 162.468 49.034 162.468V173.268H60.034C60.032 171.466 60.078 162.958 60.078 162.447Z" fill="#87CCE3"/>
<path d="M79.921 162.3C78.909 162.3 70.567 162.321 68.877 162.321V173.121H79.877C79.874 171.318 79.921 162.81 79.921 162.3Z" fill="#87CCE3"/>
<path d="M386.315 46.916C379.815 46.916 316.976 46.939 306.127 46.939V58.739H386.327C386.325 56.77 386.315 47.474 386.315 46.916Z" fill="#87CCE3"/>
<path d="M36.234 127.192C36.234 126.428 36.234 57.774 36.234 56.87H47.572C47.572 57.77 47.572 126.428 47.572 127.192" fill="#87CCE3"/>
<path d="M58.911 127.192V56.87H70.25V127.192" fill="#87CCE3"/>
<path d="M232.2 121.781C226.255 121.781 140.672 121.802 130.741 121.802V132.602H232.211" fill="#87CCE3"/>
<path d="M232.2 142.191C226.255 142.191 140.672 142.211 130.741 142.211V153.011H232.211" fill="#87CCE3"/>
<path d="M232.2 162.6C226.255 162.6 140.672 162.62 130.741 162.62V173.42H232.211" fill="#87CCE3"/>
<path d="M228.371 110.637C228.371 107.837 228.328 105.044 228.326 102.248C228.318 101.72 228.105 101.216 227.732 100.842C227.358 100.469 226.854 100.256 226.326 100.248H135.917C135.389 100.256 134.885 100.469 134.511 100.842C134.138 101.216 133.925 101.72 133.917 102.248C133.917 105.048 133.926 107.841 133.926 110.637C133.926 113.21 137.926 113.215 137.926 110.637C137.926 107.837 137.918 105.044 137.917 102.248L135.917 104.248H226.326L224.326 102.248C224.326 105.048 224.369 107.84 224.371 110.637C224.371 113.21 228.371 113.215 228.371 110.637Z" fill="#211715"/>
<path d="M234.672 207.4C234.672 196.068 234.572 184.736 234.511 173.405C234.424 157.605 234.339 141.808 234.254 126.013C234.229 120.887 234.196 115.761 234.195 110.635C234.188 110.107 233.975 109.602 233.601 109.229C233.228 108.855 232.723 108.642 232.195 108.635H130.567C130.039 108.643 129.535 108.856 129.161 109.229C128.788 109.603 128.575 110.107 128.567 110.635C128.567 120.058 128.582 129.482 128.611 138.905C128.637 155.321 128.66 171.737 128.681 188.153C128.688 194.626 128.693 201.098 128.696 207.57C128.696 210.144 132.696 210.148 132.696 207.57C132.696 193.943 132.682 180.316 132.653 166.689C132.631 151.461 132.608 136.233 132.583 121.005C132.578 117.548 132.573 114.091 132.567 110.635L130.567 112.635H232.2L230.2 110.635C230.2 122.219 230.3 133.804 230.361 145.388C230.447 161.114 230.533 176.841 230.618 192.568C230.643 197.512 230.676 202.456 230.677 207.4C230.677 209.974 234.677 209.978 234.677 207.4H234.672Z" fill="#211715"/>
<path d="M381.252 46.635C381.252 43.8117 381.25 40.989 381.246 38.167C381.239 37.6389 381.025 37.1345 380.652 36.7611C380.278 36.3876 379.774 36.1745 379.246 36.167C359.886 36.167 340.526 36.1653 321.165 36.162H313.586C313.058 36.1695 312.554 36.3826 312.18 36.7561C311.807 37.1295 311.593 37.6339 311.586 38.162V46.655C311.586 49.229 315.586 49.233 315.586 46.655V38.161L313.586 40.161C330.135 40.161 346.684 40.161 363.233 40.161H379.246L377.246 38.161C377.246 40.983 377.248 43.8057 377.252 46.629C377.252 49.202 381.252 49.207 381.252 46.629V46.635Z" fill="#211715"/>
<path d="M128.764 129.047V162.83C128.764 165.404 132.764 165.409 132.764 162.83V129.047C132.764 126.473 128.764 126.469 128.764 129.047Z" fill="#211715"/>
<path d="M45.573 56.87V121.052C45.573 123.626 49.573 123.63 49.573 121.052V56.87C49.573 54.296 45.573 54.291 45.573 56.87Z" fill="#211715"/>
<path d="M56.911 56.87V121.052C56.911 123.626 60.911 123.63 60.911 121.052V56.87C60.911 54.296 56.911 54.291 56.911 56.87Z" fill="#211715"/>
<path d="M68.25 56.87V121.052C68.25 123.626 72.25 123.63 72.25 121.052V56.87C72.25 54.296 68.25 54.291 68.25 56.87Z" fill="#211715"/>
<path d="M86.749 57.816V82.99C86.749 85.564 90.749 85.568 90.749 82.99V57.816C90.749 55.242 86.749 55.238 86.749 57.816Z" fill="#211715"/>
<path d="M98.485 57.816V94.705C98.485 97.279 102.485 97.283 102.485 94.705V57.816C102.485 55.242 98.485 55.238 98.485 57.816Z" fill="#211715"/>
<path d="M117.154 171.89C117.154 167.593 117.152 163.296 117.147 158.999C117.142 150.023 117.136 141.047 117.13 132.072C117.124 121.427 117.117 110.782 117.11 100.137C117.104 90.8317 117.098 81.5263 117.091 72.221C117.091 67.2723 117.088 62.323 117.081 57.373V56.873C117.074 56.3448 116.861 55.8403 116.487 55.4668C116.114 55.0933 115.609 54.8802 115.081 54.873H36.13C35.6018 54.8802 35.0973 55.0933 34.7238 55.4668C34.3503 55.8403 34.1372 56.3448 34.13 56.873C34.13 71.979 34.1417 87.0857 34.165 102.193C34.171 108.48 34.177 114.768 34.183 121.055C34.183 123.629 38.183 123.633 38.183 121.055C38.163 101.341 38.1463 81.627 38.133 61.913C38.133 60.233 38.133 58.553 38.133 56.873L36.133 58.873H115.083L113.083 56.873C113.088 61.099 113.091 65.3253 113.092 69.552L113.11 96.37L113.131 128.299L113.149 156.312C113.149 161.327 113.152 166.343 113.157 171.358V171.893C113.157 174.467 117.157 174.471 117.157 171.893L117.154 171.89Z" fill="#211715"/>
<path d="M367.3 209.4C369.874 209.4 369.878 205.4 367.3 205.4C364.722 205.4 364.722 209.4 367.3 209.4Z" fill="#211715"/>
<path d="M372.138 207.384C372.138 197.306 372.032 187.228 371.96 177.15C371.864 163.75 371.77 150.353 371.678 136.959C371.649 132.18 371.614 127.4 371.613 122.62C371.606 122.092 371.392 121.588 371.019 121.214C370.645 120.841 370.141 120.627 369.613 120.62H248.255C247.727 120.628 247.223 120.841 246.849 121.214C246.476 121.588 246.263 122.092 246.255 122.62C246.255 130.52 246.287 138.414 246.303 146.311C246.332 160.459 246.357 174.607 246.379 188.754C246.388 195.027 246.394 201.3 246.397 207.572C246.397 210.146 250.397 210.15 250.397 207.572C250.397 195.045 250.381 182.517 250.349 169.989C250.326 157.138 250.301 144.287 250.272 131.436C250.266 128.498 250.255 125.559 250.255 122.62L248.255 124.62H369.613L367.613 122.62C367.613 132.978 367.718 143.335 367.791 153.692C367.886 167.011 367.98 180.33 368.073 193.65C368.102 198.228 368.138 202.806 368.138 207.384C368.138 209.958 372.138 209.963 372.138 207.384Z" fill="#211715"/>
<path d="M280.207 113.725C280.207 101.208 279.968 88.693 279.965 76.176C279.958 75.6479 279.744 75.1435 279.371 74.7701C278.997 74.3966 278.493 74.1835 277.965 74.176H193.458C192.93 74.1832 192.425 74.3963 192.052 74.7698C191.678 75.1433 191.465 75.6478 191.458 76.176C191.458 82.176 191.592 88.176 191.6 94.176C191.6 96.75 195.6 96.754 195.6 94.176C195.592 88.176 195.46 82.176 195.458 76.176L193.458 78.176H277.965L275.965 76.176C275.965 88.693 276.204 101.208 276.207 113.725C276.207 116.298 280.207 116.303 280.207 113.725Z" fill="#211715"/>
<path d="M94.341 209.4C96.915 209.4 96.919 205.4 94.341 205.4C91.763 205.4 91.763 209.4 94.341 209.4Z" fill="#211715"/>
<path d="M96.341 207.4C96.341 197.956 96.241 188.512 96.18 179.069C96.0927 166.344 96.007 153.619 95.923 140.895C95.897 136.478 95.865 132.06 95.864 127.643C95.8568 127.115 95.6437 126.61 95.2702 126.237C94.8967 125.863 94.3922 125.65 93.864 125.643H14.914C14.3859 125.651 13.8815 125.864 13.5081 126.237C13.1346 126.611 12.9215 127.115 12.914 127.643C12.914 139.565 12.996 151.487 13.027 163.409C13.0343 166.248 13.0397 169.086 13.043 171.925C13.043 174.499 17.043 174.503 17.043 171.925C17.043 158.905 16.973 145.885 16.93 132.865C16.924 131.125 16.915 129.383 16.914 127.643L14.914 129.643H93.864L91.864 127.643C91.864 137.343 91.964 147.036 92.026 156.732C92.112 169.386 92.1977 182.04 92.283 194.693C92.308 198.928 92.341 203.164 92.341 207.4C92.341 209.974 96.341 209.978 96.341 207.4Z" fill="#211715"/>
<path d="M40.236 140.038C36.554 140.038 32.873 140.058 29.192 140.058C28.6639 140.066 28.1596 140.279 27.7861 140.652C27.4126 141.026 27.1995 141.53 27.192 142.058V152.858C27.1995 153.386 27.4126 153.89 27.7861 154.264C28.1596 154.637 28.6639 154.851 29.192 154.858H40.192C40.7201 154.851 41.2245 154.637 41.5979 154.264C41.9714 153.89 42.1845 153.386 42.192 152.858C42.192 149.251 42.236 145.643 42.239 142.036C42.239 141.506 42.0283 140.997 41.6532 140.622C41.2782 140.247 40.7694 140.036 40.239 140.036C39.7086 140.036 39.1999 140.247 38.8248 140.622C38.4497 140.997 38.239 141.506 38.239 142.036C38.239 145.643 38.193 149.251 38.192 152.858L40.192 150.858H29.192L31.192 152.858V142.058L29.192 144.058C32.873 144.058 36.554 144.038 40.236 144.038C40.7665 144.038 41.2752 143.827 41.6502 143.452C42.0253 143.077 42.236 142.568 42.236 142.038C42.236 141.508 42.0253 140.999 41.6502 140.624C41.2752 140.249 40.7665 140.038 40.236 140.038Z" fill="#211715"/>
<path d="M60.078 140.038C56.397 140.038 52.716 140.058 49.034 140.058C48.5059 140.066 48.0015 140.279 47.6281 140.652C47.2546 141.026 47.0415 141.53 47.034 142.058V152.858C47.0417 153.386 47.2549 153.89 47.6283 154.264C48.0018 154.637 48.506 154.85 49.034 154.858H60.034C60.562 154.85 61.0662 154.637 61.4396 154.264C61.813 153.89 62.0262 153.386 62.034 152.858C62.034 149.251 62.078 145.643 62.08 142.036C62.08 141.506 61.8693 140.997 61.4942 140.622C61.1191 140.247 60.6104 140.036 60.08 140.036C59.5496 140.036 59.0409 140.247 58.6658 140.622C58.2907 140.997 58.08 141.506 58.08 142.036C58.08 145.643 58.034 149.251 58.034 152.858L60.034 150.858H49.034L51.034 152.858V142.058L49.034 144.058C52.716 144.058 56.397 144.038 60.078 144.038C60.6084 144.038 61.1171 143.827 61.4922 143.452C61.8673 143.077 62.078 142.568 62.078 142.038C62.078 141.508 61.8673 140.999 61.4922 140.624C61.1171 140.249 60.6084 140.038 60.078 140.038Z" fill="#211715"/>
<path d="M79.921 139.89C76.24 139.89 72.558 139.91 68.877 139.91C68.3489 139.917 67.8446 140.131 67.4711 140.504C67.0976 140.878 66.8845 141.382 66.877 141.91V152.71C66.8845 153.238 67.0976 153.742 67.4711 154.116C67.8446 154.489 68.3489 154.703 68.877 154.71H79.877C80.4052 154.703 80.9097 154.49 81.2832 154.116C81.6567 153.743 81.8698 153.238 81.877 152.71C81.877 149.103 81.921 145.495 81.924 141.888C81.924 141.358 81.7133 140.849 81.3382 140.474C80.9632 140.099 80.4545 139.888 79.924 139.888C79.3936 139.888 78.8849 140.099 78.5098 140.474C78.1347 140.849 77.924 141.358 77.924 141.888C77.924 145.495 77.878 149.103 77.877 152.71L79.877 150.71H68.877L70.877 152.71V141.91L68.877 143.91C72.558 143.91 76.24 143.89 79.921 143.89C80.4514 143.89 80.9602 143.679 81.3352 143.304C81.7103 142.929 81.921 142.42 81.921 141.89C81.921 141.36 81.7103 140.851 81.3352 140.476C80.9602 140.101 80.4514 139.89 79.921 139.89Z" fill="#211715"/>
<path d="M40.236 160.447C36.554 160.447 32.873 160.467 29.192 160.468C28.6639 160.475 28.1596 160.689 27.7861 161.062C27.4126 161.436 27.1995 161.94 27.192 162.468V173.268C27.1995 173.796 27.4126 174.3 27.7861 174.674C28.1596 175.047 28.6639 175.261 29.192 175.268H40.192C40.72 175.26 41.2243 175.047 41.5977 174.674C41.9711 174.3 42.1843 173.796 42.192 173.268C42.192 169.66 42.236 166.053 42.239 162.445C42.239 161.915 42.0283 161.406 41.6532 161.031C41.2782 160.656 40.7694 160.445 40.239 160.445C39.7086 160.445 39.1999 160.656 38.8248 161.031C38.4497 161.406 38.239 161.915 38.239 162.445C38.239 166.053 38.193 169.66 38.192 173.268L40.192 171.268H29.192L31.192 173.268V162.468L29.192 164.468C32.873 164.468 36.554 164.448 40.236 164.447C40.7665 164.447 41.2752 164.236 41.6502 163.861C42.0253 163.486 42.236 162.977 42.236 162.447C42.236 161.917 42.0253 161.408 41.6502 161.033C41.2752 160.658 40.7665 160.447 40.236 160.447Z" fill="#211715"/>
<path d="M60.078 160.447C56.397 160.447 52.716 160.467 49.034 160.468C48.5059 160.475 48.0015 160.689 47.6281 161.062C47.2546 161.436 47.0415 161.94 47.034 162.468V173.268C47.0417 173.796 47.2549 174.3 47.6283 174.674C48.0018 175.047 48.506 175.26 49.034 175.268H60.034C60.562 175.26 61.0662 175.047 61.4396 174.674C61.813 174.3 62.0262 173.796 62.034 173.268C62.034 169.66 62.078 166.053 62.08 162.445C62.08 161.915 61.8693 161.406 61.4942 161.031C61.1191 160.656 60.6104 160.445 60.08 160.445C59.5496 160.445 59.0409 160.656 58.6658 161.031C58.2907 161.406 58.08 161.915 58.08 162.445C58.08 166.053 58.034 169.66 58.034 173.268L60.034 171.268H49.034L51.034 173.268V162.468L49.034 164.468C52.716 164.468 56.397 164.448 60.078 164.447C60.6084 164.447 61.1171 164.236 61.4922 163.861C61.8673 163.486 62.078 162.977 62.078 162.447C62.078 161.917 61.8673 161.408 61.4922 161.033C61.1171 160.658 60.6084 160.447 60.078 160.447Z" fill="#211715"/>
<path d="M79.921 160.3C76.24 160.3 72.558 160.32 68.877 160.321C68.3489 160.329 67.8446 160.542 67.4711 160.915C67.0976 161.289 66.8845 161.793 66.877 162.321V173.121C66.8843 173.649 67.0973 174.154 67.4708 174.527C67.8443 174.901 68.3488 175.114 68.877 175.121H79.877C80.4052 175.114 80.9097 174.901 81.2832 174.527C81.6567 174.154 81.8698 173.649 81.877 173.121C81.877 169.514 81.921 165.907 81.924 162.299C81.924 161.769 81.7133 161.26 81.3382 160.885C80.9632 160.51 80.4545 160.299 79.924 160.299C79.3936 160.299 78.8849 160.51 78.5098 160.885C78.1347 161.26 77.924 161.769 77.924 162.299C77.924 165.907 77.878 169.514 77.877 173.121L79.877 171.121H68.877L70.877 173.121V162.321L68.877 164.321C72.558 164.321 76.24 164.301 79.921 164.3C80.4514 164.3 80.9602 164.089 81.3352 163.714C81.7103 163.339 81.921 162.83 81.921 162.3C81.921 161.77 81.7103 161.261 81.3352 160.886C80.9602 160.511 80.4514 160.3 79.921 160.3Z" fill="#211715"/>
<path d="M233.239 209.4C235.813 209.4 235.817 205.4 233.239 205.4C230.661 205.4 230.661 209.4 233.239 209.4Z" fill="#211715"/>
<path d="M130.744 134.6H232.211C234.785 134.6 234.79 130.6 232.211 130.6H130.744C128.171 130.6 128.166 134.6 130.744 134.6Z" fill="#211715"/>
<path d="M130.744 123.781H232.211C234.785 123.781 234.79 119.781 232.211 119.781H130.744C128.171 119.781 128.166 123.781 130.744 123.781Z" fill="#211715"/>
<path d="M130.744 155.013H232.211C234.785 155.013 234.79 151.013 232.211 151.013H130.744C128.171 151.013 128.166 155.013 130.744 155.013Z" fill="#211715"/>
<path d="M130.744 144.191H232.211C234.785 144.191 234.79 140.191 232.211 140.191H130.744C128.171 140.191 128.166 144.191 130.744 144.191Z" fill="#211715"/>
<path d="M130.744 175.422H232.211C234.785 175.422 234.79 171.422 232.211 171.422H130.744C128.171 171.422 128.166 175.422 130.744 175.422Z" fill="#211715"/>
<path d="M130.744 164.6H232.211C234.785 164.6 234.79 160.6 232.211 160.6H130.744C128.171 160.6 128.166 164.6 130.744 164.6Z" fill="#211715"/>
<path d="M278.191 180.131V207.478C278.191 210.052 282.191 210.056 282.191 207.478V180.131C282.191 177.558 278.191 177.553 278.191 180.131Z" fill="#211715"/>
<path d="M258.864 180.131V207.478C258.864 210.052 262.864 210.056 262.864 207.478V180.131C262.864 177.558 258.864 177.553 258.864 180.131Z" fill="#211715"/>
<path d="M297.519 180.131V207.478C297.519 210.052 301.519 210.056 301.519 207.478V180.131C301.519 177.558 297.519 177.553 297.519 180.131Z" fill="#211715"/>
<path d="M316.847 180.131V207.478C316.847 210.052 320.847 210.056 320.847 207.478V180.131C320.847 177.558 316.847 177.553 316.847 180.131Z" fill="#211715"/>
<path d="M336.175 180.131V207.478C336.175 210.052 340.175 210.056 340.175 207.478V180.131C340.175 177.558 336.175 177.553 336.175 180.131Z" fill="#211715"/>
<path d="M355.5 180.131V207.478C355.5 210.052 359.5 210.056 359.5 207.478V180.131C359.5 177.558 355.5 177.553 355.5 180.131Z" fill="#211715"/>
<path d="M388.711 171.89C388.711 167.305 388.679 162.721 388.66 158.136C388.62 148.846 388.578 139.556 388.535 130.267C388.485 119.139 388.435 108.011 388.385 96.883C388.34 86.7823 388.297 76.6823 388.255 66.583C388.23 60.3903 388.209 54.1977 388.191 48.005V46.916C388.183 46.388 387.97 45.8838 387.597 45.5104C387.223 45.1369 386.719 44.9237 386.191 44.916H306.127C305.599 44.9237 305.095 45.1369 304.721 45.5104C304.348 45.8838 304.135 46.388 304.127 46.916C304.127 50.5953 304.132 54.2743 304.142 57.953C304.156 68.1297 304.168 78.3067 304.179 88.484C304.188 96.9373 304.197 105.391 304.204 113.844C304.204 116.418 308.204 116.422 308.204 113.844C308.192 100.209 308.178 86.574 308.162 72.938C308.153 65.534 308.143 58.1297 308.132 50.725C308.132 49.4583 308.132 48.1887 308.132 46.916L306.132 48.916H386.196L384.196 46.916C384.196 52.457 384.226 57.997 384.247 63.538C384.286 73.3193 384.327 83.1007 384.372 92.882C384.421 104.039 384.471 115.196 384.522 126.351C384.566 136.018 384.609 145.682 384.652 155.344C384.676 160.642 384.697 165.939 384.716 171.236V171.89C384.716 174.464 388.716 174.468 388.716 171.89H388.711Z" fill="#211715"/>
<path d="M372.337 72.9H318.907C316.334 72.9 316.329 76.9 318.907 76.9H372.337C374.911 76.9 374.915 72.9 372.337 72.9Z" fill="#211715"/>
<path d="M386.042 56.74H306.127C303.553 56.74 303.549 60.74 306.127 60.74H386.042C388.615 60.74 388.62 56.74 386.042 56.74Z" fill="#211715"/>
<path d="M372.337 85.287H318.907C316.334 85.287 316.329 89.287 318.907 89.287H372.337C374.911 89.287 374.915 85.287 372.337 85.287Z" fill="#211715"/>
<path d="M372.337 97.675H318.907C316.334 97.675 316.329 101.675 318.907 101.675H372.337C374.911 101.675 374.915 97.675 372.337 97.675Z" fill="#211715"/>
<path d="M370 187.592H248.369C245.795 187.592 245.791 191.592 248.369 191.592H370C372.574 191.592 372.578 187.592 370 187.592Z" fill="#211715"/>
<path d="M370 178.131H248.369C245.795 178.131 245.791 182.131 248.369 182.131H370C372.574 182.131 372.578 178.131 370 178.131Z" fill="#211715"/>
<path d="M429.636 183.981V206.663C429.636 209.237 433.636 209.241 433.636 206.663V183.981C433.636 181.408 429.636 181.403 429.636 183.981Z" fill="#211715"/>
<path d="M442.062 184.808V206.119C442.062 208.693 446.062 208.698 446.062 206.119V184.808C446.062 182.235 442.062 182.23 442.062 184.808Z" fill="#211715"/>
<path d="M454.488 183.981V206.663C454.488 209.237 458.488 209.241 458.488 206.663V183.981C458.488 181.408 454.488 181.403 454.488 183.981Z" fill="#211715"/>
<path d="M484.909 171.89C484.909 163.434 484.809 154.977 484.748 146.522C484.658 133.855 484.572 121.189 484.491 108.522C484.463 103.789 484.433 99.056 484.432 94.322C484.425 93.7939 484.211 93.2895 483.838 92.9161C483.464 92.5426 482.96 92.3295 482.432 92.322H403.525C402.997 92.3297 402.493 92.5429 402.119 92.9163C401.746 93.2898 401.533 93.794 401.525 94.322C401.525 97.598 401.529 100.874 401.538 104.15C401.548 111.745 401.558 119.34 401.569 126.936C401.581 136.586 401.593 146.236 401.606 155.885C401.617 165.28 401.628 174.676 401.638 184.071C401.645 191.047 401.651 198.023 401.654 204.998V206.763C401.654 209.337 405.654 209.341 405.654 206.763C405.654 200.257 405.65 193.751 405.641 187.246C405.632 177.988 405.621 168.73 405.61 159.472C405.598 149.728 405.586 139.984 405.573 130.24C405.563 122.307 405.552 114.373 405.541 106.44C405.537 103.813 405.533 101.186 405.53 98.559C405.53 97.259 405.63 95.908 405.53 94.612C405.522 94.517 405.53 94.418 405.53 94.322L403.53 96.322H482.437L480.437 94.322C480.437 104.358 480.529 114.395 480.598 124.43C480.681 136.656 480.766 148.881 480.855 161.106C480.879 164.701 480.913 168.296 480.914 171.891C480.914 174.465 484.914 174.469 484.914 171.891L484.909 171.89Z" fill="#211715"/>
<path d="M482.909 181.6H405.216C402.642 181.6 402.638 185.6 405.216 185.6H482.909C485.482 185.6 485.487 181.6 482.909 181.6Z" fill="#211715"/>
<path d="M482.909 168.39H405.216C402.642 168.39 402.638 172.39 405.216 172.39H482.909C485.482 172.39 485.487 168.39 482.909 168.39Z" fill="#211715"/>
<path d="M456.488 181.981H431.636C429.062 181.981 429.058 185.981 431.636 185.981H456.488C459.062 185.981 459.066 181.981 456.488 181.981Z" fill="#211715"/>
<path d="M335.148 132.569C331.092 132.569 327.035 132.591 322.978 132.592C322.45 132.599 321.946 132.813 321.572 133.186C321.199 133.56 320.986 134.064 320.978 134.592V146.492C320.986 147.02 321.199 147.524 321.572 147.898C321.946 148.271 322.45 148.484 322.978 148.492H335.1C335.628 148.484 336.132 148.271 336.506 147.898C336.879 147.524 337.093 147.02 337.1 146.492C337.1 142.517 337.149 138.542 337.151 134.566C337.151 134.036 336.94 133.527 336.565 133.152C336.19 132.777 335.681 132.566 335.151 132.566C334.621 132.566 334.112 132.777 333.737 133.152C333.362 133.527 333.151 134.036 333.151 134.566C333.151 138.542 333.101 142.517 333.1 146.492L335.1 144.492H322.978L324.978 146.492V134.592L322.978 136.592C327.035 136.592 331.092 136.57 335.148 136.569C335.678 136.569 336.187 136.358 336.562 135.983C336.937 135.608 337.148 135.099 337.148 134.569C337.148 134.039 336.937 133.53 336.562 133.155C336.187 132.78 335.678 132.569 335.148 132.569Z" fill="#211715"/>
<path d="M357.014 132.569C352.957 132.569 348.9 132.591 344.844 132.592C344.316 132.599 343.812 132.813 343.438 133.186C343.065 133.56 342.851 134.064 342.844 134.592V146.492C342.851 147.02 343.065 147.524 343.438 147.898C343.812 148.271 344.316 148.484 344.844 148.492H356.962C357.49 148.485 357.995 148.272 358.368 147.898C358.742 147.525 358.955 147.02 358.962 146.492C358.962 142.517 359.011 138.542 359.014 134.566C359.014 134.036 358.803 133.527 358.428 133.152C358.053 132.777 357.544 132.566 357.014 132.566C356.484 132.566 355.975 132.777 355.6 133.152C355.225 133.527 355.014 134.036 355.014 134.566C355.014 138.542 354.963 142.517 354.962 146.492L356.962 144.492H344.844L346.844 146.492V134.592L344.844 136.592C348.9 136.592 352.957 136.57 357.014 136.569C357.544 136.569 358.053 136.358 358.428 135.983C358.803 135.608 359.014 135.099 359.014 134.569C359.014 134.039 358.803 133.53 358.428 133.155C358.053 132.78 357.544 132.569 357.014 132.569Z" fill="#211715"/>
<path d="M234.672 207.4C234.672 196.068 234.572 184.736 234.511 173.405C234.424 157.605 234.339 141.808 234.254 126.013C234.229 120.887 234.196 115.761 234.195 110.635C234.188 110.107 233.975 109.602 233.601 109.229C233.228 108.855 232.723 108.642 232.195 108.635H130.567C130.039 108.643 129.535 108.856 129.161 109.229C128.788 109.603 128.575 110.107 128.567 110.635C128.567 120.058 128.582 129.482 128.611 138.905C128.637 155.321 128.66 171.737 128.681 188.153C128.688 194.626 128.693 201.098 128.696 207.57C128.696 210.144 132.696 210.148 132.696 207.57C132.696 193.943 132.682 180.316 132.653 166.689C132.631 151.461 132.608 136.233 132.583 121.005C132.578 117.548 132.573 114.091 132.567 110.635L130.567 112.635H232.2L230.2 110.635C230.2 122.219 230.3 133.804 230.361 145.388C230.447 161.114 230.533 176.841 230.618 192.568C230.643 197.512 230.676 202.456 230.677 207.4C230.677 209.974 234.677 209.978 234.677 207.4H234.672Z" fill="#211715"/>
<path d="M477.028 94.624C471.128 101.268 465.375 108.04 459.496 114.701C458.377 115.968 457.268 117.248 456.106 118.476C454.337 120.345 457.16 123.176 458.934 121.304C465.09 114.804 470.802 107.837 476.682 101.085C477.738 99.872 478.789 98.655 479.857 97.452C481.557 95.533 478.742 92.694 477.028 94.624Z" fill="#211715"/>
<path d="M479.925 106.757C477.425 109.567 474.996 112.432 472.508 115.249C472.035 115.785 471.566 116.327 471.074 116.849C470.699 117.224 470.488 117.733 470.488 118.263C470.488 118.794 470.699 119.303 471.074 119.678C471.449 120.053 471.958 120.264 472.488 120.264C473.019 120.264 473.528 120.053 473.903 119.678C476.503 116.926 478.923 113.978 481.41 111.125C481.857 110.612 482.302 110.097 482.753 109.588C482.944 109.403 483.096 109.183 483.201 108.939C483.306 108.695 483.361 108.432 483.363 108.167C483.366 107.901 483.315 107.638 483.215 107.392C483.114 107.146 482.966 106.923 482.778 106.735C482.59 106.547 482.367 106.399 482.121 106.298C481.875 106.198 481.612 106.147 481.346 106.149C481.081 106.152 480.818 106.207 480.574 106.312C480.33 106.417 480.109 106.569 479.925 106.76V106.757Z" fill="#211715"/>
<path d="M432.208 142.92C425.971 149.946 419.886 157.106 413.669 164.15C412.454 165.528 411.249 166.919 409.986 168.25C408.217 170.119 411.041 172.95 412.815 171.078C419.325 164.2 425.367 156.835 431.585 149.694C432.733 148.376 433.876 147.052 435.037 145.745C436.737 143.826 433.922 140.987 432.208 142.916V142.92Z" fill="#211715"/>
<path d="M389.191 172.8C388.583 172.33 387.835 172.074 387.066 172.074C386.297 172.074 385.549 172.33 384.941 172.8C381.999 175.103 379.723 178.147 378.347 181.62C377.916 182.667 377.591 183.754 377.377 184.866C377.203 185.929 377.092 187.001 377.045 188.077C376.79 189.964 376.945 191.883 377.499 193.705C378.109 195.25 379.26 196.521 380.738 197.279C382.762 198.037 384.906 198.426 387.067 198.427C389.225 198.391 391.363 198.003 393.396 197.279C394.874 196.521 396.026 195.25 396.636 193.705C397.189 191.883 397.344 189.964 397.089 188.077C397.042 187.001 396.932 185.929 396.758 184.866C396.543 183.754 396.218 182.667 395.787 181.62C394.41 178.147 392.134 175.102 389.191 172.8Z" fill="#7CC67A"/>
<path d="M383.361 207.151V198.773H390.773V207.151" fill="#957F6E"/>
<path d="M390.2 171.077C384.779 167.366 379.335 174.93 377.267 179.161C375.932 181.954 375.176 184.989 375.045 188.082C374.851 191.177 374.985 194.253 377.013 196.769C380.059 200.549 385.749 200.769 390.194 200.138C392.677 199.788 395.006 199.128 396.755 197.203C398.91 194.832 399.297 191.828 399.129 188.74C399.044 185.291 398.211 181.901 396.689 178.804C395.217 175.924 393.142 173.396 390.605 171.39C390.222 171.03 389.716 170.829 389.19 170.829C388.665 170.829 388.159 171.03 387.776 171.39C387.404 171.767 387.196 172.275 387.196 172.804C387.196 173.333 387.404 173.841 387.776 174.218C391.274 176.894 393.737 180.7 394.746 184.987C395.335 187.398 395.411 189.906 394.969 192.348C394.772 193.165 394.36 193.915 393.777 194.521C393.193 195.127 392.459 195.566 391.65 195.794C388.65 196.619 384.825 196.836 381.897 195.62C381.043 195.224 380.317 194.596 379.801 193.808C379.286 193.019 379.002 192.103 378.982 191.161C378.793 188.74 379.019 186.305 379.65 183.961C380.336 181.636 381.46 179.464 382.961 177.561C384.082 176.136 386.191 173.174 388.181 174.536C390.311 175.988 392.314 172.524 390.2 171.077Z" fill="#211715"/>
<path d="M388.593 198.773V207.151C388.593 207.681 388.804 208.19 389.179 208.565C389.554 208.94 390.063 209.151 390.593 209.151C391.123 209.151 391.632 208.94 392.007 208.565C392.382 208.19 392.593 207.681 392.593 207.151V198.773C392.593 198.243 392.382 197.734 392.007 197.359C391.632 196.984 391.123 196.773 390.593 196.773C390.063 196.773 389.554 196.984 389.179 197.359C388.804 197.734 388.593 198.243 388.593 198.773Z" fill="#211715"/>
<path d="M381.181 198.773V207.151C381.181 207.681 381.392 208.19 381.767 208.565C382.142 208.94 382.651 209.151 383.181 209.151C383.711 209.151 384.22 208.94 384.595 208.565C384.97 208.19 385.181 207.681 385.181 207.151V198.773C385.181 198.243 384.97 197.734 384.595 197.359C384.22 196.984 383.711 196.773 383.181 196.773C382.651 196.773 382.142 196.984 381.767 197.359C381.392 197.734 381.181 198.243 381.181 198.773Z" fill="#211715"/>
<path d="M117.065 172.8C116.457 172.33 115.709 172.074 114.94 172.074C114.171 172.074 113.423 172.33 112.815 172.8C109.873 175.103 107.597 178.147 106.221 181.62C105.79 182.667 105.465 183.754 105.251 184.866C105.077 185.929 104.966 187.001 104.919 188.077C104.664 189.964 104.819 191.883 105.373 193.705C105.983 195.25 107.134 196.521 108.612 197.279C110.636 198.037 112.78 198.426 114.941 198.427C117.099 198.391 119.237 198.003 121.27 197.279C122.748 196.521 123.9 195.25 124.51 193.705C125.063 191.883 125.218 189.964 124.963 188.077C124.916 187.001 124.806 185.929 124.632 184.866C124.417 183.754 124.092 182.667 123.661 181.62C122.284 178.147 120.008 175.102 117.065 172.8Z" fill="#7CC67A"/>
<path d="M111.235 207.151V198.773H118.647V207.151" fill="#957F6E"/>
<path d="M118.074 171.077C112.653 167.366 107.209 174.93 105.141 179.161C103.806 181.954 103.05 184.989 102.919 188.082C102.725 191.177 102.859 194.253 104.887 196.769C107.933 200.549 113.623 200.769 118.068 200.138C120.551 199.788 122.88 199.128 124.629 197.203C126.784 194.832 127.171 191.828 127.003 188.74C126.918 185.291 126.085 181.901 124.563 178.804C123.091 175.924 121.016 173.396 118.479 171.39C118.096 171.03 117.59 170.829 117.065 170.829C116.539 170.829 116.033 171.03 115.65 171.39C115.278 171.767 115.07 172.275 115.07 172.804C115.07 173.333 115.278 173.841 115.65 174.218C119.148 176.894 121.611 180.7 122.62 184.987C123.209 187.398 123.285 189.906 122.843 192.348C122.646 193.165 122.234 193.915 121.651 194.521C121.067 195.127 120.333 195.566 119.524 195.794C116.524 196.619 112.699 196.836 109.771 195.62C108.917 195.224 108.191 194.596 107.675 193.808C107.16 193.019 106.876 192.103 106.856 191.161C106.667 188.74 106.893 186.305 107.524 183.961C108.21 181.636 109.334 179.464 110.835 177.561C111.956 176.136 114.065 173.174 116.055 174.536C118.185 175.988 120.188 172.524 118.074 171.077Z" fill="#211715"/>
<path d="M116.467 198.773V207.151C116.467 207.681 116.678 208.19 117.053 208.565C117.428 208.94 117.937 209.151 118.467 209.151C118.997 209.151 119.506 208.94 119.881 208.565C120.256 208.19 120.467 207.681 120.467 207.151V198.773C120.467 198.243 120.256 197.734 119.881 197.359C119.506 196.984 118.997 196.773 118.467 196.773C117.937 196.773 117.428 196.984 117.053 197.359C116.678 197.734 116.467 198.243 116.467 198.773Z" fill="#211715"/>
<path d="M109.055 198.773V207.151C109.055 207.681 109.266 208.19 109.641 208.565C110.016 208.94 110.525 209.151 111.055 209.151C111.585 209.151 112.094 208.94 112.469 208.565C112.844 208.19 113.055 207.681 113.055 207.151V198.773C113.055 198.243 112.844 197.734 112.469 197.359C112.094 196.984 111.585 196.773 111.055 196.773C110.525 196.773 110.016 196.984 109.641 197.359C109.266 197.734 109.055 198.243 109.055 198.773Z" fill="#211715"/>
<path d="M485 172.8C484.392 172.33 483.644 172.074 482.875 172.074C482.106 172.074 481.358 172.33 480.75 172.8C477.808 175.103 475.532 178.147 474.156 181.62C473.725 182.667 473.4 183.754 473.186 184.866C473.012 185.929 472.901 187.001 472.854 188.077C472.599 189.964 472.754 191.883 473.308 193.705C473.918 195.25 475.069 196.521 476.547 197.279C478.571 198.037 480.715 198.426 482.876 198.427C485.034 198.391 487.172 198.003 489.205 197.279C490.683 196.521 491.835 195.25 492.445 193.705C492.998 191.883 493.153 189.964 492.898 188.077C492.851 187.001 492.741 185.929 492.567 184.866C492.352 183.754 492.027 182.667 491.596 181.62C490.219 178.147 487.943 175.102 485 172.8Z" fill="#7CC67A"/>
<path d="M479.172 207.151V198.773H486.584V207.151" fill="#957F6E"/>
<path d="M486.011 171.077C480.59 167.366 475.146 174.93 473.078 179.161C471.743 181.954 470.987 184.989 470.856 188.082C470.662 191.177 470.796 194.253 472.824 196.769C475.87 200.549 481.56 200.769 486.005 200.138C488.488 199.788 490.817 199.128 492.566 197.203C494.721 194.832 495.108 191.828 494.94 188.74C494.855 185.291 494.022 181.901 492.5 178.804C491.028 175.924 488.953 173.396 486.416 171.39C486.033 171.03 485.527 170.829 485.001 170.829C484.476 170.829 483.97 171.03 483.587 171.39C483.215 171.767 483.007 172.275 483.007 172.804C483.007 173.333 483.215 173.841 483.587 174.218C487.085 176.894 489.548 180.7 490.557 184.987C491.146 187.398 491.222 189.906 490.78 192.348C490.583 193.165 490.171 193.915 489.588 194.521C489.004 195.127 488.27 195.566 487.461 195.794C484.461 196.619 480.636 196.836 477.708 195.62C476.854 195.224 476.128 194.596 475.612 193.808C475.097 193.019 474.813 192.103 474.793 191.161C474.604 188.74 474.83 186.305 475.461 183.961C476.147 181.636 477.271 179.464 478.772 177.561C479.893 176.136 482.002 173.174 483.992 174.536C486.122 175.988 488.125 172.524 486.011 171.077Z" fill="#211715"/>
<path d="M484.4 198.773V207.151C484.4 207.681 484.611 208.19 484.986 208.565C485.361 208.94 485.87 209.151 486.4 209.151C486.93 209.151 487.439 208.94 487.814 208.565C488.189 208.19 488.4 207.681 488.4 207.151V198.773C488.4 198.243 488.189 197.734 487.814 197.359C487.439 196.984 486.93 196.773 486.4 196.773C485.87 196.773 485.361 196.984 484.986 197.359C484.611 197.734 484.4 198.243 484.4 198.773Z" fill="#211715"/>
<path d="M476.992 198.773V207.151C476.992 207.681 477.203 208.19 477.578 208.565C477.953 208.94 478.462 209.151 478.992 209.151C479.522 209.151 480.031 208.94 480.406 208.565C480.781 208.19 480.992 207.681 480.992 207.151V198.773C480.992 198.243 480.781 197.734 480.406 197.359C480.031 196.984 479.522 196.773 478.992 196.773C478.462 196.773 477.953 196.984 477.578 197.359C477.203 197.734 476.992 198.243 476.992 198.773Z" fill="#211715"/>
<path d="M17.065 172.8C16.4565 172.33 15.7091 172.074 14.94 172.074C14.1708 172.074 13.4234 172.33 12.815 172.8C9.87298 175.103 7.59703 178.147 6.22098 181.62C5.79037 182.667 5.46542 183.754 5.25097 184.866C5.07676 185.929 4.9659 187.001 4.91898 188.077C4.66419 189.964 4.81904 191.883 5.37298 193.705C5.98261 195.25 7.13398 196.521 8.61198 197.279C10.636 198.037 12.7796 198.426 14.941 198.427C17.099 198.391 19.2367 198.003 21.27 197.279C22.7482 196.521 23.8999 195.25 24.51 193.705C25.0631 191.883 25.2176 189.964 24.963 188.077C24.9164 187.001 24.8059 185.929 24.632 184.866C24.4172 183.754 24.0919 182.667 23.661 181.62C22.2844 178.147 20.0077 175.102 17.065 172.8Z" fill="#7CC67A"/>
<path d="M11.235 207.151V198.773H18.647V207.151" fill="#957F6E"/>
<path d="M18.074 171.077C12.653 167.366 7.209 174.93 5.141 179.161C3.80569 181.954 3.04983 184.989 2.919 188.082C2.725 191.177 2.859 194.253 4.887 196.769C7.933 200.549 13.623 200.769 18.068 200.138C20.551 199.788 22.88 199.128 24.629 197.203C26.784 194.832 27.171 191.828 27.003 188.74C26.9178 185.291 26.0854 181.901 24.563 178.804C23.0912 175.924 21.0161 173.396 18.479 171.39C18.096 171.03 17.5902 170.829 17.0645 170.829C16.5388 170.829 16.033 171.03 15.65 171.39C15.2782 171.767 15.0698 172.275 15.0698 172.804C15.0698 173.333 15.2782 173.841 15.65 174.218C19.1484 176.894 21.6115 180.7 22.62 184.987C23.2091 187.398 23.2851 189.906 22.843 192.348C22.6456 193.165 22.2341 193.915 21.6508 194.521C21.0674 195.127 20.3334 195.566 19.524 195.794C16.524 196.619 12.699 196.836 9.771 195.62C8.91668 195.224 8.19062 194.596 7.67533 193.808C7.16004 193.019 6.87618 192.103 6.856 191.161C6.66669 188.74 6.89261 186.305 7.524 183.961C8.21027 181.636 9.33406 179.464 10.835 177.561C11.956 176.136 14.065 173.174 16.055 174.536C18.185 175.988 20.188 172.524 18.074 171.077Z" fill="#211715"/>
<path d="M16.467 198.773V207.151C16.467 207.681 16.6777 208.19 17.0528 208.565C17.4278 208.94 17.9365 209.151 18.467 209.151C18.9974 209.151 19.5061 208.94 19.8812 208.565C20.2563 208.19 20.467 207.681 20.467 207.151V198.773C20.467 198.243 20.2563 197.734 19.8812 197.359C19.5061 196.984 18.9974 196.773 18.467 196.773C17.9365 196.773 17.4278 196.984 17.0528 197.359C16.6777 197.734 16.467 198.243 16.467 198.773Z" fill="#211715"/>
<path d="M9.05499 198.773V207.151C9.05499 207.681 9.26571 208.19 9.64078 208.565C10.0159 208.94 10.5246 209.151 11.055 209.151C11.5854 209.151 12.0941 208.94 12.4692 208.565C12.8443 208.19 13.055 207.681 13.055 207.151V198.773C13.055 198.243 12.8443 197.734 12.4692 197.359C12.0941 196.984 11.5854 196.773 11.055 196.773C10.5246 196.773 10.0159 196.984 9.64078 197.359C9.26571 197.734 9.05499 198.243 9.05499 198.773Z" fill="#211715"/>
<path d="M1.93201 207.663C17.317 207.663 479.952 207.493 494.495 207.493Z" fill="white"/>
<path d="M1.932 209.663C7.44933 209.663 12.966 209.663 18.482 209.663L55.395 209.65L108.195 209.632L171.143 209.61L240.143 209.585L309.477 209.56L374.393 209.537L429.899 209.518L471 209.5L492.709 209.493H494.5C497.074 209.493 497.078 205.493 494.5 205.493C489.058 205.493 483.616 205.493 478.173 205.493L441.434 205.505L388.764 205.523L325.894 205.546L256.922 205.57L187.57 205.595L122.588 205.618L66.967 205.637L25.701 205.651C18.3937 205.651 11.087 205.653 3.781 205.658H1.932C-0.642 205.658 -0.646 209.658 1.932 209.658V209.663Z" fill="#211715"/>
</g>
<defs>
<clipPath id="clip0_1_202">
<rect width="496.427" height="209.663" fill="white"/>
</clipPath>
</defs>
</svg>
