<svg width="437" height="167" viewBox="0 0 437 167" fill="none" xmlns="http://www.w3.org/2000/svg">
<path d="M313.862 39.9277C315.464 40.1241 316.265 39.437 315.608 38.3523C310.161 29.8619 282.43 10 235.939 10C171.634 10 154.236 32.4237 156.127 39.3339C148.918 36.6788 104.422 29.0275 76.1058 42.3816C62.5607 48.7618 53.0206 64.2017 60.6222 73.5805C35.4945 66.3955 5.35253 92.7209 21.589 109.977C47.7981 137.833 100.889 135.551 121.715 129.927C142.702 139.826 167.784 145.937 194.135 147.57C216.54 149.264 239.18 149.454 261.652 148.135C280.905 146.962 299.552 143.358 316.417 137.549C323.974 134.702 330.326 130.802 334.955 126.165C339.585 121.529 342.362 116.288 343.059 110.87C357.676 113.482 373.29 113.08 387.499 109.726C408.926 104.72 419.723 89.6045 418.962 73.9388C418.545 66.9471 415.175 60.141 409.181 54.1859C403.188 48.2308 394.776 43.33 384.767 39.9621C374.13 36.8358 362.455 35.2609 350.659 35.3605C338.861 35.4601 327.262 37.2316 316.769 40.5363" fill="white"/>
<path d="M171.78 34.9859C172.632 38.4223 172.182 36.7338 172.247 35.8278C172.335 34.4551 170.72 37.864 172.054 36.743C172.857 36.0474 175.035 32.9039 172.576 35.3107C173.79 34.1302 174.842 32.9176 176.128 31.7554C177.414 30.5931 174.175 32.8215 177.205 30.9684C178.073 30.4376 178.909 29.8976 179.809 29.3851C181.087 28.653 182.437 27.9667 183.827 27.3032C181.344 28.4883 184.671 26.9463 185.257 26.7266C188.409 25.5297 191.704 24.4595 195.118 23.5236C202.937 21.6497 211.167 20.3876 219.581 19.7715C239.81 17.8998 260.55 20.1521 278.15 26.1318C284.371 28.3551 289.972 31.0958 294.769 34.2629C295.235 34.5649 298.425 36.8574 296.312 35.2467C297.196 35.9239 298.037 36.6164 298.835 37.3241C299.534 37.951 300.137 38.6099 300.82 39.2367C303.279 41.488 300.427 37.53 300.997 39.8453L302.604 32.7941L301.978 33.3157L315.856 28.7857L314.514 28.8589C310.287 28.9236 306.265 29.9086 303.275 31.611C300.285 33.3134 298.555 35.6037 298.442 38.0104C298.473 40.432 300.177 42.7493 303.184 44.4618C306.191 46.1741 310.261 47.1441 314.514 47.162C330.764 46.2468 335.827 38.2209 329.028 30.5062C325.642 26.9187 321.413 23.6105 316.459 20.6729C302.972 12.4239 285.781 6.43035 266.746 3.33993C230.582 -2.53992 179.857 1.20763 154.06 18.3118C149.211 21.1369 145.508 24.5325 143.21 28.2597C140.912 31.987 140.076 35.9556 140.76 39.8865C141.911 42.2219 144.634 44.2046 148.337 45.404C152.039 46.6033 156.424 46.9226 160.538 46.2926C164.593 45.5975 168.023 44.0413 170.117 41.9457C172.212 39.8501 172.81 37.3761 171.788 35.0362L171.78 34.9859Z" fill="#D9D9D9"/>
<path d="M325.572 46.4436C333.192 44.2632 341.533 43.0215 350.051 42.8C358.57 42.5784 367.075 43.3818 375.012 45.1578C373.887 44.8832 374.219 44.9807 376.009 45.4506C377.043 45.7558 378.063 46.0606 379.07 46.3658C381.064 47.0064 382.986 47.717 384.824 48.4935C383.474 47.9124 387.621 49.9166 388.119 50.1865C389.767 51.1017 391.334 52.0168 392.797 53.0098C394.024 53.8609 394.24 54.0059 393.447 53.4445C394.115 53.9661 394.757 54.5015 395.376 55.0414C396.616 56.1259 397.759 57.2451 398.8 58.3954C399.322 58.972 399.82 59.5531 400.286 60.1434C399.788 59.4433 399.885 59.6126 400.6 60.6513C401.331 61.8822 402.046 63.1085 402.593 64.3714C404.45 68.7014 404.649 73.2085 403.176 77.5866C401.704 81.9647 398.594 86.1108 394.058 89.7439C395.666 88.5634 391.856 91.0435 391.438 91.2768C390.699 91.6886 389.936 92.0867 389.14 92.4711C390.378 91.9678 390.225 92.0273 388.682 92.6496C385.555 93.9587 381.983 94.8825 378.194 95.363C369.943 96.6588 361.267 96.8153 352.888 95.8206C348.779 95.2445 344.439 95.5881 340.76 96.7796C337.083 97.9716 334.347 99.9209 333.119 102.227C332.021 104.569 332.586 107.063 334.69 109.17C336.796 111.277 340.272 112.828 344.369 113.488C365.344 115.574 388.111 115.318 406.201 107.997C413.874 104.739 420.336 100.647 425.211 95.9565C430.087 91.2668 433.278 86.0724 434.602 80.6748C438.341 69.1535 434.763 57.2506 424.508 47.0933C414.213 37.2205 397.804 29.897 378.508 26.5619C355.382 22.9253 330.697 24.3961 309.395 30.68C307.572 31.2866 305.977 32.0917 304.702 33.0493C303.426 34.0068 302.493 35.0982 301.957 36.2609C301.422 37.4236 301.295 38.635 301.581 39.8259C301.868 41.0168 302.563 42.1639 303.629 43.2016C304.695 44.2394 306.108 45.1472 307.79 45.8739C309.471 46.6005 311.388 47.1318 313.43 47.4365C315.472 47.7412 317.6 47.814 319.691 47.6511C321.783 47.4877 323.798 47.0915 325.621 46.4847L325.572 46.4436Z" fill="#D9D9D9"/>
<path d="M245.077 127.969C239.274 151.177 209.959 148.287 193.432 144.378C174.386 139.873 151.774 132.033 140.398 114.166C134.282 104.565 119.015 113.882 125.173 123.556C140.308 147.3 168.576 158.619 194.544 163.454C219.749 168.149 253.797 164.317 261.75 132.511C264.627 120.996 247.966 116.414 245.077 127.969Z" fill="#D9D9D9"/>
<path d="M332.879 111.303C335.914 126.508 313.144 133.667 299.584 136.382C283.956 139.51 264.613 141.779 250.464 134.848C242.86 131.125 234.434 141.128 242.093 144.881C260.908 154.086 285.571 152.13 306.463 147.107C326.743 142.232 350.909 129.749 346.748 108.912C345.241 101.369 331.367 103.734 332.879 111.303Z" fill="#D9D9D9"/>
<path d="M164.371 29.5178C157.924 27.5983 150.987 26.2688 143.814 25.5781C132.835 24.2202 121.577 23.7427 110.367 24.1596C97.2143 24.573 84.4067 26.7089 72.9413 30.401C61.3175 34.4509 52.2986 40.5281 47.2248 47.7293C43.8367 51.8242 42.0251 56.2837 41.9115 60.8096C41.7978 65.3355 43.3846 69.8229 46.5658 73.9713C48.7294 76.0592 52.2547 77.5752 56.3731 78.1897C60.4915 78.8042 64.8696 78.4675 68.5535 77.2521C72.1532 75.986 74.7623 73.9814 75.8432 71.6523C76.924 69.3228 76.3945 66.8464 74.3637 64.7329C76.2361 67.0207 74.3637 64.3485 74.0584 63.8177C72.9815 61.9554 73.9779 65.4009 73.9377 63.5432C73.9377 62.596 73.9377 61.6488 73.9377 60.7016C73.9377 58.6288 73.2628 62.1155 73.9941 60.244C74.669 58.5007 75.5048 56.8351 76.4611 55.1375C77.1306 54.1642 77.0984 54.1857 76.3647 55.2016C76.7344 54.744 77.1201 54.2864 77.5219 53.8288C78.1247 53.1562 78.7676 52.4927 79.4507 51.8475C80.3395 51.0001 81.3023 50.1783 82.3357 49.3858C80.1177 51.0834 82.4322 49.3858 83.0269 49.0426C84.1198 48.3791 85.2851 47.7751 86.4905 47.1757C83.6537 48.5942 86.7156 47.1299 87.479 46.8462C88.9898 46.288 90.5409 45.7741 92.1321 45.3042C93.2893 44.9656 95.7404 44.3387 93.1286 44.9564C96.1784 44.2463 99.3222 43.6757 102.531 43.2497C104.01 43.0483 105.513 42.9065 106.999 42.7189C110.286 42.3071 104.179 42.847 108.486 42.5953C111.435 42.4215 114.393 42.3391 117.326 42.3254C120.259 42.3117 123.024 42.3803 125.861 42.5038C127.219 42.5633 128.577 42.6503 129.935 42.7235C133.383 42.9065 126.439 42.3574 130.642 42.783C135.037 43.1976 139.389 43.7506 143.677 44.4394C145.285 44.7093 146.795 45.0434 148.371 45.3545L149.174 45.5376C146.169 44.8009 145.365 44.6224 146.763 44.961C146.98 44.9153 147.945 45.3042 148.17 45.3774C151.85 46.6019 156.235 46.9437 160.358 46.3273C164.482 45.7114 168.007 44.1877 170.157 42.092C172.308 39.9962 172.908 37.4998 171.826 35.152C170.744 32.8041 168.068 30.7973 164.387 29.5727L164.371 29.5178Z" fill="#D9D9D9"/>
<path d="M71.5188 61.3192C62.5803 58.0033 52.0773 56.7043 42.2413 57.6975C33.0824 58.7823 24.8808 61.3443 18.5508 65.099C11.4327 68.9476 6.27803 73.8548 3.55266 79.3768C0.82718 84.8988 0.616777 90.8619 2.94078 96.7264C13.8137 118.417 52.4429 133.271 89.1811 135.913C103.801 137.307 118.425 136.488 131.58 133.537C135.327 132.614 138.135 130.836 139.393 128.591C140.65 126.347 140.254 123.818 138.292 121.559C136.328 119.3 132.958 117.493 128.917 116.534C124.876 115.574 120.493 115.541 116.727 116.441C115.351 116.785 113.895 117.035 112.481 117.358C110.837 117.726 116.611 116.867 113.137 117.234C111.916 117.361 110.696 117.489 109.476 117.612C107.291 117.801 105.079 117.924 102.857 117.977C101.66 118.015 100.435 118.005 99.2463 118.048C96.8197 118.134 100.778 117.96 100.712 118.074C99.9146 118.108 99.1046 118.093 98.2963 118.028C92.3875 117.875 86.4626 117.401 80.6003 116.614C79.8746 116.516 79.1512 116.392 78.4247 116.303C76.2124 116.045 81.553 116.891 79.3712 116.46C77.9114 116.173 76.4309 115.939 74.9726 115.634C71.8007 114.995 68.6799 114.252 65.6266 113.407C64.1527 112.999 62.7316 112.536 61.2741 112.124C64.9832 113.192 60.6726 111.891 59.7104 111.535C56.4716 110.323 53.3756 108.98 50.4497 107.515C49.7838 107.183 49.1189 106.843 48.4786 106.496C48.9492 106.751 50.7824 107.878 48.7062 106.57C47.4816 105.783 46.1895 105.033 44.9985 104.231C43.8074 103.429 42.5902 102.555 41.4689 101.69C40.8854 101.242 40.3347 100.787 39.7756 100.337C37.9843 98.9013 40.2659 100.837 39.3041 99.8978C38.3422 98.9588 37.2382 97.8885 36.3335 96.8441C35.9861 96.4661 33.7812 93.7059 34.4551 94.7127C35.1291 95.7195 33.7827 93.1091 33.6149 92.7048C33.4527 92.2321 33.4108 91.7694 33.2167 91.294C32.7655 90.2278 33.0741 92.9994 33.2807 91.2994C33.3592 90.36 33.3408 89.4218 33.5157 88.4859C33.6019 88.034 33.7283 87.5854 33.8575 87.1002C33.2971 89.1748 33.6001 87.8639 33.8301 87.4286C34.4127 86.4395 34.8595 85.4345 35.5294 84.462C35.8318 84.0281 36.22 83.6289 36.4419 83.1928C37.0322 82.209 35.004 84.4778 36.5621 83.1065C37.6413 82.1589 38.6333 81.1903 39.8292 80.2938C40.302 79.943 40.8138 79.6093 41.2867 79.2585C43.0053 77.9924 39.9599 79.7905 41.3785 79.2202C42.7971 78.65 43.9062 77.9253 45.2039 77.3542C45.7808 77.1085 46.4359 76.8924 46.9976 76.6362C44.2142 77.9052 46.382 76.8603 47.3724 76.5895C48.0077 76.4176 48.65 76.26 49.2994 76.1123C49.8173 75.9948 52.7426 75.5367 50.2951 75.874C47.554 76.2511 53.0751 75.514 53.3489 75.7113C54.0258 76.1995 49.3492 75.322 52.0984 75.7171C52.6003 75.7911 54.7322 75.758 55.1235 75.9974C55.2082 76.0458 51.0111 75.0247 53.9019 75.8494C54.8705 76.1277 57.9225 77.0486 54.0799 75.7449C57.6885 77.192 61.99 77.8448 66.1089 77.5705C70.2278 77.2961 73.8546 76.1156 76.2514 74.2684C78.5397 72.352 79.3294 69.9178 78.4482 67.4923C77.5678 65.0668 75.0874 62.8452 71.5441 61.3076L71.5188 61.3192Z" fill="#D9D9D9"/>
<path d="M116.155 123.904C119.424 125.092 123.539 125.736 128.252 125.8C132.967 125.863 138.184 125.344 143.594 124.273C149.004 123.202 154.496 121.602 159.743 119.567C164.99 117.531 169.885 115.104 174.136 112.428C175.432 111.623 176.515 110.76 177.323 109.887C178.132 109.013 178.649 108.147 178.847 107.338C179.045 106.528 178.919 105.791 178.476 105.168C178.033 104.545 177.282 104.049 176.266 103.708C175.249 103.367 173.988 103.188 172.554 103.181C171.119 103.174 169.539 103.338 167.904 103.666C166.269 103.994 164.611 104.477 163.025 105.09C161.439 105.702 159.955 106.431 158.66 107.236C157.551 107.974 156.361 108.688 155.102 109.37L157.897 107.888C155.926 108.929 153.817 109.888 151.621 110.743L154.861 109.494C152.323 110.46 149.707 111.291 147.08 111.966L150.443 111.1C147.803 111.763 145.177 112.269 142.626 112.606L145.763 112.188C143.388 112.485 141.106 112.625 138.965 112.604L141.745 112.632C139.921 112.599 138.227 112.437 136.698 112.148L138.986 112.604C137.823 112.363 136.776 112.042 135.86 111.644C133.797 110.967 130.793 110.959 127.5 111.619C124.207 112.28 120.891 113.557 118.271 115.173C115.726 116.8 114.086 118.612 113.69 120.233C113.295 121.855 114.175 123.162 116.149 123.883L116.155 123.904Z" fill="#D9D9D9"/>
</svg>
