<svg width="79" height="19" viewBox="0 0 79 19" fill="none" xmlns="http://www.w3.org/2000/svg">
<path d="M56.9053 5.15591C57.2047 5.18112 57.3473 5.09395 57.2216 4.95593C56.2338 3.87826 51.1982 1.35715 42.7543 1.35715C31.0807 1.35715 27.9108 4.20344 28.261 5.08028C26.949 4.74356 18.8722 3.77443 13.7309 5.46742C11.2714 6.2793 9.54032 8.23722 10.9192 9.42727C6.35651 8.5154 0.882873 11.8561 3.8352 14.0473C8.59346 17.5824 18.2367 17.2927 22.0171 16.5787C25.2359 17.7969 30.8971 18.6357 35.1674 18.8186C39.2359 19.0334 43.3471 19.0575 47.4277 18.8904C50.9237 18.7415 54.3098 18.2839 57.3723 17.5465C58.7445 17.1852 59.898 16.6901 60.7388 16.1016C61.5795 15.5131 62.0837 14.8479 62.2103 14.1601C65.465 14.4417 67.3986 14.4849 70.2801 14.0153C74.1713 13.3799 76.1309 11.4583 75.9932 9.47257C75.9176 8.58509 75.3057 7.72121 74.2172 6.96534C73.1287 6.20948 71.6009 5.58749 69.7832 5.16018C67.8519 4.76334 65.7322 4.56341 63.5903 4.57601C61.4484 4.58862 59.3423 4.81342 57.4371 5.23282" fill="white"/>
<path d="M30.2 4.54504C30.291 4.79487 30.208 4.62589 30.263 4.50461C30.135 4.77829 30.346 4.44115 30.4 4.34979C30.45 4.2653 30.531 4.21234 30.4 4.33402C30.461 4.27864 30.524 4.22285 30.595 4.16949C30.7658 4.04148 30.9538 3.91733 31.158 3.79758C31.394 3.65892 31.136 3.79758 31.353 3.69651C31.482 3.63668 31.612 3.57726 31.753 3.51985C32.0408 3.39967 32.3446 3.28591 32.663 3.17907C33.4719 2.93076 34.3552 2.72484 35.292 2.56621C40.539 1.68292 47.1 1.85392 51.726 3.21949C52.6897 3.50718 53.5629 3.84142 54.326 4.21477C54.5869 4.34512 54.8261 4.48234 55.042 4.62549C55.142 4.69421 55.242 4.76576 55.342 4.8353C55.622 5.03055 55.342 4.75242 55.422 4.9683L55.622 4.34494L55.508 4.41245L57.235 4.01224L56.992 4.02153C56.466 4.02725 55.9655 4.11427 55.5934 4.26467C55.2214 4.41508 55.0061 4.6174 54.992 4.83004C54.9957 5.04401 55.2075 5.24881 55.5818 5.40012C55.9561 5.55143 56.4627 5.63705 56.992 5.63855C59.386 5.54517 59.706 4.70027 58.718 3.9613C58.1143 3.53132 57.3747 3.13492 56.518 2.78209C54.1129 1.76499 51.0574 1.03733 47.691 0.679959C41.491 0.0266827 32.822 0.482683 28.472 2.5836C27.7192 2.89842 27.1409 3.27447 26.7757 3.68671C26.4105 4.09895 26.2667 4.53793 26.354 4.97436C26.4975 5.18065 26.8363 5.35573 27.297 5.46165C27.7577 5.5676 28.3031 5.59586 28.815 5.54032C29.3197 5.47903 29.7467 5.3415 30.0074 5.15635C30.268 4.97121 30.3424 4.75258 30.215 4.54585L30.2 4.54504Z" fill="#D9D9D9"/>
<path d="M39.9316 10.529C40.0377 10.7629 39.9462 10.6065 39.9859 10.4845C39.8927 10.7601 40.0566 10.4161 40.098 10.3231C40.1364 10.2372 40.2062 10.179 40.0966 10.3079C40.1478 10.2491 40.2007 10.1898 40.2612 10.1321C40.4068 9.99377 40.5686 9.85766 40.7457 9.72443C40.9503 9.57021 40.7254 9.72631 40.916 9.61006C41.0292 9.5412 41.1435 9.47264 41.268 9.4051C41.5219 9.26432 41.7911 9.12839 42.0744 8.9979C42.7961 8.68878 43.5901 8.41429 44.4375 8.18097C49.1842 6.87917 55.234 6.48489 59.6112 7.41091C60.5234 7.60692 61.3565 7.85567 62.0918 8.15164C62.3435 8.25545 62.5758 8.36775 62.7872 8.48777C62.8853 8.5457 62.9837 8.60636 63.0819 8.66508C63.357 8.83002 63.0745 8.58493 63.1674 8.78688L63.2955 8.16698L63.1967 8.24199L64.7492 7.70764L64.5265 7.73736C64.0433 7.78775 63.5907 7.9146 63.262 8.09179C62.9333 8.26898 62.7534 8.48301 62.7596 8.68985C62.7821 8.89646 62.9953 9.07645 63.3531 9.19086C63.711 9.30526 64.1846 9.34485 64.6716 9.30115C66.8651 9.00663 67.0836 8.16225 66.1086 7.53188C65.5148 7.16755 64.799 6.84729 63.9794 6.57914C61.6761 5.80068 58.8005 5.35761 55.6722 5.29916C49.9112 5.19625 41.9788 6.37671 38.1663 8.77953C37.5022 9.14821 37.004 9.56121 36.7051 9.99103C36.4062 10.4209 36.3133 10.8576 36.4327 11.2723C36.5832 11.4595 36.9105 11.5999 37.3438 11.6631C37.777 11.7262 38.2812 11.7071 38.747 11.6097C39.2057 11.5074 39.5861 11.3379 39.8093 11.1366C40.0324 10.9353 40.0812 10.7176 39.9455 10.5285L39.9316 10.529Z" fill="#D9D9D9"/>
<path d="M60.2485 5.85527C61.4654 5.50557 62.8044 5.28112 64.1793 5.19636C65.554 5.11163 66.934 5.1685 68.2299 5.36333C69.393 5.57184 70.4279 5.91153 71.2544 6.3562C72.0811 6.80082 72.6773 7.3385 72.9971 7.92769C73.3288 8.52117 73.3918 9.14986 73.1818 9.77093C72.9717 10.392 72.4935 10.991 71.7798 11.5272C70.162 12.63 67.277 12.8532 64.797 12.7316C64.3728 12.6961 63.9279 12.7426 63.554 12.8615C63.1802 12.9805 62.9057 13.1628 62.7874 13.3709C62.6828 13.5817 62.7495 13.7997 62.973 13.9777C63.1966 14.1558 63.5591 14.2797 63.9822 14.3227C66.9394 14.4673 70.1365 14.3149 72.6366 13.3362C73.6846 12.9017 74.5581 12.3742 75.2067 11.7844C75.8553 11.1945 76.2662 10.5539 76.4157 9.89943C76.8739 8.49461 76.3098 7.08293 74.8236 5.91486C73.337 4.77827 71.0048 3.97962 68.2859 3.67608C64.9996 3.34919 61.5141 3.65021 58.526 4.51896C56.6507 5.06031 58.3747 6.39454 60.2476 5.85368L60.2485 5.85527Z" fill="#D9D9D9"/>
<path d="M65.1403 11.8259C65.5169 15.9053 50.5214 16.8489 41.4431 16.956C31.3714 17.0727 19.1367 16.779 11.1092 14.4081C8.26335 13.5676 4.09865 14.9844 6.96353 15.8309C16.729 18.7153 31.1604 19.2102 43.5182 18.9326C49.9836 18.7878 56.8798 18.3291 62.4454 17.1285C65.0859 16.5746 67.2622 15.795 68.7615 14.8658C70.2609 13.9367 71.0318 12.8899 70.999 11.8279C70.8803 10.5363 65.0172 10.5308 65.1374 11.8279L65.1403 11.8259Z" fill="#D9D9D9"/>
<path d="M29.282 4.06154C28.1799 3.83154 26.995 3.67316 25.771 3.5922C23.8588 3.42603 21.8985 3.36875 19.947 3.42201C17.7228 3.47345 15.5579 3.73129 13.62 4.17554C11.6805 4.65612 10.1761 5.37671 9.33003 6.23037C8.77063 6.70517 8.46673 7.2225 8.43823 7.74827C8.40983 8.27405 8.65753 8.79626 9.16503 9.28048C9.43573 9.46429 9.87433 9.5977 10.3862 9.65191C10.898 9.70612 11.4421 9.67685 11.901 9.57033C12.35 9.45884 12.6752 9.28157 12.809 9.07552C12.9427 8.86951 12.8747 8.65053 12.619 8.46429C12.728 8.55969 12.493 8.29208 12.471 8.25771C12.371 8.09803 12.447 8.27833 12.417 8.12391C12.3816 7.94862 12.396 7.77232 12.46 7.59837C12.6276 7.18345 12.9949 6.78582 13.541 6.42805C14.0707 6.09511 14.7644 5.80991 15.5789 5.59019C16.3934 5.37048 17.3112 5.22095 18.275 5.15101C19.2349 5.05779 20.2199 5.01336 21.207 5.01882C21.724 5.01882 22.24 5.02569 22.755 5.04146C23.315 5.05884 23.591 5.07218 23.865 5.09118C24.6632 5.14289 25.453 5.21403 26.23 5.30422C26.518 5.33859 26.797 5.38225 27.082 5.41903C27.5 5.4732 26.805 5.32646 27.009 5.40569C27.0892 5.42696 27.1747 5.44486 27.264 5.45905C29.498 5.97933 31.515 4.58263 29.282 4.06275V4.06154Z" fill="#D9D9D9"/>
<path d="M14.7054 8.39295C5.60924 7.1203 -2.22145 10.9903 0.57551 13.5639C2.27955 14.9477 5.48124 16.0893 9.59646 16.7804C13.1448 17.3777 17.1124 17.6738 21.1202 17.6403C24.4805 17.6644 27.8013 17.4043 30.747 16.8862C33.6595 16.295 30.9673 14.8061 28.0347 15.4011C27.7096 15.4678 27.363 15.5155 27.0244 15.5731C26.6442 15.6406 27.1588 15.5546 27.2111 15.5482C27.101 15.5606 26.9962 15.5761 26.886 15.5881C26.5932 15.6204 26.3017 15.6535 26.0034 15.6819C25.4782 15.7322 24.9435 15.7743 24.4048 15.8109C24.1146 15.8298 23.8217 15.8448 23.5289 15.8616C23.416 15.868 23.0063 15.8852 23.5584 15.8616C23.3623 15.8698 23.1648 15.8766 22.9687 15.8831C20.1559 16.0003 17.2963 15.9076 14.6141 15.6122C14.0005 15.5529 13.4055 15.4755 12.8367 15.3809C12.0259 15.2523 11.2467 15.1041 10.5059 14.9376C9.2418 14.6427 8.12745 14.2872 7.20251 13.8834C6.68671 13.6639 6.23393 13.4299 5.84971 13.1843C5.72861 13.0822 5.62591 12.978 5.54207 12.8722C5.44838 12.7765 5.39683 12.677 5.38892 12.5768C5.30043 12.1104 5.58089 11.6445 6.20437 11.222C6.84329 10.7605 7.85689 10.3622 9.1397 10.0685C9.36942 10.0212 10.0008 9.91454 9.98067 9.91712C9.70393 9.95366 10.1956 9.89519 10.2588 9.89003C10.4616 9.87369 10.6618 9.85348 10.866 9.84059C10.377 9.87154 11.4033 9.83715 11.6304 9.84488C10.9654 9.82296 12.47 9.94291 11.9931 9.87627C12.6135 9.98436 13.3392 10.0126 14.0224 9.95534C14.7057 9.89807 15.2949 9.75954 15.67 9.568C16.0242 9.37061 16.1216 9.13654 15.9412 8.91637C15.7607 8.69619 15.3168 8.50753 14.7054 8.39123V8.39295Z" fill="#D9D9D9"/>
<path d="M57.7133 16.784C58.2283 16.9755 58.8422 17.0246 59.5181 16.9283C60.1941 16.8319 60.9184 16.5921 61.6475 16.2232C62.3767 15.8543 63.0957 15.3639 63.7616 14.7814C64.4275 14.1988 65.0266 13.5361 65.5229 12.8328C65.6379 12.6726 65.728 12.506 65.788 12.3428C65.8481 12.1795 65.8769 12.0227 65.8728 11.8813C65.8687 11.7399 65.832 11.6167 65.7644 11.5187C65.6969 11.4207 65.6 11.3498 65.4793 11.3101C65.3586 11.2704 65.2164 11.2627 65.0609 11.2874C64.9054 11.312 64.7396 11.3686 64.5729 11.4539C64.4062 11.5392 64.242 11.6514 64.0896 11.7843C63.9372 11.9171 63.7995 12.068 63.6845 12.2283C63.5986 12.3587 63.507 12.4876 63.4102 12.6145C63.3616 12.6693 63.3164 12.7263 63.2753 12.7846C63.4021 12.5608 63.4441 12.5906 63.3042 12.7463C63.1966 12.8655 63.0849 12.9818 62.9696 13.0946C62.9176 13.1461 62.8644 13.1968 62.8109 13.2465C62.6927 13.356 62.5488 13.4288 62.8609 13.2096C62.6145 13.3837 62.3827 13.5941 62.1341 13.7624C62.072 13.8049 62.0148 13.8415 61.9555 13.8808C61.6938 14.0542 62.27 13.7052 62.0029 13.8491C61.8687 13.9227 61.7366 13.9992 61.6018 14.067C61.4669 14.1348 61.3339 14.1973 61.2021 14.2532C61.1535 14.2738 60.932 14.368 61.1478 14.2774C61.3636 14.1867 61.1466 14.2743 61.0947 14.2928C60.8339 14.3815 60.5837 14.3981 60.3259 14.4886C60.4167 14.4567 60.5772 14.4609 60.3947 14.4729C60.3404 14.4773 60.2855 14.4826 60.232 14.4851C60.1032 14.4911 59.9827 14.4841 59.8588 14.4768C59.6737 14.4686 60.0324 14.5156 59.9162 14.4861C59.8715 14.4731 59.8217 14.4672 59.7767 14.4556C59.667 14.4269 59.5632 14.3898 59.4658 14.3444C59.221 14.2663 58.8953 14.3188 58.5593 14.4907C58.2232 14.6626 57.9039 14.9399 57.6706 15.2626C57.4462 15.5858 57.3256 15.9242 57.3338 16.2076C57.342 16.491 57.4783 16.6979 57.7146 16.7853L57.7133 16.784Z" fill="#D9D9D9"/>
</svg>
