<svg width="79" height="47" viewBox="0 0 79 47" fill="none" xmlns="http://www.w3.org/2000/svg">
<g clip-path="url(#clip0_1_319)">
<path d="M56.98 11.951C57.28 12.01 57.423 11.806 57.297 11.483C56.307 8.961 51.26 3.061 42.797 3.061C31.097 3.061 27.92 9.722 28.271 11.774C26.956 10.986 18.861 8.71801 13.708 12.68C11.243 14.58 9.50797 19.162 10.89 21.947C6.31697 19.813 0.830972 27.631 3.78997 32.759C8.55897 41.032 18.224 40.354 22.013 38.683C25.239 41.534 30.913 43.497 35.193 43.925C39.2707 44.4277 43.3911 44.4841 47.481 44.093C50.9849 43.7445 54.3786 42.6737 57.448 40.948C58.8233 40.1023 59.9794 38.9437 60.8221 37.5665C61.6647 36.1893 62.1701 34.6325 62.297 33.023C65.559 33.682 67.497 33.783 70.385 32.684C74.285 31.197 76.249 26.7 76.111 22.053C76.0352 19.9761 75.4219 17.9544 74.331 16.1855C73.24 14.4166 71.7088 12.961 69.887 11.961C67.9513 11.0323 65.8268 10.5644 63.6801 10.5939C61.5333 10.6234 59.4225 11.1495 57.513 12.131" fill="white"/>
<path d="M30.2 11.243C30.291 11.861 30.208 11.443 30.263 11.143C30.135 11.82 30.346 10.986 30.4 10.76C30.45 10.551 30.531 10.42 30.4 10.721C30.461 10.584 30.524 10.446 30.595 10.314C30.7658 9.99736 30.9538 9.69024 31.158 9.39401C31.394 9.05101 31.136 9.39401 31.353 9.14401C31.482 8.99601 31.612 8.84901 31.753 8.70701C32.0408 8.40972 32.3446 8.1283 32.663 7.86401C33.4719 7.24979 34.3552 6.74041 35.292 6.34801C40.539 4.16301 47.1 4.58601 51.726 7.96401C52.6897 8.67566 53.5629 9.50246 54.326 10.426C54.5869 10.7485 54.8261 11.0879 55.042 11.442C55.142 11.612 55.242 11.789 55.342 11.961C55.622 12.444 55.342 11.756 55.422 12.29L55.622 10.748L55.508 10.915L57.235 9.92501L56.992 9.94801C56.466 9.96215 55.9655 10.1774 55.5934 10.5495C55.2214 10.9215 55.0061 11.422 54.992 11.948C54.9957 12.4773 55.2075 12.9839 55.5818 13.3582C55.9561 13.7325 56.4627 13.9443 56.992 13.948C59.386 13.717 59.706 11.627 58.718 9.79901C58.1143 8.73538 57.3747 7.75482 56.518 6.88201C54.1129 4.36603 51.0574 2.56604 47.691 1.68201C41.491 0.0660111 32.822 1.19401 28.472 6.39101C27.7192 7.16979 27.1409 8.10002 26.7757 9.11977C26.4105 10.1395 26.2667 11.2254 26.354 12.305C26.4975 12.8153 26.8363 13.2484 27.297 13.5104C27.7577 13.7725 28.3031 13.8424 28.815 13.705C29.3197 13.5534 29.7467 13.2132 30.0074 12.7552C30.268 12.2972 30.3424 11.7564 30.215 11.245L30.2 11.243Z" fill="#D9D9D9"/>
<path d="M58.52 13.858C60.0079 13.1027 61.6376 12.668 63.304 12.5818C64.9703 12.4957 66.6362 12.7601 68.194 13.358C69.5906 13.9778 70.826 14.9104 71.8046 16.0838C72.7833 17.2571 73.479 18.6398 73.838 20.125C74.2112 21.6219 74.2578 23.1817 73.9747 24.6982C73.6915 26.2148 73.0852 27.6526 72.197 28.914C70.189 31.495 66.69 31.788 63.697 31.265C63.1857 31.1391 62.6456 31.2142 62.1879 31.4746C61.7303 31.7351 61.3899 32.1611 61.237 32.665C61.1007 33.1767 61.1711 33.7215 61.433 34.1818C61.695 34.6421 62.1274 34.9808 62.637 35.125C66.206 35.748 70.079 35.658 73.148 33.463C74.4357 32.4827 75.5166 31.2572 76.3286 29.8572C77.1406 28.4573 77.6675 26.9105 77.879 25.306C78.499 21.8743 77.8833 18.3339 76.141 15.313C74.3969 12.3699 71.6143 10.1863 68.341 9.192C64.3827 8.08908 60.154 8.52048 56.5 10.4C54.207 11.57 56.229 15.023 58.519 13.854L58.52 13.858Z" fill="#D9D9D9"/>
<path d="M60.292 32.136C60.549 40.247 50.316 42.123 44.121 42.336C37.248 42.568 28.899 41.984 23.421 37.27C21.479 35.599 18.637 38.416 20.592 40.099C27.256 45.834 37.104 46.818 45.537 46.266C49.949 45.978 54.655 45.066 58.453 42.679C60.2549 41.5777 61.74 40.0276 62.7631 38.1802C63.7863 36.3329 64.3124 34.2516 64.29 32.14C64.209 29.572 60.208 29.561 60.29 32.14L60.292 32.136Z" fill="#D9D9D9"/>
<path d="M29.282 10.047C28.1799 9.47805 26.995 9.08625 25.771 8.88599C23.8588 8.47495 21.8985 8.33325 19.947 8.46499C17.7228 8.59224 15.5579 9.23006 13.62 10.329C11.6805 11.5178 10.1761 13.3003 9.33003 15.412C8.77063 16.5865 8.46673 17.8662 8.43823 19.1668C8.40983 20.4674 8.65753 21.7592 9.16503 22.957C9.43573 23.4117 9.87433 23.7417 10.3862 23.8758C10.898 24.0099 11.4421 23.9375 11.901 23.674C12.35 23.3982 12.6752 22.9597 12.809 22.45C12.9427 21.9404 12.8747 21.3987 12.619 20.938C12.728 21.174 12.493 20.512 12.471 20.427C12.371 20.032 12.447 20.478 12.417 20.096C12.3816 19.6624 12.396 19.2263 12.46 18.796C12.6276 17.7696 12.9949 16.786 13.541 15.901C14.0707 15.0774 14.7644 14.3719 15.5789 13.8284C16.3934 13.2849 17.3112 12.915 18.275 12.742C19.2349 12.5114 20.2199 12.4015 21.207 12.415C21.724 12.415 22.24 12.432 22.755 12.471C23.315 12.514 23.591 12.547 23.865 12.594C24.6632 12.7219 25.453 12.8979 26.23 13.121C26.518 13.206 26.797 13.314 27.082 13.405C27.5 13.539 26.805 13.176 27.009 13.372C27.0892 13.4246 27.1747 13.4689 27.264 13.504C29.498 14.791 31.515 11.336 29.282 10.05V10.047Z" fill="#D9D9D9"/>
<path d="M11.9 20.22C5.12901 17.26 -0.699989 26.261 1.38201 32.247C2.65046 35.4655 5.03373 38.1206 8.09701 39.728C10.7383 41.1173 13.6917 41.8059 16.675 41.728C19.1764 41.784 21.6483 41.179 23.841 39.974C26.009 38.599 24.005 35.136 21.822 36.52C21.58 36.675 21.322 36.786 21.07 36.92C20.787 37.077 21.17 36.877 21.209 36.862C21.127 36.891 21.049 36.927 20.967 36.955C20.749 37.03 20.532 37.107 20.31 37.173C19.919 37.29 19.521 37.388 19.12 37.473C18.904 37.517 18.686 37.552 18.468 37.591C18.384 37.606 18.079 37.646 18.49 37.591C18.344 37.61 18.197 37.626 18.051 37.641C15.9572 37.9137 13.8286 37.6981 11.832 37.011C11.3753 36.8731 10.9324 36.693 10.509 36.473C9.90541 36.1738 9.32541 35.8291 8.77401 35.442C7.83301 34.7561 7.00351 33.9291 6.31501 32.99C5.93106 32.4794 5.59402 31.9352 5.30801 31.364C5.21787 31.1266 5.14142 30.8842 5.07901 30.638C5.00927 30.4154 4.9709 30.1842 4.96501 29.951C4.89914 28.8663 5.10791 27.7826 5.57201 26.8C6.04761 25.7265 6.80211 24.8001 7.75701 24.117C7.92801 24.007 8.39801 23.759 8.38301 23.765C8.17701 23.85 8.54301 23.714 8.59001 23.702C8.74101 23.664 8.89001 23.617 9.04201 23.587C8.67801 23.659 9.44201 23.579 9.61101 23.597C9.11601 23.546 10.236 23.825 9.88101 23.67C10.3428 23.9214 10.883 23.9871 11.3916 23.8539C11.9002 23.7207 12.3388 23.3985 12.618 22.953C12.8817 22.4939 12.9542 21.9495 12.8199 21.4374C12.6855 20.9253 12.3551 20.4865 11.9 20.216V20.22Z" fill="#D9D9D9"/>
<path d="M26.912 31.177C27.4663 32.1836 28.218 33.0681 29.1221 33.7774C30.0262 34.4867 31.0642 35.0063 32.1738 35.3051C33.2835 35.6038 34.442 35.6756 35.58 35.5162C36.7181 35.3567 37.8122 34.9692 38.797 34.377C39.0238 34.2444 39.2223 34.0685 39.3811 33.8592C39.5399 33.6499 39.6559 33.4115 39.7225 33.1573C39.7891 32.9032 39.8051 32.6385 39.7694 32.3782C39.7337 32.118 39.6471 31.8673 39.5145 31.6405C39.3819 31.4137 39.206 31.2152 38.9967 31.0564C38.7875 30.8976 38.549 30.7816 38.2948 30.715C38.0407 30.6484 37.776 30.6324 37.5157 30.6681C37.2555 30.7038 37.0048 30.7904 36.778 30.923C36.6031 31.0406 36.4218 31.1484 36.235 31.246C36.1456 31.2792 36.0596 31.3207 35.978 31.37C36.252 31.141 36.29 31.248 36.034 31.34C35.8373 31.4099 35.637 31.4693 35.434 31.518C35.342 31.541 35.249 31.561 35.156 31.579C34.951 31.618 34.732 31.559 35.238 31.579C34.838 31.565 34.438 31.634 34.038 31.607C33.938 31.601 33.847 31.591 33.752 31.583C33.333 31.548 34.239 31.683 33.828 31.589C33.621 31.544 33.415 31.507 33.21 31.451C33.005 31.395 32.805 31.332 32.61 31.259C32.538 31.232 32.21 31.11 32.529 31.231C32.848 31.352 32.529 31.224 32.454 31.189C32.079 31.006 31.754 30.71 31.382 30.534C31.513 30.596 31.714 30.812 31.477 30.596C31.406 30.533 31.334 30.471 31.265 30.406C31.099 30.249 30.95 30.08 30.797 29.906C30.567 29.651 30.997 30.2 30.865 29.997C30.815 29.916 30.755 29.841 30.704 29.762C30.5797 29.5689 30.4672 29.3686 30.367 29.162C30.097 28.7063 29.6583 28.3754 29.1459 28.241C28.6336 28.1066 28.0889 28.1795 27.63 28.444C27.1821 28.721 26.8578 29.1597 26.7244 29.6692C26.5909 30.1786 26.6584 30.7199 26.913 31.181L26.912 31.177Z" fill="#D9D9D9"/>
</g>
<defs>
<clipPath id="clip0_1_319">
<rect width="79" height="47" fill="white"/>
</clipPath>
</defs>
</svg>
