<svg width="79" height="14" viewBox="0 0 79 14" fill="none" xmlns="http://www.w3.org/2000/svg">
<g clip-path="url(#clip0_1_319)">
<path d="M56.98 3.55986C57.28 3.57743 57.423 3.51667 57.297 3.42045C56.307 2.66922 51.26 0.911774 42.797 0.911774C31.097 0.911774 27.92 2.8959 28.271 3.50714C26.956 3.27241 18.861 2.59684 13.708 3.77701C11.243 4.34297 9.50797 5.70782 10.89 6.53739C6.31697 5.90173 0.830972 8.2305 3.78997 9.75799C8.55897 12.2223 18.224 12.0203 22.013 11.5226C25.239 12.3718 30.913 12.9565 35.193 13.084C39.2707 13.2338 43.3911 13.2506 47.481 13.1341C50.9849 13.0303 54.3786 12.7113 57.448 12.1973C58.8233 11.9454 59.9794 11.6002 60.8221 11.19C61.6647 10.7798 62.1701 10.316 62.297 9.83662C65.559 10.0329 67.497 10.063 70.385 9.73565C74.285 9.29271 76.249 7.95318 76.111 6.56896C76.0352 5.95031 75.4219 5.34811 74.331 4.8212C73.24 4.29429 71.7088 3.86071 69.887 3.56284C67.9513 3.2862 65.8268 3.14684 63.6801 3.15562C61.5333 3.16441 59.4225 3.32111 57.513 3.61348" fill="white"/>
<path d="M30.2 3.34898C30.291 3.53307 30.208 3.40855 30.263 3.31919C30.135 3.52085 30.346 3.27243 30.4 3.20511C30.45 3.14286 30.531 3.10383 30.4 3.19349C30.461 3.15269 30.524 3.11158 30.595 3.07226C30.7658 2.97794 30.9538 2.88646 31.158 2.79822C31.394 2.69605 31.136 2.79822 31.353 2.72375C31.482 2.67966 31.612 2.63588 31.753 2.59358C32.0408 2.50502 32.3446 2.4212 32.663 2.34247C33.4719 2.15951 34.3552 2.00778 35.292 1.8909C40.539 1.24005 47.1 1.36605 51.726 2.37226C52.6897 2.58424 53.5629 2.83052 54.326 3.10562C54.5869 3.20167 54.8261 3.30278 55.042 3.40826C55.142 3.45889 55.242 3.51162 55.342 3.56285C55.622 3.70672 55.342 3.50179 55.422 3.66085L55.622 3.20154L55.508 3.25128L57.235 2.95639L56.992 2.96324C56.466 2.96745 55.9655 3.03157 55.5934 3.14239C55.2214 3.25322 55.0061 3.4023 54.992 3.55898C54.9957 3.71664 55.2075 3.86755 55.5818 3.97904C55.9561 4.09053 56.4627 4.15362 56.992 4.15472C59.386 4.08592 59.706 3.46336 58.718 2.91886C58.1143 2.60203 57.3747 2.30995 56.518 2.04996C54.1129 1.30052 51.0574 0.764354 47.691 0.501026C41.491 0.0196642 32.822 0.355664 28.472 1.90371C27.7192 2.13568 27.1409 2.41277 26.7757 2.71653C26.4105 3.02028 26.2667 3.34374 26.354 3.66532C26.4975 3.81732 26.8363 3.94633 27.297 4.02438C27.7577 4.10245 28.3031 4.12327 28.815 4.08234C29.3197 4.03718 29.7467 3.93585 30.0074 3.79942C30.268 3.663 30.3424 3.50191 30.215 3.34958L30.2 3.34898Z" fill="#D9D9D9"/>
<path d="M58.52 4.12792C60.0079 3.90294 61.6376 3.77346 63.304 3.74778C64.9703 3.72213 66.6362 3.80089 68.194 3.97899C69.5906 4.16361 70.826 4.4414 71.8046 4.79093C72.7833 5.14042 73.479 5.55229 73.838 5.99469C74.2112 6.44058 74.2578 6.9052 73.9747 7.35692C73.6915 7.80867 73.0852 8.23695 72.197 8.61269C70.189 9.3815 66.69 9.46877 63.697 9.31299C63.1857 9.27549 62.6456 9.29786 62.1879 9.37542C61.7303 9.45302 61.3899 9.57991 61.237 9.73001C61.1007 9.88243 61.1711 10.0447 61.433 10.1818C61.695 10.3189 62.1274 10.4198 62.637 10.4628C66.206 10.6483 70.079 10.6215 73.148 9.96771C74.4357 9.67571 75.5166 9.31066 76.3286 8.89364C77.1406 8.47665 77.6675 8.0159 77.879 7.53797C78.499 6.51576 77.8833 5.46117 76.141 4.56133C74.3969 3.68466 71.6143 3.03424 68.341 2.73805C64.3827 2.40952 60.154 2.53802 56.5 3.09788C54.207 3.44639 56.229 4.47495 58.519 4.12673L58.52 4.12792Z" fill="#D9D9D9"/>
<path d="M60.292 9.57243C60.549 11.9885 50.316 12.5473 44.121 12.6107C37.248 12.6798 28.899 12.5059 23.421 11.1017C21.479 10.604 18.637 11.4431 20.592 11.9444C27.256 13.6527 37.104 13.9458 45.537 13.7814C49.949 13.6956 54.655 13.4239 58.453 12.7129C60.2549 12.3848 61.74 11.9231 62.7631 11.3728C63.7863 10.8226 64.3124 10.2026 64.29 9.57362C64.209 8.80868 60.208 8.80541 60.29 9.57362L60.292 9.57243Z" fill="#D9D9D9"/>
<path d="M29.282 2.99272C28.1799 2.82325 26.995 2.70655 25.771 2.64689C23.8588 2.52446 21.8985 2.48225 19.947 2.52149C17.7228 2.55939 15.5579 2.74938 13.62 3.07672C11.6805 3.43084 10.1761 3.9618 9.33003 4.59081C8.77063 4.94066 8.46673 5.32185 8.43823 5.70926C8.40983 6.09668 8.65753 6.48147 9.16503 6.83826C9.43573 6.9737 9.87433 7.072 10.3862 7.11194C10.898 7.15189 11.4421 7.13032 11.901 7.05183C12.35 6.96968 12.6752 6.83906 12.809 6.68724C12.9427 6.53544 12.8747 6.37408 12.619 6.23685C12.728 6.30715 12.493 6.10996 12.471 6.08464C12.371 5.96698 12.447 6.09983 12.417 5.98605C12.3816 5.85689 12.396 5.72699 12.46 5.59881C12.6276 5.29308 12.9949 5.00009 13.541 4.73647C14.0707 4.49114 14.7644 4.281 15.5789 4.1191C16.3934 3.95721 17.3112 3.84703 18.275 3.79549C19.2349 3.7268 20.2199 3.69407 21.207 3.69809C21.724 3.69809 22.24 3.70315 22.755 3.71477C23.315 3.72758 23.591 3.73741 23.865 3.75141C24.6632 3.78951 25.453 3.84193 26.23 3.90839C26.518 3.93371 26.797 3.96588 27.082 3.99298C27.5 4.0329 26.805 3.92477 27.009 3.98315C27.0892 3.99882 27.1747 4.01202 27.264 4.02247C29.498 4.40583 31.515 3.37668 29.282 2.99362V2.99272Z" fill="#D9D9D9"/>
<path d="M11.9 6.02297C5.12901 5.14127 -0.699989 7.82241 1.38201 9.60548C2.65046 10.5642 5.03373 11.3551 8.09701 11.8339C10.7383 12.2477 13.6917 12.4528 16.675 12.4296C19.1764 12.4463 21.6483 12.2661 23.841 11.9071C26.009 11.4976 24.005 10.466 21.822 10.8783C21.58 10.9245 21.322 10.9575 21.07 10.9974C20.787 11.0442 21.17 10.9846 21.209 10.9802C21.127 10.9888 21.049 10.9995 20.967 11.0079C20.749 11.0302 20.532 11.0531 20.31 11.0728C19.919 11.1076 19.521 11.1368 19.12 11.1622C18.904 11.1753 18.686 11.1857 18.468 11.1973C18.384 11.2018 18.079 11.2137 18.49 11.1973C18.344 11.203 18.197 11.2077 18.051 11.2122C15.9572 11.2934 13.8286 11.2292 11.832 11.0245C11.3753 10.9835 10.9324 10.9298 10.509 10.8643C9.90541 10.7752 9.32541 10.6725 8.77401 10.5572C7.83301 10.3529 7.00351 10.1065 6.31501 9.8268C5.93106 9.6747 5.59402 9.5126 5.30801 9.34246C5.21787 9.27174 5.14142 9.19954 5.07901 9.1262C5.00927 9.0599 4.9709 8.99103 4.96501 8.92156C4.89914 8.59846 5.10791 8.27566 5.57201 7.98297C6.04761 7.6632 6.80211 7.38725 7.75701 7.18378C7.92801 7.15101 8.39801 7.07714 8.38301 7.07892C8.17701 7.10424 8.54301 7.06373 8.59001 7.06016C8.74101 7.04884 8.89001 7.03484 9.04201 7.0259C8.67801 7.04735 9.44201 7.02352 9.61101 7.02888C9.11601 7.01369 10.236 7.0968 9.88101 7.05063C10.3428 7.12551 10.883 7.14508 11.3916 7.10541C11.9002 7.06573 12.3388 6.96975 12.618 6.83705C12.8817 6.7003 12.9542 6.53814 12.8199 6.3856C12.6855 6.23306 12.3551 6.10235 11.9 6.02178V6.02297Z" fill="#D9D9D9"/>
<path d="M26.912 9.28676C27.4663 9.5866 28.218 9.85007 29.1221 10.0613C30.0262 10.2726 31.0642 10.4274 32.1738 10.5164C33.2835 10.6054 34.442 10.6268 35.58 10.5793C36.7181 10.5318 37.8122 10.4164 38.797 10.24C39.0238 10.2005 39.2223 10.1481 39.3811 10.0857C39.5399 10.0234 39.6559 9.95236 39.7225 9.87664C39.7891 9.80095 39.8051 9.7221 39.7694 9.64456C39.7337 9.56706 39.6471 9.49238 39.5145 9.42482C39.3819 9.35727 39.206 9.29814 38.9967 9.25084C38.7875 9.20353 38.549 9.16898 38.2948 9.14914C38.0407 9.12931 37.776 9.12454 37.5157 9.13517C37.2555 9.14581 37.0048 9.1716 36.778 9.2111C36.6031 9.24613 36.4218 9.27824 36.235 9.30731C36.1456 9.3172 36.0596 9.32956 35.978 9.34425C36.252 9.27604 36.29 9.30791 36.034 9.33531C35.8373 9.35613 35.637 9.37383 35.434 9.38833C35.342 9.39519 35.249 9.40114 35.156 9.40651C34.951 9.41812 34.732 9.40055 35.238 9.40651C34.838 9.40234 34.438 9.42289 34.038 9.41485C33.938 9.41306 33.847 9.41008 33.752 9.4077C33.333 9.39727 34.239 9.43748 33.828 9.40948C33.621 9.39608 33.415 9.38506 33.21 9.36838C33.005 9.3517 32.805 9.33293 32.61 9.31119C32.538 9.30314 32.21 9.2668 32.529 9.30285C32.848 9.33889 32.529 9.30076 32.454 9.29033C32.079 9.23582 31.754 9.14765 31.382 9.09523C31.513 9.1137 31.714 9.17804 31.477 9.1137C31.406 9.09493 31.334 9.07646 31.265 9.0571C31.099 9.01033 30.95 8.95999 30.797 8.90816C30.567 8.83221 30.997 8.99574 30.865 8.93527C30.815 8.91114 30.755 8.8888 30.704 8.86527C30.5797 8.80775 30.4672 8.74809 30.367 8.68655C30.097 8.55081 29.6583 8.45224 29.1459 8.41221C28.6336 8.37217 28.0889 8.39389 27.63 8.47268C27.1821 8.55519 26.8578 8.68586 26.7244 8.83763C26.5909 8.98936 26.6584 9.1506 26.913 9.28795L26.912 9.28676Z" fill="#D9D9D9"/>
</g>
<defs>
<clipPath id="clip0_1_319">
<rect width="79" height="14" fill="white"/>
</clipPath>
</defs>
</svg>
