<svg width="55" height="33" viewBox="0 0 55 33" fill="none" xmlns="http://www.w3.org/2000/svg">
<path d="M39.885 8.736C40.085 8.776 40.185 8.636 40.103 8.415C39.423 6.685 35.961 2.638 30.157 2.638C22.129 2.638 19.957 7.207 20.193 8.615C19.293 8.074 13.738 6.515 10.203 9.236C8.512 10.536 7.32099 13.682 8.26999 15.593C5.13299 14.129 1.37 19.493 3.397 23.009C6.669 28.685 13.297 28.22 15.897 27.074C18.517 29.091 21.6483 30.3361 24.938 30.669C27.7351 31.0141 30.5615 31.0527 33.367 30.784C35.7706 30.5451 38.0985 29.8107 40.204 28.627C41.1474 28.0469 41.9404 27.2522 42.5183 26.3075C43.0963 25.3629 43.443 24.295 43.53 23.191C45.3549 23.7233 47.3041 23.6414 49.078 22.958C51.753 21.938 53.101 18.858 53.006 15.666C52.9539 14.2414 52.5332 12.8546 51.7849 11.6412C51.0367 10.4278 49.9865 9.42923 48.737 8.743C47.409 8.106 45.9515 7.78509 44.4788 7.80539C43.006 7.82568 41.5579 8.18665 40.248 8.86" fill="white"/>
<path d="M22.122 8.083C22.228 8.834 22.172 8.465 22.18 8.267C22.191 7.967 21.99 8.712 22.156 8.467C22.256 8.315 22.527 7.628 22.221 8.154C22.372 7.896 22.503 7.631 22.663 7.377C22.823 7.123 22.42 7.61 22.797 7.205C22.905 7.089 23.009 6.971 23.121 6.859C23.28 6.699 23.448 6.549 23.621 6.404C23.312 6.663 23.726 6.326 23.799 6.278C24.1912 6.01643 24.6012 5.78253 25.026 5.578C25.999 5.16848 27.023 4.89264 28.07 4.758C30.5872 4.34896 33.168 4.84119 35.358 6.148C36.1321 6.6339 36.8291 7.23286 37.426 7.925C37.484 7.991 37.881 8.492 37.618 8.14C37.728 8.288 37.8327 8.43934 37.932 8.594C38.019 8.731 38.094 8.875 38.179 9.012C38.485 9.504 38.13 8.639 38.201 9.145L38.401 7.604L38.323 7.718L40.05 6.728L39.883 6.744C39.357 6.75814 38.8565 6.9734 38.4844 7.34545C38.1124 7.7175 37.8971 8.21803 37.883 8.744C37.8869 9.27322 38.0989 9.77965 38.4731 10.1539C38.8473 10.5281 39.3538 10.7401 39.883 10.744C41.905 10.544 42.535 8.79 41.689 7.104C41.2677 6.31997 40.7415 5.59699 40.125 4.955C38.4467 3.15224 36.3076 1.84239 33.939 1.167C29.439 -0.117999 23.127 0.701 19.917 4.439C19.3136 5.05641 18.8528 5.79848 18.5669 6.61305C18.2809 7.42762 18.1769 8.29492 18.262 9.154C18.4052 9.66439 18.744 10.0977 19.2048 10.3598C19.6655 10.6219 20.2111 10.6917 20.723 10.554C21.2276 10.4021 21.6544 10.062 21.915 9.60402C22.1757 9.14605 22.2501 8.60537 22.123 8.094L22.122 8.083Z" fill="#D9D9D9"/>
<path d="M41.259 10.587C42.2071 10.1105 43.245 9.83914 44.305 9.79072C45.3651 9.7423 46.4234 9.91788 47.411 10.306C47.271 10.246 47.3123 10.2673 47.535 10.37C47.6637 10.4367 47.7906 10.5033 47.916 10.57C48.1641 10.71 48.4032 10.8653 48.632 11.035C48.464 10.908 48.98 11.346 49.042 11.405C49.247 11.605 49.442 11.805 49.624 12.022C49.7767 12.208 49.8036 12.2397 49.705 12.117C49.788 12.231 49.868 12.348 49.945 12.466C50.0993 12.703 50.2415 12.9476 50.371 13.199C50.436 13.325 50.498 13.452 50.556 13.581C50.494 13.428 50.506 13.465 50.595 13.692C50.686 13.961 50.775 14.229 50.843 14.505C51.0741 15.4513 51.0989 16.4363 50.9156 17.3931C50.7324 18.3499 50.3454 19.256 49.781 20.05C49.981 19.792 49.507 20.334 49.455 20.385C49.363 20.475 49.268 20.562 49.169 20.646C49.323 20.536 49.304 20.549 49.112 20.685C48.7229 20.9711 48.2784 21.173 47.807 21.278C46.7802 21.5612 45.7007 21.5954 44.658 21.378C44.1467 21.2521 43.6066 21.3272 43.1489 21.5876C42.6913 21.8481 42.3509 22.2741 42.198 22.778C42.0614 23.2899 42.1317 23.8349 42.3936 24.2954C42.6556 24.7559 43.0882 25.0948 43.598 25.239C46.208 25.695 49.041 25.639 51.292 24.039C52.2468 23.3271 53.0509 22.4327 53.6575 21.4077C54.2642 20.3828 54.6613 19.2476 54.826 18.068C55.2913 15.5501 54.8461 12.9488 53.57 10.729C52.2889 8.57136 50.2471 6.97086 47.846 6.24199C44.9684 5.44724 41.8967 5.76869 39.246 7.14199C39.0192 7.27456 38.8207 7.4505 38.662 7.65977C38.5032 7.86904 38.3871 8.10754 38.3205 8.36164C38.2539 8.61575 38.238 8.88049 38.2736 9.14075C38.3093 9.40102 38.3959 9.6517 38.5285 9.87849C38.6611 10.1053 38.837 10.3037 39.0463 10.4625C39.2555 10.6213 39.494 10.7374 39.7481 10.804C40.0022 10.8706 40.267 10.8865 40.5272 10.8509C40.7875 10.8152 41.0382 10.7286 41.265 10.596L41.259 10.587Z" fill="#D9D9D9"/>
<path d="M41.529 22.582C41.645 27.762 34.922 28.827 30.993 28.951C26.465 29.094 20.938 28.743 17.31 25.657C15.36 23.999 12.517 26.815 14.481 28.486C19.306 32.586 26.308 33.342 32.402 32.874C38.317 32.42 45.688 29.681 45.529 22.582C45.471 20.012 41.471 20.003 41.529 22.582Z" fill="#D9D9D9"/>
<path d="M21.2 6.888C20.3978 6.46851 19.5346 6.17795 18.642 6.027C17.2759 5.73023 15.875 5.62588 14.48 5.717C12.8434 5.80734 11.2497 6.27412 9.82301 7.081C8.37661 7.96609 7.25435 9.29421 6.62299 10.868C6.20139 11.7629 5.97597 12.7375 5.96183 13.7266C5.94769 14.7157 6.14514 15.6964 6.54099 16.603C6.81022 17.0593 7.24889 17.3906 7.76136 17.5249C8.27383 17.6592 8.81861 17.5856 9.27702 17.32C9.72494 17.0433 10.0496 16.6052 10.1841 16.0962C10.3186 15.5871 10.2527 15.0459 10 14.584C10.233 15.084 10 14.5 9.96201 14.384C9.82801 13.977 9.952 14.73 9.947 14.324C9.947 14.117 9.947 13.91 9.947 13.703C9.947 13.25 9.86302 14.012 9.95402 13.603C10.038 13.222 10.142 12.858 10.261 12.487C10.3443 12.2743 10.3403 12.279 10.249 12.501C10.295 12.401 10.343 12.301 10.393 12.201C10.468 12.054 10.548 11.909 10.633 11.768C10.7436 11.5828 10.8634 11.4032 10.992 11.23C10.716 11.601 11.004 11.23 11.078 11.155C11.214 11.01 11.359 10.878 11.509 10.747C11.156 11.057 11.537 10.737 11.632 10.675C11.82 10.553 12.013 10.4407 12.211 10.338C12.355 10.264 12.66 10.127 12.335 10.262C12.7145 10.1068 13.1057 9.9821 13.505 9.889C13.689 9.845 13.876 9.814 14.061 9.773C14.47 9.683 13.71 9.801 14.246 9.746C14.613 9.708 14.981 9.69 15.346 9.687C15.711 9.684 16.055 9.699 16.408 9.726C16.577 9.739 16.746 9.758 16.915 9.774C17.344 9.814 16.48 9.694 17.003 9.787C17.5499 9.87762 18.0914 9.99847 18.625 10.149C18.825 10.208 19.013 10.281 19.209 10.349L19.309 10.389C18.935 10.228 18.835 10.189 19.009 10.263C19.036 10.253 19.156 10.338 19.184 10.354C19.642 10.6216 20.1876 10.6963 20.7007 10.5616C21.2138 10.427 21.6524 10.094 21.92 9.636C22.1876 9.17797 22.2623 8.6324 22.1277 8.1193C21.993 7.6062 21.66 7.16761 21.202 6.9L21.2 6.888Z" fill="#D9D9D9"/>
<path d="M9.27898 13.866C8.13623 13.3065 6.82037 13.2147 5.61098 13.61C4.48649 14.0129 3.49602 14.7201 2.74999 15.653C1.9072 16.6207 1.31885 17.7832 1.03811 19.0354C0.757356 20.2876 0.793048 21.5901 1.14199 22.825C2.71499 27.351 7.65899 29.883 12.242 29.79C14.0693 29.8276 15.8742 29.383 17.475 28.501C17.93 28.2318 18.2598 27.7934 18.3925 27.2817C18.5252 26.77 18.4499 26.2266 18.1831 25.7702C17.9162 25.3139 17.4796 24.9817 16.9686 24.8464C16.4575 24.711 15.9137 24.7835 15.456 25.048C15.289 25.148 15.111 25.229 14.939 25.325C14.739 25.435 15.446 25.143 15.019 25.286C14.869 25.336 14.719 25.386 14.569 25.435C14.3 25.516 14.027 25.583 13.752 25.635C13.604 25.665 13.452 25.685 13.305 25.716C13.005 25.779 13.494 25.669 13.487 25.695C13.3885 25.7171 13.2879 25.7285 13.187 25.729C12.4527 25.8032 11.7131 25.8078 10.978 25.743C10.887 25.735 10.796 25.721 10.705 25.715C10.428 25.699 11.099 25.786 10.824 25.732C10.64 25.696 10.454 25.672 10.27 25.632C9.87005 25.5506 9.47537 25.4455 9.088 25.317C8.901 25.255 8.71999 25.18 8.53499 25.117C9.00599 25.282 8.45798 25.077 8.33498 25.017C7.92081 24.8121 7.52297 24.5758 7.14498 24.31C7.05898 24.25 6.973 24.188 6.89 24.124C6.951 24.171 7.18999 24.383 6.91899 24.136C6.75899 23.987 6.59099 23.847 6.43499 23.694C6.27899 23.541 6.119 23.373 5.971 23.205C5.894 23.118 5.821 23.029 5.747 22.941C5.51 22.661 5.81298 23.041 5.68398 22.854C5.55498 22.667 5.40699 22.454 5.28399 22.243C5.23699 22.167 4.93498 21.606 5.02898 21.813C5.12298 22.02 4.92898 21.476 4.90398 21.391C4.87898 21.291 4.86899 21.191 4.83999 21.091C4.77299 20.867 4.83998 21.465 4.84798 21.091C4.84798 20.885 4.83598 20.681 4.84798 20.474C4.85398 20.374 4.865 20.274 4.876 20.166C4.828 20.628 4.852 20.337 4.876 20.238C4.938 20.012 4.98299 19.785 5.05599 19.561C5.08899 19.461 5.13299 19.367 5.15599 19.268C5.21899 19.043 4.991 19.574 5.17 19.247C5.294 19.021 5.40698 18.792 5.54598 18.575C5.60098 18.49 5.66099 18.408 5.71599 18.323C5.91599 18.016 5.55698 18.463 5.72698 18.313C5.89698 18.163 6.027 17.985 6.182 17.837C6.251 17.773 6.32999 17.714 6.39699 17.648C6.06499 17.975 6.32298 17.708 6.44298 17.631C6.51998 17.582 6.59799 17.536 6.67699 17.492C6.73999 17.457 7.09799 17.304 6.79799 17.422C6.46199 17.554 7.13898 17.293 7.17498 17.331C7.26398 17.425 6.67498 17.319 7.01998 17.355C7.08298 17.362 7.347 17.316 7.398 17.361C7.409 17.37 6.87798 17.224 7.24498 17.351C7.36798 17.394 7.75598 17.539 7.26598 17.325C7.72844 17.5745 8.2686 17.6384 8.77651 17.5037C9.28442 17.369 9.72193 17.0459 9.99999 16.6C10.2639 16.141 10.3366 15.5965 10.2022 15.0843C10.0679 14.5721 9.7373 14.1334 9.282 13.863L9.27898 13.866Z" fill="#D9D9D9"/>
<path d="M18.717 22.241C19.1392 23.0024 19.7104 23.671 20.3964 24.2071C21.0825 24.7431 21.8694 25.1356 22.7103 25.3611C23.5512 25.5866 24.4289 25.6406 25.2911 25.5198C26.1533 25.399 26.9824 25.1059 27.729 24.658C27.9561 24.5254 28.1548 24.3494 28.3138 24.1401C28.4729 23.9307 28.5891 23.6921 28.6559 23.4378C28.7227 23.1835 28.7388 22.9185 28.7032 22.658C28.6676 22.3975 28.5811 22.1466 28.4485 21.9195C28.3159 21.6924 28.1399 21.4937 27.9306 21.3347C27.7212 21.1756 27.4826 21.0594 27.2283 20.9926C26.974 20.9258 26.709 20.9097 26.4485 20.9453C26.188 20.9809 25.937 21.0674 25.71 21.2C25.5134 21.3305 25.306 21.4439 25.09 21.539L25.568 21.339C25.2311 21.4786 24.878 21.5754 24.517 21.627L25.049 21.555C24.6328 21.6072 24.2116 21.6048 23.796 21.548L24.328 21.62C23.9111 21.5577 23.5036 21.4435 23.115 21.28L23.593 21.48C23.2321 21.3221 22.8919 21.1206 22.58 20.88L22.985 21.193C22.7199 20.9826 22.48 20.7424 22.27 20.477L22.583 20.882C22.4244 20.6732 22.2864 20.4495 22.171 20.214C21.9012 19.7583 21.4626 19.4275 20.9503 19.2932C20.4381 19.159 19.8936 19.2322 19.435 19.497C18.9868 19.7735 18.6622 20.2119 18.5285 20.7213C18.3948 21.2307 18.4623 21.772 18.717 22.233V22.241Z" fill="#D9D9D9"/>
</svg>
