<?xml version="1.0" encoding="UTF-8"?><svg id="b" xmlns="http://www.w3.org/2000/svg" width="323.864" height="146.805" viewBox="0 0 323.864 146.805"><defs><style>.d{fill:#211715;}.d,.e,.f{stroke-width:0px;}.e{fill:#fff;}.f{fill:#3d8dcc;}</style></defs><g id="c"><path class="e" d="M302.362,52.798v92.01H72.362V52.798h230Z"/><path class="e" d="M34.113,58.2c0-3.404,0-6.809,0-10.213h-11.751c0,32.272,0,64.545,0,96.817,3.969,0,7.884,0,11.75,0,0-28.868,0-57.736,0-86.604Z"/><path class="f" d="M74.684,108.801h-2.322c0-5.405,0-12.201,0-20h64.92v20h-62.598Z"/><path class="f" d="M240.793,88.801c-1.195,0-2.399,0-3.611,0v20c28.24,0,52.21,0,64.92,0h.258c.003-6.809.005-13.45.01-20-12.101,0-34.715,0-61.577,0Z"/><path class="e" d="M137.282,144.808v-52.01c0-13.337,0-26.663,0-40h99.9c0,13.337,0,26.663,0,40v52.01h-99.9Z"/><path class="d" d="M70.362,52.798v92c0,2.574,4,2.578,4,0V52.798c0-2.574-4-2.578-4,0h0Z"/><path class="d" d="M321.932,142.804c-22.524,0-45.048,0-67.572,0-20.046,0-40.093,0-60.139,0-19.156,0-38.312,0-57.467,0-19.852,0-39.704,0-59.556,0-22.135,0-44.27,0-66.406,0-2.953,0-5.906,0-8.86,0-2.574,0-2.578,4,0,4,22.525,0,45.05,0,67.575,0,20.047,0,40.094,0,60.141,0,19.156,0,38.312,0,57.467,0,19.852,0,39.703,0,59.555,0,22.134,0,44.269,0,66.403,0,2.953,0,5.906,0,8.859,0,2.574,0,2.578-4,0-4h0Z"/><path class="d" d="M300.362,52.798v92.01c0,2.574,4,2.578,4,0V52.798c0-2.574-4-2.578-4,0h0Z"/><path class="e" d="M305.371,12.008c-25.786,0-210.232,0-236.019,0-1.657,0-2.991,1.343-2.991,3v34.79c0,1.657,1.343,3,3,3h236c1.657,0,3-1.337,3-2.994,0-10.566,0-27.877,0-34.801,0-1.657-1.334-2.995-2.991-2.995Z"/><path class="d" d="M305.371,10.008c-5.751,0-11.501,0-17.252,0-9.639,0-19.277,0-28.916,0-12.184,0-24.369,0-36.553,0-13.377,0-26.753,0-40.13,0-13.215,0-26.43,0-39.646,0-11.737,0-23.474,0-35.21,0-8.819,0-17.637,0-26.456,0-2.917,0-5.834,0-8.75,0-.987,0-1.978-.029-2.964,0-3.081.09-5.11,2.368-5.132,5.387-.07,9.576,0,19.155,0,28.731v4.942c0,2.543,1.143,4.923,3.825,5.589.875.217,1.858.141,2.754.141h12.562c7.5,0,15.001,0,22.501,0h29.863c11.355,0,22.71,0,34.065,0h35.48c11.376,0,22.752,0,34.128,0h29.555c7.502,0,15.004,0,22.506,0h12.296c1.29,0,2.498.06,3.715-.539,2.075-1.022,2.752-3.065,2.752-5.229,0-2.043,0-4.086,0-6.129,0-4.452,0-8.905,0-13.357,0-3.741,0-7.481,0-11.222,0-1.479.225-3.212-.182-4.646-.629-2.217-2.566-3.548-4.809-3.668-2.572-.138-2.565,3.862,0,4,1.408.076.991,2.067.991,3.015,0,1.618,0,3.235,0,4.853,0,4.191,0,8.383,0,12.574,0,4.323,0,8.646,0,12.969,0,1.169.506,3.261-1.12,3.379-2.679.194-5.444,0-8.128,0-6.281,0-12.561,0-18.842,0h-26.831c-10.736,0-21.473,0-32.209,0-11.581,0-23.163,0-34.744,0h-34.399c-10.481,0-20.962,0-31.443,0-8.612,0-17.223,0-25.835,0h-17.346c-1.539,0-3.078,0-4.616,0-.559,0-1.597.17-2.084-.187-.678-.497-.404-2.047-.404-2.758v-6.057c0-5.597,0-11.195,0-16.792v-6.814c0-1.028-.107-2.121,0-3.144.143-1.365,1.741-1.038,2.757-1.038,1.164,0,2.328,0,3.492,0,7.33,0,14.66,0,21.99,0,10.571,0,21.142,0,31.713,0,12.547,0,25.094,0,37.641,0,13.286,0,26.573,0,39.859,0,12.686,0,25.372,0,38.058,0,10.755,0,21.51,0,32.264,0,7.587,0,15.173,0,22.76,0,2.158,0,4.316,0,6.474,0,2.574,0,2.578-4,0-4Z"/><path class="d" d="M302.102,106.801h-64.92c-2.574,0-2.578,4,0,4h64.92c2.574,0,2.578-4,0-4h0Z"/><path class="d" d="M137.282,106.801h-64.92c-2.574,0-2.578,4,0,4h64.92c2.574,0,2.578-4,0-4h0Z"/><path class="d" d="M302.102,86.801h-64.92c-2.574,0-2.578,4,0,4h64.92c2.574,0,2.578-4,0-4h0Z"/><path class="d" d="M137.282,86.801h-64.92c-2.574,0-2.578,4,0,4h64.92c2.574,0,2.578-4,0-4h0Z"/><path class="d" d="M135.282,52.988v91.82c0,2.574,4,2.578,4,0V52.988c0-2.574-4-2.578-4,0h0Z"/><path class="d" d="M235.182,52.988v91.82c0,2.574,4,2.578,4,0V52.988c0-2.574-4-2.578-4,0h0Z"/><path class="d" d="M185.232,52.988v91.82c0,2.574,4,2.578,4,0V52.988c0-2.574-4-2.578-4,0h0Z"/><path class="d" d="M24.362,144.808V45.058c0-2.574-4-2.578-4,0v99.75c0,2.574,4,2.578,4,0h0Z"/><path class="d" d="M36.112,144.808V45.058c0-2.574-4-2.578-4,0v99.75c0,2.574,4,2.578,4,0h0Z"/><rect class="e" x="5.247" y="2.008" width="45.979" height="45.979" rx="4" ry="4"/><path class="d" d="M7.247,43.987V8.962c0-1.313-.413-3.669.807-4.566,1.073-.789,3.361-.388,4.585-.388h30.733c1.344,0,3.01-.266,4.332.057,1.959.479,1.522,2.971,1.522,4.484v30.587c0,1.597.087,3.221,0,4.816-.121,2.234-2.191,2.035-3.8,2.035-11.986,0-23.982.153-35.967,0-1.202-.015-2.159-.73-2.213-2-.109-2.564-4.11-2.578-4,0,.143,3.352,2.636,5.872,6,6,.422.016.848,0,1.27,0h31.146c1.826,0,3.661.057,5.486,0,2.511-.078,4.726-1.457,5.659-3.836.372-.949.418-1.915.418-2.911v-18.992c0-5.978.056-11.958,0-17.936-.034-3.67-2.707-6.274-6.356-6.305C44.69-.01,42.509.008,40.329.008H9.92C6.294.008,3.365,2.296,3.247,6.086c-.172,5.544,0,11.122,0,16.668v21.234c0,2.574,4,2.578,4,0Z"/></g></svg>