<svg width="226" height="322" viewBox="0 0 226 322" fill="none" xmlns="http://www.w3.org/2000/svg">
<g clip-path="url(#clip0_56_2)">
<mask id="mask0_56_2" style="mask-type:luminance" maskUnits="userSpaceOnUse" x="0" y="0" width="226" height="322">
<path d="M226 0H0V322H226V0Z" fill="white"/>
</mask>
<g mask="url(#mask0_56_2)">
<path d="M195.649 234.868C197.436 232.718 199.073 230.448 200.549 228.074C202.23 225.692 203.405 222.99 203.999 220.136C204.296 217.726 203.961 215.28 203.028 213.039C202.095 210.797 200.595 208.837 198.675 207.35C196.459 205.609 193.793 204.536 190.989 204.257C188.185 203.977 185.36 204.503 182.844 205.772C179.044 207.659 176.003 210.772 173.287 214.03C170.81 216.859 168.744 220.023 167.152 223.43C165.559 226.856 164.992 230.67 165.522 234.411C165.713 236.035 166.23 237.603 167.041 239.023C167.851 240.443 168.94 241.685 170.241 242.675C171.542 243.665 173.029 244.383 174.613 244.786C176.198 245.189 177.847 245.268 179.463 245.02C182.193 244.651 184.816 243.715 187.163 242.272C190.388 240.299 193.257 237.796 195.649 234.868Z" fill="white"/>
<path d="M197.346 236.565C200.562 232.918 203.219 228.814 205.233 224.388C206.068 222.418 206.491 220.297 206.477 218.158C206.462 216.018 206.009 213.904 205.147 211.945C203.339 207.96 200.083 204.812 196.04 203.139C191.997 201.465 187.468 201.393 183.373 202.935C179.325 204.691 175.747 207.377 172.93 210.773C169.839 214.055 167.252 217.778 165.254 221.819C163.076 226.195 162.421 231.173 163.394 235.964C163.85 237.982 164.713 239.885 165.931 241.557C167.149 243.229 168.695 244.634 170.476 245.687C180.187 251.071 191.089 243.913 197.346 236.565C197.781 236.107 198.024 235.5 198.024 234.868C198.024 234.236 197.781 233.629 197.346 233.171C196.893 232.726 196.284 232.476 195.649 232.476C195.014 232.476 194.405 232.726 193.952 233.171C189.642 238.233 182.802 244.071 175.587 242.505C174.051 242.177 172.619 241.478 171.414 240.471C170.209 239.463 169.269 238.177 168.674 236.723C167.383 233.325 167.376 229.572 168.657 226.17C169.945 222.658 171.855 219.406 174.295 216.57C176.442 213.695 179.017 211.166 181.929 209.07C184.706 207.079 188.149 206.246 191.529 206.746C194.786 207.288 197.696 209.098 199.622 211.781C200.657 213.25 201.325 214.946 201.571 216.726C201.817 218.507 201.634 220.32 201.036 222.015C200.268 223.933 199.283 225.757 198.099 227.45C196.836 229.441 195.452 231.352 193.952 233.171C193.518 233.629 193.274 234.237 193.274 234.868C193.274 235.499 193.517 236.107 193.951 236.565C194.404 237.011 195.013 237.26 195.649 237.26C196.284 237.26 196.893 237.011 197.346 236.565Z" fill="#211715"/>
<path d="M195.649 161.905C197.436 159.755 199.073 157.485 200.549 155.111C202.23 152.729 203.405 150.027 203.999 147.173C204.297 144.763 203.962 142.317 203.029 140.076C202.095 137.834 200.595 135.874 198.675 134.387C196.459 132.646 193.793 131.573 190.989 131.294C188.185 131.014 185.36 131.54 182.844 132.809C179.044 134.696 176.003 137.809 173.287 141.067C170.81 143.894 168.745 147.057 167.152 150.462C165.558 153.888 164.992 157.702 165.522 161.443C165.714 163.067 166.23 164.635 167.041 166.054C167.852 167.474 168.94 168.716 170.241 169.706C171.542 170.696 173.029 171.414 174.613 171.817C176.198 172.22 177.847 172.3 179.463 172.052C182.193 171.683 184.816 170.747 187.163 169.304C190.388 167.333 193.257 164.831 195.649 161.905Z" fill="white"/>
<path d="M195.649 201.907C197.436 199.757 199.073 197.488 200.549 195.114C202.23 192.732 203.405 190.03 203.999 187.175C204.296 184.765 203.961 182.319 203.028 180.078C202.095 177.836 200.595 175.876 198.675 174.389C196.459 172.649 193.793 171.576 190.989 171.296C188.185 171.017 185.36 171.543 182.844 172.812C179.044 174.699 176.003 177.812 173.287 181.07C170.809 183.899 168.744 187.063 167.152 190.47C165.558 193.895 164.992 197.709 165.522 201.45C165.713 203.074 166.23 204.642 167.041 206.062C167.851 207.482 168.94 208.724 170.241 209.714C171.542 210.704 173.029 211.422 174.613 211.825C176.198 212.228 177.847 212.307 179.463 212.059C182.193 211.69 184.816 210.754 187.163 209.311C190.389 207.339 193.258 204.835 195.649 201.907Z" fill="white"/>
<path d="M174.391 86.4608C172.603 88.61 170.966 90.8801 169.491 93.2548C167.81 95.6367 166.635 98.3385 166.041 101.193C165.743 103.603 166.078 106.049 167.011 108.29C167.945 110.532 169.445 112.492 171.365 113.979C173.581 115.72 176.248 116.794 179.053 117.073C181.858 117.352 184.684 116.826 187.2 115.556C191 113.669 198.692 106.533 201.408 103.276C204.127 99.8135 206.543 96.124 208.63 92.2478C210.344 88.6777 210.881 84.6556 210.164 80.7608C209.895 78.9755 209.225 77.2744 208.205 75.7849C207.185 74.2955 205.841 73.0564 204.273 72.1608C201.85 70.8252 199.062 70.2996 196.319 70.6608C193.589 71.0294 190.966 71.9655 188.619 73.4088C185.361 75.3308 176.837 83.5608 174.391 86.4608Z" fill="white"/>
<path d="M18.648 301.32C11.327 286.225 15.316 267.72 14.548 250.499C13.436 225.61 11.658 202.943 7.10003 165.388C6.18903 157.88 5.58403 150.365 9.10003 143.671C12.616 136.977 20.464 134.42 27.766 136.388C34.366 138.166 38.322 142.275 40.832 148.632L162.49 277.551C146.192 293.588 128.047 307.632 108.436 319.388L18.648 301.32Z" fill="white"/>
<path d="M109.648 321.46C125.074 312.217 139.6 301.549 153.035 289.594C156.83 286.229 160.548 282.78 164.187 279.248C166.412 277.096 163.016 273.704 160.793 275.853C148.268 288.097 134.691 299.215 120.218 309.08C115.965 311.947 111.634 314.692 107.225 317.315C104.575 318.897 106.986 323.048 109.648 321.46Z" fill="#211715"/>
<path d="M43.15 147.994C40.779 142.094 36.967 137.362 30.962 134.931C25.147 132.577 18.112 132.744 12.767 136.231C6.53805 140.3 4.23305 147.764 4.01805 154.883C3.99765 158.729 4.26674 162.571 4.82305 166.377C5.30705 170.387 5.77938 174.398 6.24005 178.411C7.77205 191.801 9.14605 205.211 10.207 218.647C11.116 230.162 12.0321 241.755 12.2331 253.308C12.4861 267.885 9.76405 283.182 14.461 297.332C15.0564 299.108 15.7628 300.845 16.576 302.532C16.9009 303.078 17.4272 303.473 18.0413 303.635C18.6554 303.796 19.3083 303.709 19.859 303.393C20.3985 303.063 20.7893 302.537 20.9497 301.925C21.1102 301.313 21.0279 300.663 20.72 300.11C14.69 287.491 16.725 272.693 17.01 259.195C17.25 247.795 16.295 236.305 15.48 224.936C14.622 212.957 13.5 201 12.222 189.058C11.428 181.658 10.5814 174.262 9.68205 166.869C8.84705 159.944 7.69405 152.255 10.7741 145.689C12.0838 142.972 14.2687 140.774 16.978 139.447C19.6873 138.121 22.7637 137.744 25.713 138.377C28.5929 138.856 31.2952 140.087 33.546 141.946C35.7597 143.96 37.4649 146.47 38.522 149.27C38.7076 149.873 39.1165 150.383 39.6652 150.694C40.2139 151.006 40.8609 151.097 41.474 150.947C42.0855 150.774 42.6042 150.367 42.9179 149.814C43.2316 149.262 43.315 148.608 43.15 147.994Z" fill="#211715"/>
<path d="M197.346 163.6C200.561 159.952 203.219 155.849 205.233 151.423C206.068 149.453 206.491 147.332 206.477 145.193C206.462 143.053 206.009 140.938 205.147 138.98C203.339 134.995 200.083 131.847 196.04 130.173C191.997 128.5 187.468 128.427 183.373 129.969C179.325 131.726 175.747 134.411 172.93 137.808C169.839 141.09 167.252 144.813 165.254 148.854C163.075 153.23 162.421 158.209 163.394 163C163.85 165.018 164.713 166.921 165.931 168.592C167.149 170.264 168.695 171.67 170.476 172.722C180.187 178.107 191.089 170.948 197.346 163.6C197.783 163.142 198.026 162.534 198.026 161.901C198.026 161.268 197.783 160.659 197.346 160.201C196.893 159.756 196.284 159.507 195.649 159.507C195.014 159.507 194.405 159.756 193.952 160.201C189.642 165.264 182.802 171.101 175.587 169.536C174.051 169.207 172.619 168.509 171.414 167.501C170.21 166.494 169.269 165.207 168.674 163.754C167.383 160.356 167.377 156.603 168.657 153.201C169.945 149.689 171.855 146.437 174.295 143.601C176.442 140.726 179.016 138.197 181.929 136.101C184.706 134.11 188.149 133.277 191.529 133.776C194.786 134.319 197.696 136.13 199.622 138.812C200.657 140.281 201.325 141.977 201.571 143.757C201.817 145.538 201.634 147.351 201.036 149.046C200.268 150.964 199.283 152.788 198.099 154.481C196.837 156.472 195.452 158.382 193.952 160.201C193.516 160.66 193.272 161.268 193.272 161.901C193.272 162.534 193.515 163.142 193.951 163.601C194.404 164.046 195.014 164.295 195.649 164.295C196.284 164.295 196.893 164.045 197.346 163.6Z" fill="#211715"/>
<path d="M197.346 203.6C200.562 199.953 203.22 195.849 205.233 191.423C206.068 189.453 206.491 187.333 206.477 185.193C206.462 183.053 206.009 180.939 205.147 178.981C203.339 174.996 200.084 171.847 196.04 170.174C191.997 168.5 187.468 168.427 183.373 169.97C179.325 171.727 175.748 174.412 172.93 177.808C169.839 181.09 167.252 184.813 165.254 188.854C163.075 193.23 162.421 198.209 163.394 203C163.85 205.018 164.713 206.921 165.931 208.593C167.149 210.264 168.695 211.67 170.476 212.722C180.187 218.106 191.089 210.949 197.346 203.6C197.781 203.142 198.024 202.535 198.024 201.903C198.024 201.271 197.781 200.664 197.346 200.206C196.893 199.761 196.284 199.512 195.649 199.512C195.014 199.512 194.405 199.761 193.952 200.206C189.642 205.268 182.802 211.101 175.587 209.541C174.051 209.212 172.619 208.514 171.414 207.506C170.209 206.498 169.269 205.212 168.674 203.758C167.382 200.36 167.376 196.608 168.657 193.206C169.946 189.691 171.858 186.437 174.3 183.6C176.447 180.727 179.022 178.2 181.934 176.106C184.711 174.115 188.154 173.282 191.534 173.781C194.791 174.323 197.701 176.134 199.627 178.816C200.662 180.285 201.33 181.981 201.576 183.761C201.822 185.542 201.638 187.355 201.041 189.05C200.273 190.968 199.288 192.792 198.104 194.485C196.841 196.476 195.456 198.387 193.956 200.206C193.521 200.664 193.279 201.272 193.279 201.903C193.279 202.534 193.521 203.142 193.956 203.6C194.408 204.044 195.017 204.293 195.651 204.293C196.285 204.293 196.894 204.044 197.346 203.6Z" fill="#211715"/>
<path d="M172.694 84.764C170.684 87.1822 168.847 89.7382 167.194 92.413C165.518 94.8737 164.342 97.6403 163.734 100.555C163.34 103.192 163.599 105.886 164.487 108.4C165.375 110.914 166.865 113.173 168.827 114.978C170.944 116.891 173.494 118.26 176.259 118.967C179.023 119.674 181.918 119.697 184.693 119.034C189.11 117.934 192.67 114.907 196.018 111.973C199.277 109.224 202.232 106.136 204.835 102.759C206.426 100.584 207.902 98.3283 209.258 96C210.72 93.7596 211.783 91.283 212.4 88.68C213.41 83.502 212.852 77.746 209.483 73.512C205.868 68.968 199.948 67.445 194.397 68.546C189.322 69.552 185.386 72.566 181.633 75.921C178.457 78.6635 175.471 81.6179 172.694 84.764C172.258 85.2217 172.016 85.8293 172.016 86.461C172.016 87.0928 172.258 87.7003 172.694 88.158C173.147 88.6032 173.756 88.8527 174.391 88.8527C175.026 88.8527 175.635 88.6032 176.088 88.158C178.189 85.7737 180.423 83.5095 182.779 81.376C184.107 80.131 185.455 78.906 186.845 77.73C187.746 76.9051 188.722 76.1653 189.76 75.52C193.654 73.144 198.86 71.82 203.06 74.231C206.728 76.331 208.06 80.205 208.047 84.251C208.099 86.4098 207.678 88.5539 206.814 90.533C205.755 92.6331 204.562 94.6633 203.243 96.611C201.222 99.7835 198.839 102.711 196.143 105.334C193.5 108.027 190.606 110.46 187.5 112.602C185.8 113.742 183.846 114.448 181.811 114.658C179.775 114.869 177.718 114.577 175.821 113.809C173.652 112.944 171.785 111.461 170.452 109.544C169.118 107.627 168.377 105.36 168.321 103.026C168.314 100.311 169.521 97.863 170.888 95.583C172.428 92.9756 174.171 90.493 176.099 88.158C176.533 87.6997 176.775 87.0924 176.775 86.461C176.775 85.8296 176.533 85.2223 176.099 84.764C175.646 84.3152 175.034 84.0635 174.396 84.0635C173.759 84.0635 173.147 84.3152 172.694 84.764Z" fill="#211715"/>
<path d="M167.427 23.4062H57.266C45.9502 23.4062 36.777 32.5794 36.777 43.8952V270.17C36.777 281.486 45.9502 290.659 57.266 290.659H167.427C178.743 290.659 187.916 281.486 187.916 270.17V43.8952C187.916 32.5794 178.743 23.4062 167.427 23.4062Z" fill="#D9D9D9"/>
<path d="M102.445 40.3598C109.045 40.3598 115.645 40.3565 122.245 40.3498C125.333 40.3498 125.338 35.5498 122.245 35.5498C115.645 35.5498 109.045 35.5531 102.445 35.5598C99.357 35.5598 99.352 40.3598 102.445 40.3598Z" fill="#211715"/>
<path d="M183.65 50.6816L37.216 50.6916H36.781C36.781 83.6206 36.781 226.429 36.781 262.081C37.067 262.081 37.22 262.081 37.22 262.081L187.772 262.07H187.918C187.918 226.402 187.918 83.5916 187.918 50.6856H183.65V50.6816Z" fill="white"/>
<path d="M167.428 288.258H67.5C64.16 288.258 60.819 288.268 57.479 288.258C52.6599 288.263 48.0334 286.366 44.6054 282.979C41.1775 279.591 39.2252 274.988 39.173 270.169C39.163 268.816 39.173 267.463 39.173 266.11V45.609C39.173 45.067 39.173 44.524 39.173 43.982C39.1564 41.5971 39.6125 39.2325 40.5151 37.025C41.4177 34.8174 42.7488 32.8106 44.4316 31.1205C46.1143 29.4304 48.1153 28.0906 50.3189 27.1784C52.5225 26.2662 54.8851 25.7997 57.27 25.806C58.002 25.8 58.735 25.806 59.47 25.806H164.089C165.142 25.806 166.196 25.806 167.249 25.806C171.384 25.7789 175.406 27.1513 178.662 29.7C183.444 33.51 185.517 39.064 185.517 45.023V265.078C185.517 266.752 185.527 268.426 185.517 270.099C185.485 274.893 183.571 279.483 180.188 282.879C176.804 286.276 172.222 288.207 167.428 288.258C164.341 288.286 164.333 293.086 167.428 293.058C173.479 292.988 179.262 290.553 183.54 286.273C187.817 281.993 190.25 276.209 190.317 270.158C190.328 268.635 190.317 267.111 190.317 265.588V44.744C190.402 41.1319 189.652 37.5489 188.123 34.275C186.595 31.0011 184.33 28.1248 181.506 25.871C177.449 22.7226 172.461 21.0114 167.325 21.006C166.344 21 165.362 21.006 164.381 21.006H59.228C58.328 21.006 57.418 20.986 56.515 21.019C53.3745 21.1288 50.2898 21.8817 47.4518 23.231C44.6138 24.5804 42.0827 26.4975 40.015 28.864C35.992 33.553 34.379 39.222 34.379 45.288V266.6C34.3091 268.656 34.3639 270.715 34.543 272.765C35.2361 278.347 37.9386 283.486 42.1453 287.221C46.3519 290.956 51.7748 293.031 57.4 293.058C60.66 293.076 63.921 293.058 67.181 293.058H167.428C170.516 293.058 170.522 288.258 167.428 288.258Z" fill="#211715"/>
<path d="M37.2159 264.477H53.0239H88.5089H131.098H168.214C174.567 264.477 180.929 264.577 187.282 264.477C187.444 264.477 187.606 264.477 187.768 264.477C190.857 264.477 190.862 259.677 187.768 259.677H171.821H136.264H93.6709H56.6189C50.3089 259.677 43.9909 259.577 37.6819 259.677C37.5269 259.677 37.3719 259.677 37.2159 259.677C34.1279 259.677 34.1229 264.477 37.2159 264.477Z" fill="#211715"/>
<path d="M37.2159 53.0915H53.0239H88.5089H131.098H168.214C174.567 53.0915 180.929 53.1915 187.282 53.0915C187.444 53.0915 187.606 53.0915 187.768 53.0915C190.857 53.0915 190.862 48.2915 187.768 48.2915H171.821H136.264H93.6709H56.6189C50.3089 48.2915 43.9909 48.1915 37.6819 48.2915C37.5269 48.2915 37.3719 48.2915 37.2159 48.2915C34.1279 48.2915 34.1229 53.0915 37.2159 53.0915Z" fill="#211715"/>
</g>
</g>
<defs>
<clipPath id="clip0_56_2">
<rect width="226" height="322" fill="white"/>
</clipPath>
</defs>
</svg>
