<svg width="209" height="301" viewBox="0 0 209 301" fill="none" xmlns="http://www.w3.org/2000/svg">
<g clip-path="url(#clip0_17_10)">
<path d="M191.649 213.868C193.436 211.718 195.073 209.448 196.549 207.074C198.23 204.692 199.405 201.99 199.999 199.136C200.296 196.726 199.961 194.28 199.028 192.039C198.095 189.797 196.595 187.837 194.675 186.35C192.459 184.609 189.793 183.536 186.989 183.257C184.185 182.977 181.36 183.503 178.844 184.772C175.044 186.659 172.003 189.772 169.287 193.03C166.81 195.859 164.744 199.023 163.152 202.43C161.559 205.856 160.992 209.67 161.522 213.411C161.713 215.035 162.23 216.603 163.041 218.023C163.851 219.443 164.94 220.685 166.241 221.675C167.542 222.665 169.029 223.383 170.613 223.786C172.198 224.189 173.847 224.268 175.463 224.02C178.193 223.651 180.816 222.715 183.163 221.272C186.388 219.299 189.257 216.796 191.649 213.868Z" fill="white"/>
<path d="M193.346 215.565C196.562 211.918 199.219 207.814 201.233 203.388C202.068 201.418 202.491 199.297 202.477 197.158C202.462 195.018 202.009 192.904 201.147 190.945C199.339 186.96 196.083 183.812 192.04 182.139C187.997 180.465 183.468 180.393 179.373 181.935C175.325 183.691 171.747 186.377 168.93 189.773C165.839 193.055 163.252 196.778 161.254 200.819C159.076 205.195 158.421 210.173 159.394 214.964C159.85 216.982 160.713 218.885 161.931 220.557C163.149 222.229 164.695 223.634 166.476 224.687C176.187 230.071 187.089 222.913 193.346 215.565C193.781 215.107 194.024 214.5 194.024 213.868C194.024 213.236 193.781 212.629 193.346 212.171C192.893 211.726 192.284 211.476 191.649 211.476C191.014 211.476 190.405 211.726 189.952 212.171C185.642 217.233 178.802 223.071 171.587 221.505C170.051 221.177 168.619 220.478 167.414 219.471C166.209 218.463 165.269 217.177 164.674 215.723C163.383 212.325 163.376 208.572 164.657 205.17C165.945 201.658 167.855 198.406 170.295 195.57C172.442 192.695 175.017 190.166 177.929 188.07C180.706 186.079 184.149 185.246 187.529 185.746C190.786 186.288 193.696 188.098 195.622 190.781C196.657 192.25 197.325 193.946 197.571 195.726C197.817 197.507 197.634 199.32 197.036 201.015C196.268 202.933 195.283 204.757 194.099 206.45C192.836 208.441 191.452 210.352 189.952 212.171C189.518 212.629 189.274 213.237 189.274 213.868C189.274 214.499 189.517 215.107 189.951 215.565C190.404 216.011 191.013 216.26 191.649 216.26C192.284 216.26 192.893 216.011 193.346 215.565Z" fill="#211715"/>
<path d="M191.649 140.905C193.436 138.755 195.073 136.485 196.549 134.111C198.23 131.729 199.405 129.027 199.999 126.173C200.297 123.763 199.962 121.317 199.029 119.076C198.095 116.834 196.595 114.874 194.675 113.387C192.459 111.646 189.793 110.573 186.989 110.294C184.185 110.014 181.36 110.54 178.844 111.809C175.044 113.696 172.003 116.809 169.287 120.067C166.81 122.894 164.745 126.057 163.152 129.462C161.558 132.888 160.992 136.702 161.522 140.443C161.714 142.067 162.23 143.635 163.041 145.054C163.852 146.474 164.94 147.716 166.241 148.706C167.542 149.696 169.029 150.414 170.613 150.817C172.198 151.22 173.847 151.3 175.463 151.052C178.193 150.683 180.816 149.747 183.163 148.304C186.388 146.333 189.257 143.831 191.649 140.905Z" fill="white"/>
<path d="M191.649 180.907C193.436 178.757 195.073 176.488 196.549 174.114C198.23 171.732 199.405 169.03 199.999 166.175C200.296 163.765 199.961 161.319 199.028 159.078C198.095 156.836 196.595 154.876 194.675 153.389C192.459 151.649 189.793 150.576 186.989 150.296C184.185 150.017 181.36 150.543 178.844 151.812C175.044 153.699 172.003 156.812 169.287 160.07C166.809 162.899 164.744 166.063 163.152 169.47C161.558 172.895 160.992 176.709 161.522 180.45C161.713 182.074 162.23 183.642 163.041 185.062C163.851 186.482 164.94 187.724 166.241 188.714C167.542 189.704 169.029 190.422 170.613 190.825C172.198 191.228 173.847 191.307 175.463 191.059C178.193 190.69 180.816 189.754 183.163 188.311C186.389 186.339 189.258 183.835 191.649 180.907Z" fill="white"/>
<path d="M170.391 65.461C168.603 67.6102 166.966 69.8803 165.491 72.255C163.81 74.6369 162.635 77.3387 162.041 80.193C161.743 82.6029 162.078 85.0488 163.011 87.2905C163.945 89.5321 165.445 91.4925 167.365 92.979C169.581 94.7205 172.248 95.7938 175.053 96.0731C177.858 96.3525 180.684 95.8262 183.2 94.556C187 92.669 194.692 85.533 197.408 82.276C200.127 78.8137 202.543 75.1242 204.63 71.248C206.344 67.6779 206.881 63.6558 206.164 59.761C205.895 57.9757 205.225 56.2746 204.205 54.7851C203.185 53.2957 201.841 52.0566 200.273 51.161C197.85 49.8254 195.062 49.2998 192.319 49.661C189.589 50.0296 186.966 50.9657 184.619 52.409C181.361 54.331 172.837 62.561 170.391 65.461Z" fill="white"/>
<path d="M14.648 280.32C7.32703 265.225 11.316 246.72 10.548 229.499C9.43603 204.61 7.65803 181.943 3.10003 144.388C2.18903 136.88 1.58403 129.365 5.10003 122.671C8.61603 115.977 16.464 113.42 23.766 115.388C30.366 117.166 34.322 121.275 36.832 127.632L158.49 256.551C142.192 272.588 124.047 286.632 104.436 298.388L14.648 280.32Z" fill="white"/>
<path d="M105.648 300.46C121.074 291.217 135.6 280.549 149.035 268.594C152.83 265.229 156.548 261.78 160.187 258.248C162.412 256.096 159.016 252.704 156.793 254.853C144.268 267.097 130.691 278.215 116.218 288.08C111.965 290.947 107.634 293.692 103.225 296.315C100.575 297.897 102.986 302.048 105.648 300.46Z" fill="#211715"/>
<path d="M39.15 126.994C36.779 121.094 32.967 116.362 26.962 113.931C21.147 111.577 14.112 111.744 8.76705 115.231C2.53805 119.3 0.233045 126.764 0.0180454 133.883C-0.00234882 137.729 0.266744 141.571 0.823045 145.377C1.30705 149.387 1.77938 153.398 2.24005 157.411C3.77205 170.801 5.14605 184.211 6.20705 197.647C7.11605 209.162 8.03205 220.755 8.23305 232.308C8.48605 246.885 5.76405 262.182 10.461 276.332C11.0564 278.108 11.7628 279.845 12.576 281.532C12.9009 282.078 13.4272 282.473 14.0413 282.635C14.6554 282.796 15.3083 282.709 15.859 282.393C16.3985 282.063 16.7893 281.537 16.9497 280.925C17.1102 280.313 17.0279 279.663 16.72 279.11C10.69 266.491 12.725 251.693 13.01 238.195C13.25 226.795 12.295 215.305 11.48 203.936C10.622 191.957 9.50005 180 8.22205 168.058C7.42805 160.658 6.58138 153.262 5.68205 145.869C4.84705 138.944 3.69405 131.255 6.77405 124.689C8.08377 121.972 10.2687 119.774 12.978 118.447C15.6873 117.121 18.7637 116.744 21.713 117.377C24.5929 117.856 27.2952 119.087 29.546 120.946C31.7597 122.96 33.4649 125.47 34.522 128.27C34.7076 128.873 35.1165 129.383 35.6652 129.694C36.2139 130.006 36.8609 130.097 37.474 129.947C38.0855 129.774 38.6042 129.367 38.9179 128.814C39.2316 128.262 39.315 127.608 39.15 126.994Z" fill="#211715"/>
<path d="M193.346 142.6C196.561 138.952 199.219 134.849 201.233 130.423C202.068 128.453 202.491 126.332 202.477 124.193C202.462 122.053 202.009 119.938 201.147 117.98C199.339 113.995 196.083 110.847 192.04 109.173C187.997 107.5 183.468 107.427 179.373 108.969C175.325 110.726 171.747 113.411 168.93 116.808C165.839 120.09 163.252 123.813 161.254 127.854C159.075 132.23 158.421 137.209 159.394 142C159.85 144.018 160.713 145.921 161.931 147.592C163.149 149.264 164.695 150.67 166.476 151.722C176.187 157.107 187.089 149.948 193.346 142.6C193.783 142.142 194.026 141.534 194.026 140.901C194.026 140.268 193.783 139.659 193.346 139.201C192.893 138.756 192.284 138.507 191.649 138.507C191.014 138.507 190.405 138.756 189.952 139.201C185.642 144.264 178.802 150.101 171.587 148.536C170.051 148.207 168.619 147.509 167.414 146.501C166.21 145.494 165.269 144.207 164.674 142.754C163.383 139.356 163.377 135.603 164.657 132.201C165.945 128.689 167.855 125.437 170.295 122.601C172.442 119.726 175.016 117.197 177.929 115.101C180.706 113.11 184.149 112.277 187.529 112.776C190.786 113.319 193.696 115.13 195.622 117.812C196.657 119.281 197.325 120.977 197.571 122.757C197.817 124.538 197.634 126.351 197.036 128.046C196.268 129.964 195.283 131.788 194.099 133.481C192.837 135.472 191.452 137.382 189.952 139.201C189.516 139.66 189.272 140.268 189.272 140.901C189.272 141.534 189.515 142.142 189.951 142.601C190.404 143.046 191.014 143.295 191.649 143.295C192.284 143.295 192.893 143.045 193.346 142.6Z" fill="#211715"/>
<path d="M193.346 182.6C196.562 178.953 199.22 174.849 201.233 170.423C202.068 168.453 202.491 166.333 202.477 164.193C202.462 162.053 202.009 159.939 201.147 157.981C199.339 153.996 196.084 150.847 192.04 149.174C187.997 147.5 183.468 147.427 179.373 148.97C175.325 150.727 171.748 153.412 168.93 156.808C165.839 160.09 163.252 163.813 161.254 167.854C159.075 172.23 158.421 177.209 159.394 182C159.85 184.018 160.713 185.921 161.931 187.593C163.149 189.264 164.695 190.67 166.476 191.722C176.187 197.106 187.089 189.949 193.346 182.6C193.781 182.142 194.024 181.535 194.024 180.903C194.024 180.271 193.781 179.664 193.346 179.206C192.893 178.761 192.284 178.512 191.649 178.512C191.014 178.512 190.405 178.761 189.952 179.206C185.642 184.268 178.802 190.101 171.587 188.541C170.051 188.212 168.619 187.514 167.414 186.506C166.209 185.498 165.269 184.212 164.674 182.758C163.382 179.36 163.376 175.608 164.657 172.206C165.946 168.691 167.858 165.437 170.3 162.6C172.447 159.727 175.022 157.2 177.934 155.106C180.711 153.115 184.154 152.282 187.534 152.781C190.791 153.323 193.701 155.134 195.627 157.816C196.662 159.285 197.33 160.981 197.576 162.761C197.822 164.542 197.638 166.355 197.041 168.05C196.273 169.968 195.288 171.792 194.104 173.485C192.841 175.476 191.456 177.387 189.956 179.206C189.521 179.664 189.279 180.272 189.279 180.903C189.279 181.534 189.521 182.142 189.956 182.6C190.408 183.044 191.017 183.293 191.651 183.293C192.285 183.293 192.894 183.044 193.346 182.6Z" fill="#211715"/>
<path d="M168.694 63.764C166.684 66.1822 164.847 68.7382 163.194 71.413C161.518 73.8737 160.342 76.6403 159.734 79.555C159.34 82.1922 159.599 84.8857 160.487 87.3999C161.375 89.9142 162.865 92.1727 164.827 93.978C166.944 95.8912 169.494 97.2602 172.259 97.9669C175.023 98.6736 177.918 98.6966 180.693 98.034C185.11 96.934 188.67 93.907 192.018 90.973C195.277 88.2244 198.232 85.1356 200.835 81.759C202.426 79.5844 203.902 77.3283 205.258 75C206.72 72.7596 207.783 70.283 208.4 67.68C209.41 62.502 208.852 56.746 205.483 52.512C201.868 47.968 195.948 46.445 190.397 47.546C185.322 48.552 181.386 51.566 177.633 54.921C174.457 57.6635 171.471 60.6179 168.694 63.764C168.258 64.2217 168.016 64.8293 168.016 65.461C168.016 66.0928 168.258 66.7003 168.694 67.158C169.147 67.6032 169.756 67.8527 170.391 67.8527C171.026 67.8527 171.635 67.6032 172.088 67.158C174.189 64.7737 176.423 62.5095 178.779 60.376C180.107 59.131 181.455 57.906 182.845 56.73C183.746 55.9051 184.722 55.1653 185.76 54.52C189.654 52.144 194.86 50.82 199.06 53.231C202.728 55.331 204.06 59.205 204.047 63.251C204.099 65.4098 203.678 67.5539 202.814 69.533C201.755 71.6331 200.562 73.6633 199.243 75.611C197.222 78.7835 194.839 81.7108 192.143 84.334C189.5 87.0265 186.606 89.4602 183.5 91.602C181.8 92.7418 179.846 93.4477 177.811 93.6581C175.775 93.8686 173.718 93.577 171.821 92.809C169.652 91.944 167.785 90.4608 166.452 88.5438C165.118 86.6269 164.377 84.3604 164.321 82.026C164.314 79.311 165.521 76.863 166.888 74.583C168.428 71.9756 170.171 69.493 172.099 67.158C172.533 66.6997 172.775 66.0924 172.775 65.461C172.775 64.8296 172.533 64.2223 172.099 63.764C171.646 63.3152 171.034 63.0635 170.396 63.0635C169.759 63.0635 169.147 63.3152 168.694 63.764Z" fill="#211715"/>
<path d="M163.427 2.40601H53.266C41.9502 2.40601 32.777 11.5792 32.777 22.895V249.17C32.777 260.486 41.9502 269.659 53.266 269.659H163.427C174.743 269.659 183.916 260.486 183.916 249.17V22.895C183.916 11.5792 174.743 2.40601 163.427 2.40601Z" fill="#D9D9D9"/>
<path d="M98.445 19.36C105.045 19.36 111.645 19.3567 118.245 19.35C121.333 19.35 121.338 14.55 118.245 14.55C111.645 14.55 105.045 14.5533 98.445 14.56C95.357 14.56 95.352 19.36 98.445 19.36Z" fill="#211715"/>
<path d="M179.65 29.682L33.216 29.692H32.781C32.781 62.621 32.781 205.429 32.781 241.081C33.067 241.081 33.22 241.081 33.22 241.081L183.772 241.07H183.918C183.918 205.402 183.918 62.592 183.918 29.686H179.65V29.682Z" fill="white"/>
<path d="M163.428 267.258H63.5C60.16 267.258 56.819 267.268 53.479 267.258C48.6599 267.263 44.0334 265.366 40.6054 261.979C37.1775 258.591 35.2252 253.988 35.173 249.169C35.163 247.816 35.173 246.463 35.173 245.11V24.609C35.173 24.067 35.173 23.524 35.173 22.982C35.1564 20.5971 35.6125 18.2325 36.5151 16.025C37.4177 13.8174 38.7488 11.8106 40.4316 10.1205C42.1143 8.4304 44.1153 7.09055 46.3189 6.17836C48.5225 5.26617 50.8851 4.79974 53.27 4.80601C54.002 4.80001 54.735 4.80601 55.47 4.80601H160.089C161.142 4.80601 162.196 4.80601 163.249 4.80601C167.384 4.77892 171.406 6.1513 174.662 8.7C179.444 12.51 181.517 18.064 181.517 24.023V244.078C181.517 245.752 181.527 247.426 181.517 249.099C181.485 253.893 179.571 258.483 176.188 261.879C172.804 265.276 168.222 267.207 163.428 267.258C160.341 267.286 160.333 272.086 163.428 272.058C169.479 271.988 175.262 269.553 179.54 265.273C183.817 260.993 186.25 255.209 186.317 249.158C186.328 247.635 186.317 246.111 186.317 244.588V23.744C186.402 20.1319 185.652 16.5489 184.123 13.275C182.595 10.0011 180.33 7.12485 177.506 4.871C173.449 1.72264 168.461 0.0113557 163.325 0.00600488C162.344 4.8792e-06 161.362 0.00600488 160.381 0.00600488H55.228C54.328 0.00600488 53.418 -0.0139951 52.515 0.0190049C49.3745 0.128812 46.2898 0.881667 43.4518 2.23102C40.6138 3.58038 38.0827 5.49755 36.015 7.864C31.992 12.553 30.379 18.222 30.379 24.288V245.6C30.3091 247.656 30.3639 249.715 30.543 251.765C31.2361 257.347 33.9386 262.486 38.1453 266.221C42.3519 269.956 47.7748 272.031 53.4 272.058C56.66 272.076 59.921 272.058 63.181 272.058H163.428C166.516 272.058 166.522 267.258 163.428 267.258Z" fill="#211715"/>
<path d="M33.2159 243.477H49.0239H84.5089H127.098H164.214C170.567 243.477 176.929 243.577 183.282 243.477C183.444 243.477 183.606 243.477 183.768 243.477C186.857 243.477 186.862 238.677 183.768 238.677H167.821H132.264H89.6709H52.6189C46.3089 238.677 39.9909 238.577 33.6819 238.677C33.5269 238.677 33.3719 238.677 33.2159 238.677C30.1279 238.677 30.1229 243.477 33.2159 243.477Z" fill="#211715"/>
<path d="M33.2159 32.092H49.0239H84.5089H127.098H164.214C170.567 32.092 176.929 32.192 183.282 32.092C183.444 32.092 183.606 32.092 183.768 32.092C186.857 32.092 186.862 27.292 183.768 27.292H167.821H132.264H89.6709H52.6189C46.3089 27.292 39.9909 27.192 33.6819 27.292C33.5269 27.292 33.3719 27.292 33.2159 27.292C30.1279 27.292 30.1229 32.092 33.2159 32.092Z" fill="#211715"/>
</g>
<defs>
<clipPath id="clip0_17_10">
<rect width="209" height="301" fill="white"/>
</clipPath>
</defs>
</svg>
