<svg width="285" height="266" viewBox="0 0 285 266" fill="none" xmlns="http://www.w3.org/2000/svg">
<g clip-path="url(#clip0_40_2)">
<path d="M246.221 226.392C253.127 226.392 257.901 231.468 257.901 237.408C257.901 244.055 253.024 248.632 246.22 248.632C239.154 248.632 234.54 244.012 234.54 237.408C234.54 231.428 239.339 226.392 246.221 226.392Z" fill="white"/>
<path d="M270.183 249.691C271.059 249.651 271.935 249.787 272.757 250.092C273.579 250.397 274.332 250.865 274.97 251.467C275.608 252.069 276.119 252.793 276.471 253.596C276.824 254.399 277.011 255.265 277.022 256.142C277.022 260.034 274.167 262.714 270.183 262.714C266.045 262.714 263.343 260.014 263.343 256.142C263.353 255.265 263.54 254.398 263.893 253.595C264.245 252.791 264.756 252.067 265.394 251.465C266.032 250.863 266.785 250.396 267.608 250.091C268.431 249.786 269.307 249.65 270.183 249.691Z" fill="white"/>
<path d="M2.40002 121.527C2.40002 88.113 26.124 59.035 62.564 49.595C69.273 22.9 95.349 2.41602 130.593 2.41602C146.159 2.41602 159.905 6.41601 170.993 13.164C176.107 12.414 181.268 12.0374 186.436 12.037C237.327 12.037 272.503 46.67 272.503 87.2C272.513 92.9195 271.906 98.6233 270.695 104.213C278.335 115.874 282.402 129.513 282.395 143.454C282.395 182.031 257.376 210.375 220.223 217.979C213.044 228.971 199.745 235.679 183.394 235.679C173.594 235.679 165.094 233.421 158.309 229.401C147.363 233.423 135.781 235.437 124.12 235.346C86.82 235.346 59.174 217.846 47.493 190.302C19.302 178.285 2.40002 153.276 2.40002 121.527Z" fill="white"/>
<path d="M246.221 223.992C249.15 223.945 252.02 224.817 254.427 226.485C256.835 228.153 258.66 230.534 259.645 233.292C260.516 235.971 260.535 238.853 259.7 241.543C258.864 244.233 257.215 246.597 254.98 248.311C250.48 251.682 243.737 251.896 238.84 249.266C233.82 246.566 231.501 240.773 232.327 235.277C233.351 228.46 239.578 224.077 246.221 223.996C249.31 223.957 249.312 228.757 246.221 228.796C242.204 228.845 238.497 231.076 237.337 234.83C236.79 236.521 236.762 238.338 237.257 240.045C237.752 241.753 238.746 243.273 240.113 244.41C241.687 245.465 243.507 246.095 245.396 246.236C247.286 246.378 249.18 246.028 250.893 245.219C252.489 244.387 253.785 243.077 254.6 241.472C255.416 239.868 255.71 238.049 255.441 236.269C254.79 231.735 250.807 228.853 246.221 228.796C243.134 228.753 243.126 223.953 246.221 223.992Z" fill="#211715"/>
<path d="M270.183 247.291C272.114 247.267 274.005 247.85 275.587 248.958C277.17 250.065 278.364 251.642 279.003 253.465C279.569 255.244 279.566 257.156 278.994 258.933C278.423 260.711 277.312 262.266 275.815 263.382C274.288 264.419 272.508 265.019 270.665 265.118C268.822 265.216 266.988 264.81 265.359 263.942C263.775 263.018 262.515 261.627 261.75 259.96C260.986 258.293 260.755 256.43 261.088 254.627C261.747 250.203 265.898 247.344 270.183 247.291C270.82 247.291 271.43 247.544 271.88 247.994C272.33 248.444 272.583 249.054 272.583 249.691C272.583 250.327 272.33 250.938 271.88 251.388C271.43 251.838 270.82 252.091 270.183 252.091C269.983 252.091 269.783 252.11 269.578 252.113C268.954 252.123 269.903 252.032 269.536 252.113C269.196 252.176 268.859 252.256 268.527 252.354C268.41 252.391 268.296 252.439 268.18 252.474C268.74 252.304 268.218 252.458 268.092 252.521C267.782 252.686 267.481 252.869 267.192 253.069C267.256 253.027 267.58 252.731 267.269 253.014C267.142 253.13 267.013 253.241 266.891 253.363C266.811 253.443 266.732 253.526 266.656 253.611L266.544 253.739C266.379 253.939 266.4 253.911 266.605 253.654C266.443 253.745 266.243 254.213 266.158 254.373C266.14 254.407 265.868 254.894 266.058 254.546C266.237 254.223 265.967 254.814 265.941 254.897C265.823 255.161 265.756 255.445 265.741 255.734L265.779 255.441C265.767 255.557 265.757 255.674 265.751 255.791C265.745 255.908 265.741 256.027 265.741 256.145C265.706 256.446 265.723 256.75 265.792 257.045C265.568 256.526 265.773 256.883 265.817 257.09C265.852 257.255 265.894 257.419 265.941 257.581C265.987 257.741 266.041 257.895 266.098 258.052C266.252 258.502 266.047 257.926 266.046 257.929C265.989 258.021 266.42 258.6 266.476 258.697C266.681 259.052 266.424 258.828 266.427 258.66C266.427 258.733 266.689 258.96 266.74 259.017C266.812 259.093 266.887 259.168 266.964 259.241C267.041 259.314 267.527 259.631 267.207 259.463C266.862 259.283 267.312 259.524 267.358 259.554C267.496 259.642 267.636 259.725 267.78 259.802C267.88 259.854 267.98 259.902 268.075 259.951C268.575 260.211 267.575 259.807 268.125 259.965C268.405 260.046 268.676 260.142 268.962 260.206C269.106 260.239 269.262 260.25 269.405 260.292C269.585 260.321 269.524 260.313 269.223 260.268C269.349 260.282 269.474 260.293 269.6 260.301C269.921 260.321 270.242 260.324 270.563 260.31C270.719 260.304 270.874 260.284 271.03 260.276C271.402 260.259 270.454 260.405 271.025 260.276C271.313 260.21 271.601 260.154 271.884 260.067C272.055 260.036 272.22 259.979 272.372 259.896C272.087 260.021 272.025 260.046 272.188 259.971C272.265 259.936 272.34 259.9 272.415 259.861C272.662 259.734 272.889 259.581 273.125 259.437C273.597 259.151 272.759 259.793 273.157 259.415C273.235 259.34 273.319 259.272 273.398 259.197C273.515 259.085 273.628 258.969 273.735 258.848C273.793 258.783 274.014 258.394 273.854 258.714C273.684 259.056 273.916 258.605 273.947 258.557C274.047 258.395 274.134 258.224 274.231 258.057C274.344 257.863 274.539 257.744 274.231 258.101C274.312 257.951 274.369 257.79 274.4 257.623C274.486 257.345 274.542 257.063 274.6 256.779C274.653 256.522 274.732 256.632 274.585 256.885C274.627 256.705 274.638 256.519 274.618 256.335C274.618 256.214 274.618 256.092 274.618 255.971C274.618 255.85 274.609 255.738 274.599 255.621C274.571 255.35 274.578 255.39 274.621 255.743C274.706 255.543 274.435 254.933 274.372 254.743C274.346 254.632 274.307 254.525 274.255 254.424C274.388 254.736 274.4 254.772 274.289 254.533C274.239 254.433 274.189 254.333 274.13 254.233C274.071 254.133 274.016 254.038 273.955 253.943C273.894 253.848 273.831 253.755 273.765 253.663C273.972 253.921 273.993 253.949 273.827 253.747C273.593 253.494 273.355 253.256 273.103 253.02C272.997 252.92 272.76 252.814 273.181 253.074C272.981 252.951 272.796 252.81 272.592 252.693C272.492 252.634 272.384 252.577 272.279 252.524C272.174 252.471 272.063 252.424 271.954 252.371C272.22 252.482 272.271 252.506 272.104 252.444C271.741 252.344 271.393 252.217 271.021 252.144C270.874 252.115 270.447 252.092 270.986 252.13C270.717 252.111 270.451 252.093 270.186 252.09C269.549 252.09 268.939 251.837 268.489 251.387C268.039 250.937 267.786 250.327 267.786 249.69C267.786 249.053 268.039 248.443 268.489 247.993C268.939 247.543 269.549 247.29 270.186 247.29L270.183 247.291Z" fill="#211715"/>
<path d="M-0.000152588 121.527C0.0342663 108.312 3.67477 95.358 10.5289 84.06C17.6163 72.6043 27.4762 63.1193 39.1979 56.481C46.3348 52.425 53.9771 49.3314 61.9259 47.281L60.2499 48.957C64.1679 33.574 74.2769 20.484 87.5639 11.957C103.026 2.03095 122.217 -1.48205 140.341 0.555954C151.598 1.72599 162.469 5.32002 172.205 11.091L170.356 10.849C193.314 7.54895 217.607 11.083 237.595 23.272C253.936 33.237 266.726 48.809 272.087 67.3C275.487 79.5486 275.804 92.4482 273.009 104.849L272.767 102.999C284.902 121.725 287.787 145.136 281.654 166.493C276.637 183.827 265.502 198.752 250.317 208.5C241.306 214.204 231.323 218.2 220.866 220.29L222.3 219.19C211.6 235.385 190.762 240.419 172.479 237.096C167.065 236.132 161.861 234.228 157.103 231.471L158.952 231.713C140.494 238.596 119.627 239.494 100.452 235.221C84.9679 231.77 70.2669 224.272 59.2999 212.68C53.461 206.499 48.7643 199.332 45.4279 191.511L46.2889 192.372C35.46 187.83 25.8012 180.893 18.0379 172.082C10.572 163.413 5.23964 153.117 2.46786 142.017C0.81861 135.313 -0.00913149 128.434 0.00286865 121.53C-0.00413135 118.441 4.79586 118.437 4.80286 121.53C4.69406 132.886 7.16553 144.119 12.0309 154.381C16.785 164.087 23.7882 172.518 32.4579 178.971C37.059 182.367 42.0146 185.254 47.2379 187.583C47.9822 187.714 48.668 188.071 49.202 188.606C49.7359 189.141 50.0921 189.827 50.2219 190.572C50.7859 191.822 51.3859 193.055 52.0219 194.272C53.2268 196.578 54.5599 198.815 56.0149 200.972C61.8495 209.508 69.5472 216.606 78.5269 221.731C88.4327 227.318 99.3592 230.859 110.659 232.145C124.533 233.952 138.63 232.875 152.068 228.98C153.659 228.501 155.236 227.978 156.798 227.411C157.217 227.192 157.681 227.07 158.154 227.055C158.627 227.041 159.097 227.134 159.529 227.327C160.277 227.694 160.984 228.158 161.729 228.537C164.549 229.953 167.522 231.044 170.589 231.787C177.206 233.405 184.071 233.747 190.817 232.795C196.703 232.019 202.368 230.047 207.463 227C209.772 225.594 211.91 223.924 213.834 222.024C214.807 221.066 215.721 220.05 216.571 218.982C217.455 217.865 218.158 216.119 219.589 215.659C220.941 215.225 222.428 215.044 223.807 214.694C225.186 214.344 226.554 213.963 227.914 213.549C230.576 212.739 233.206 211.808 235.775 210.737C240.663 208.694 245.328 206.154 249.696 203.156C258.162 197.361 265.23 189.751 270.386 180.88C282.386 160.132 283.356 133.09 272.321 111.76C271.559 110.288 270.748 108.843 269.887 107.425C269.481 106.757 268.98 106.112 268.623 105.418C268.023 104.256 268.504 103.037 268.737 101.839C269.446 98.1525 269.878 94.418 270.03 90.667C270.808 75.3858 266.351 60.2963 257.394 47.891C244.9 30.291 224.859 19.514 203.858 15.874C197.74 14.8366 191.541 14.3573 185.337 14.442C181.406 14.4836 177.481 14.7423 173.579 15.217C172.725 15.3823 171.861 15.4981 170.994 15.564C170.147 15.449 169.347 15.1085 168.677 14.578C167.178 13.7053 165.648 12.8893 164.086 12.13C151.846 6.18295 137.955 4.08895 124.446 5.02995C102.707 6.53995 81.2919 17.309 70.3109 36.676C67.9035 40.9331 66.0766 45.4932 64.8789 50.235C64.7685 50.6358 64.556 51.0011 64.262 51.2951C63.968 51.589 63.6027 51.8016 63.2019 51.912C50.1672 55.1794 38.1082 61.5302 28.0399 70.43C18.8366 78.6442 11.9487 89.1287 8.06384 100.837C5.90938 107.523 4.80824 114.504 4.79987 121.529C4.79087 124.615 -0.00915259 124.621 -0.000152588 121.527Z" fill="#211715"/>
</g>
<defs>
<clipPath id="clip0_40_2">
<rect width="284.773" height="265.126" fill="white" transform="matrix(-1 0 0 1 284.773 0)"/>
</clipPath>
</defs>
</svg>
