<svg width="285" height="291" viewBox="0 0 285 291" fill="none" xmlns="http://www.w3.org/2000/svg">
<g clip-path="url(#clip0_67_634)">
<mask id="mask0_67_634" style="mask-type:luminance" maskUnits="userSpaceOnUse" x="0" y="0" width="285" height="291">
<path d="M-6.10352e-05 0H284.773V290.126H-6.10352e-05V0Z" fill="white"/>
</mask>
<g mask="url(#mask0_67_634)">
<path d="M246.221 251.392C253.127 251.392 257.901 256.468 257.901 262.408C257.901 269.055 253.024 273.632 246.22 273.632C239.154 273.632 234.54 269.012 234.54 262.408C234.54 256.428 239.339 251.392 246.221 251.392Z" fill="white"/>
<path d="M270.183 274.691C271.059 274.651 271.935 274.787 272.757 275.092C273.579 275.397 274.332 275.865 274.97 276.467C275.608 277.069 276.119 277.793 276.471 278.596C276.824 279.399 277.011 280.265 277.022 281.142C277.022 285.034 274.167 287.714 270.183 287.714C266.045 287.714 263.343 285.014 263.343 281.142C263.353 280.265 263.54 279.398 263.893 278.595C264.245 277.791 264.756 277.067 265.394 276.465C266.032 275.863 266.785 275.396 267.608 275.091C268.431 274.786 269.307 274.65 270.183 274.691Z" fill="white"/>
<path d="M2.3999 146.527C2.3999 113.113 26.1239 84.035 62.5639 74.595C69.2729 47.9 95.3489 27.416 130.593 27.416C146.159 27.416 159.905 31.416 170.993 38.164C176.107 37.414 181.268 37.0374 186.436 37.037C237.327 37.037 272.503 71.67 272.503 112.2C272.513 117.919 271.906 123.623 270.695 129.213C278.335 140.874 282.402 154.513 282.395 168.454C282.395 207.031 257.376 235.375 220.223 242.979C213.044 253.971 199.745 260.679 183.394 260.679C173.594 260.679 165.094 258.421 158.309 254.401C147.363 258.423 135.781 260.437 124.12 260.346C86.8199 260.346 59.1739 242.846 47.4929 215.302C19.3019 203.285 2.3999 178.276 2.3999 146.527Z" fill="white"/>
<path d="M246.221 248.992C249.15 248.945 252.02 249.817 254.427 251.485C256.835 253.153 258.66 255.534 259.645 258.292C260.516 260.971 260.535 263.853 259.7 266.543C258.864 269.233 257.215 271.597 254.98 273.311C250.48 276.682 243.737 276.896 238.84 274.266C233.82 271.566 231.501 265.773 232.327 260.277C233.351 253.46 239.578 249.077 246.221 248.996C249.31 248.957 249.312 253.757 246.221 253.796C242.204 253.845 238.497 256.076 237.337 259.83C236.79 261.521 236.762 263.338 237.257 265.045C237.752 266.753 238.746 268.273 240.113 269.41C241.687 270.465 243.507 271.095 245.396 271.236C247.286 271.378 249.18 271.028 250.893 270.219C252.489 269.387 253.785 268.077 254.6 266.472C255.416 264.868 255.71 263.049 255.441 261.269C254.79 256.735 250.807 253.853 246.221 253.796C243.134 253.753 243.126 248.953 246.221 248.992Z" fill="#211715"/>
<path d="M270.183 272.291C272.114 272.267 274.005 272.85 275.587 273.958C277.17 275.065 278.364 276.642 279.003 278.465C279.569 280.244 279.566 282.156 278.994 283.933C278.423 285.711 277.312 287.266 275.815 288.382C274.288 289.419 272.508 290.019 270.665 290.118C268.822 290.216 266.988 289.81 265.359 288.942C263.775 288.018 262.515 286.627 261.75 284.96C260.986 283.293 260.755 281.43 261.088 279.627C261.747 275.203 265.898 272.344 270.183 272.291C270.82 272.291 271.43 272.544 271.88 272.994C272.33 273.444 272.583 274.054 272.583 274.691C272.583 275.327 272.33 275.938 271.88 276.388C271.43 276.838 270.82 277.091 270.183 277.091C269.983 277.091 269.783 277.11 269.578 277.113C268.954 277.123 269.903 277.032 269.536 277.113C269.196 277.176 268.859 277.256 268.527 277.354C268.41 277.391 268.296 277.439 268.18 277.474C268.74 277.304 268.218 277.458 268.092 277.521C267.782 277.686 267.481 277.869 267.192 278.069C267.256 278.027 267.58 277.731 267.269 278.014C267.142 278.13 267.013 278.241 266.891 278.363C266.811 278.443 266.732 278.526 266.656 278.611L266.544 278.739C266.379 278.939 266.4 278.911 266.605 278.654C266.443 278.745 266.243 279.213 266.158 279.373C266.14 279.407 265.868 279.894 266.058 279.546C266.237 279.223 265.967 279.814 265.941 279.897C265.823 280.161 265.756 280.445 265.741 280.734L265.779 280.441C265.767 280.557 265.757 280.674 265.751 280.791C265.745 280.908 265.741 281.027 265.741 281.145C265.706 281.446 265.723 281.75 265.792 282.045C265.568 281.526 265.773 281.883 265.817 282.09C265.852 282.255 265.894 282.419 265.941 282.581C265.987 282.741 266.041 282.895 266.098 283.052C266.252 283.502 266.047 282.926 266.046 282.929C265.989 283.021 266.42 283.6 266.476 283.697C266.681 284.052 266.424 283.828 266.427 283.66C266.427 283.733 266.689 283.96 266.74 284.017C266.812 284.093 266.887 284.168 266.964 284.241C267.041 284.314 267.527 284.631 267.207 284.463C266.862 284.283 267.312 284.524 267.358 284.554C267.496 284.642 267.636 284.725 267.78 284.802C267.88 284.854 267.98 284.902 268.075 284.951C268.575 285.211 267.575 284.807 268.125 284.965C268.405 285.046 268.676 285.142 268.962 285.206C269.106 285.239 269.262 285.25 269.405 285.292C269.585 285.321 269.524 285.313 269.223 285.268C269.349 285.282 269.474 285.293 269.6 285.301C269.921 285.321 270.242 285.324 270.563 285.31C270.719 285.304 270.874 285.284 271.03 285.276C271.402 285.259 270.454 285.405 271.025 285.276C271.313 285.21 271.601 285.154 271.884 285.067C272.055 285.036 272.22 284.979 272.372 284.896C272.087 285.021 272.025 285.046 272.188 284.971C272.265 284.936 272.34 284.9 272.415 284.861C272.662 284.734 272.889 284.581 273.125 284.437C273.597 284.151 272.759 284.793 273.157 284.415C273.235 284.34 273.319 284.272 273.398 284.197C273.515 284.085 273.628 283.969 273.735 283.848C273.793 283.783 274.014 283.394 273.854 283.714C273.684 284.056 273.916 283.605 273.947 283.557C274.047 283.395 274.134 283.224 274.231 283.057C274.344 282.863 274.539 282.744 274.231 283.101C274.312 282.951 274.369 282.79 274.4 282.623C274.486 282.345 274.542 282.063 274.6 281.779C274.653 281.522 274.732 281.632 274.585 281.885C274.627 281.705 274.638 281.519 274.618 281.335C274.618 281.214 274.618 281.092 274.618 280.971C274.618 280.85 274.609 280.738 274.599 280.621C274.571 280.35 274.578 280.39 274.621 280.743C274.706 280.543 274.435 279.933 274.372 279.743C274.346 279.632 274.307 279.525 274.255 279.424C274.388 279.736 274.4 279.772 274.289 279.533C274.239 279.433 274.189 279.333 274.13 279.233C274.071 279.133 274.016 279.038 273.955 278.943C273.894 278.848 273.831 278.755 273.765 278.663C273.972 278.921 273.993 278.949 273.827 278.747C273.593 278.494 273.355 278.256 273.103 278.02C272.997 277.92 272.76 277.814 273.181 278.074C272.981 277.951 272.796 277.81 272.592 277.693C272.492 277.634 272.384 277.577 272.279 277.524C272.174 277.471 272.063 277.424 271.954 277.371C272.22 277.482 272.271 277.506 272.104 277.444C271.741 277.344 271.393 277.217 271.021 277.144C270.874 277.115 270.447 277.092 270.986 277.13C270.717 277.111 270.451 277.093 270.186 277.09C269.549 277.09 268.939 276.837 268.489 276.387C268.039 275.937 267.786 275.327 267.786 274.69C267.786 274.053 268.039 273.443 268.489 272.993C268.939 272.543 269.549 272.29 270.186 272.29L270.183 272.291Z" fill="#211715"/>
<path d="M1.26404e-05 146.527C0.0344315 133.312 3.67494 120.358 10.5291 109.06C17.6165 97.6043 27.4764 88.1193 39.1981 81.481C46.335 77.425 53.9773 74.3314 61.9261 72.281L60.2501 73.957C64.1681 58.574 74.2771 45.484 87.5641 36.957C103.026 27.031 122.217 23.518 140.341 25.556C151.598 26.726 162.469 30.32 172.205 36.091L170.356 35.849C193.314 32.549 217.607 36.083 237.595 48.272C253.936 58.237 266.726 73.809 272.087 92.3C275.487 104.549 275.804 117.448 273.009 129.849L272.767 127.999C284.902 146.725 287.787 170.136 281.654 191.493C276.637 208.827 265.502 223.752 250.317 233.5C241.306 239.204 231.323 243.2 220.866 245.29L222.3 244.19C211.6 260.385 190.762 265.419 172.479 262.096C167.065 261.132 161.861 259.228 157.103 256.471L158.952 256.713C140.494 263.596 119.627 264.494 100.452 260.221C84.9681 256.77 70.2671 249.272 59.3001 237.68C53.4612 231.499 48.7645 224.332 45.4281 216.511L46.2891 217.372C35.4602 212.83 25.8014 205.893 18.0381 197.082C10.5722 188.413 5.23981 178.117 2.46803 167.017C0.818775 160.313 -0.00896626 153.434 0.00303388 146.53C-0.00396612 143.441 4.79603 143.437 4.80303 146.53C4.69423 157.886 7.1657 169.119 12.0311 179.381C16.7852 189.087 23.7884 197.518 32.4581 203.971C37.0592 207.367 42.0148 210.254 47.2381 212.583C47.9824 212.714 48.6682 213.071 49.2022 213.606C49.7361 214.141 50.0923 214.827 50.2221 215.572C50.7861 216.822 51.3861 218.055 52.0221 219.272C53.227 221.578 54.5601 223.815 56.0151 225.972C61.8497 234.508 69.5474 241.606 78.5271 246.731C88.4329 252.318 99.3594 255.859 110.659 257.145C124.533 258.952 138.63 257.875 152.068 253.98C153.659 253.501 155.236 252.978 156.798 252.411C157.217 252.192 157.681 252.07 158.154 252.055C158.627 252.041 159.097 252.134 159.529 252.327C160.277 252.694 160.984 253.158 161.729 253.537C164.549 254.953 167.522 256.044 170.589 256.787C177.206 258.405 184.071 258.747 190.817 257.795C196.703 257.019 202.368 255.047 207.463 252C209.772 250.594 211.91 248.924 213.834 247.024C214.807 246.066 215.721 245.05 216.571 243.982C217.455 242.865 218.158 241.119 219.589 240.659C220.941 240.225 222.428 240.044 223.807 239.694C225.186 239.344 226.554 238.963 227.914 238.549C230.576 237.739 233.206 236.808 235.775 235.737C240.663 233.694 245.328 231.154 249.696 228.156C258.162 222.361 265.23 214.751 270.386 205.88C282.386 185.132 283.356 158.09 272.321 136.76C271.559 135.288 270.748 133.843 269.887 132.425C269.481 131.757 268.98 131.112 268.623 130.418C268.023 129.256 268.504 128.037 268.737 126.839C269.446 123.152 269.878 119.418 270.03 115.667C270.808 100.386 266.351 85.2963 257.394 72.891C244.9 55.291 224.859 44.514 203.858 40.874C197.74 39.8366 191.541 39.3573 185.337 39.442C181.406 39.4836 177.481 39.7423 173.579 40.217C172.725 40.3823 171.861 40.4981 170.994 40.564C170.147 40.449 169.347 40.1085 168.677 39.578C167.178 38.7053 165.648 37.8893 164.086 37.13C151.846 31.183 137.955 29.089 124.446 30.03C102.707 31.54 81.2921 42.309 70.3111 61.676C67.9037 65.9331 66.0768 70.4932 64.8791 75.235C64.7687 75.6358 64.5562 76.0011 64.2622 76.2951C63.9682 76.589 63.6029 76.8016 63.2021 76.912C50.1674 80.1794 38.1084 86.5302 28.0401 95.43C18.8368 103.644 11.9489 114.129 8.064 125.837C5.90954 132.523 4.80841 139.504 4.80004 146.529C4.79104 149.615 -0.00898736 149.621 1.26404e-05 146.527Z" fill="#211715"/>
</g>
</g>
<defs>
<clipPath id="clip0_67_634">
<rect width="285" height="291" fill="white"/>
</clipPath>
</defs>
</svg>
