<svg width="966" height="536" viewBox="0 0 483 268" fill="none" xmlns="http://www.w3.org/2000/svg">
<g clip-path="url(#clip0_1_50)">
<path d="M246.935 266.072C246.935 239.785 246.758 33.825 246.758 31.659H371.483C371.483 33.825 371.659 239.266 371.659 265.553" fill="white"/>
<path d="M303.161 87.377C301.777 87.377 273.317 87.405 271.006 87.405V100.115H303.1C303.1 97.649 303.161 88.075 303.161 87.377Z" fill="#87CCE3"/>
<path d="M349.671 87.377C348.288 87.377 319.827 87.405 317.516 87.405V100.115H349.607C349.607 97.649 349.671 88.075 349.671 87.377Z" fill="#87CCE3"/>
<path d="M362.679 98.115H256.448C253.874 98.115 253.87 102.115 256.448 102.115H362.679C365.253 102.115 365.257 98.115 362.679 98.115Z" fill="#211715"/>
<path d="M303.161 109.435C301.777 109.435 273.317 109.463 271.006 109.463V122.173H303.1C303.1 119.707 303.161 110.133 303.161 109.435Z" fill="#87CCE3"/>
<path d="M349.671 109.435C348.288 109.435 319.827 109.463 317.516 109.463V122.173H349.607C349.607 119.707 349.671 110.133 349.671 109.435Z" fill="#87CCE3"/>
<path d="M362.679 129.492H256.448C253.874 129.492 253.87 133.492 256.448 133.492H362.679C365.253 133.492 365.257 129.492 362.679 129.492Z" fill="#211715"/>
<path d="M362.679 120.173H256.448C253.874 120.173 253.87 124.173 256.448 124.173H362.679C365.253 124.173 365.257 120.173 362.679 120.173Z" fill="#211715"/>
<path d="M253.262 31.659C253.262 36.5737 253.268 41.4883 253.28 46.403L253.322 80.714L253.373 123.825C253.388 137.576 253.403 151.327 253.417 165.078C253.426 174.523 253.433 183.968 253.438 193.413C253.438 194.105 253.438 194.797 253.438 195.489C253.438 198.063 257.438 198.067 257.438 195.489C257.438 186.78 257.432 178.07 257.42 169.361C257.407 155.977 257.393 142.593 257.378 129.21C257.362 114.727 257.345 100.244 257.327 85.761C257.312 73.739 257.298 61.7173 257.283 49.696C257.276 43.816 257.401 37.92 257.261 32.042C257.261 31.915 257.261 31.787 257.261 31.659C257.261 29.086 253.262 29.081 253.262 31.659Z" fill="#211715"/>
<path d="M244.758 31.659C244.758 36.5737 244.764 41.4883 244.776 46.403L244.818 80.714L244.869 123.825C244.884 137.576 244.898 151.327 244.913 165.078C244.922 174.523 244.929 183.968 244.934 193.413C244.934 194.105 244.934 194.797 244.934 195.489C244.934 198.063 248.934 198.067 248.934 195.489C248.934 186.78 248.928 178.07 248.916 169.361C248.904 155.977 248.89 142.593 248.874 129.21C248.858 114.727 248.841 100.244 248.823 85.761C248.808 73.739 248.793 61.7187 248.78 49.7C248.773 43.82 248.898 37.924 248.759 32.046C248.759 31.919 248.759 31.791 248.759 31.663C248.759 29.09 244.759 29.085 244.759 31.663L244.758 31.659Z" fill="#211715"/>
<path d="M371.717 29.659H246.758C244.184 29.659 244.18 33.659 246.758 33.659H371.717C374.29 33.659 374.295 29.659 371.717 29.659Z" fill="#211715"/>
<path d="M365.634 157.837C365.549 138.056 365.474 118.276 365.409 98.495C365.349 81.0197 365.294 63.5453 365.244 46.072C365.23 41.268 365.22 36.4637 365.213 31.659C365.213 29.086 361.213 29.081 361.213 31.659C361.213 43.207 361.267 54.759 361.303 66.303C361.365 86.085 361.432 105.867 361.503 125.649C361.543 136.378 361.586 147.107 361.631 157.837C361.642 160.41 365.642 160.415 365.631 157.837H365.634Z" fill="#211715"/>
<path d="M369.483 31.659C369.483 35.305 369.489 38.9503 369.5 42.595L369.542 67.909C369.56 78.661 369.577 89.413 369.593 100.165C369.609 110.753 369.624 121.341 369.637 131.928C369.647 139.897 369.654 147.866 369.659 155.836V157.836C369.659 160.409 373.659 160.414 373.659 157.836C373.659 150.403 373.653 142.97 373.641 135.536C373.629 125.146 373.615 114.756 373.599 104.367C373.583 93.5003 373.566 82.6317 373.549 71.761L373.504 45.161C373.497 40.772 373.611 36.361 373.483 31.976C373.483 31.871 373.483 31.766 373.483 31.66C373.483 29.087 369.483 29.081 369.483 31.659Z" fill="#211715"/>
<path d="M362.679 107.435H256.448C253.874 107.435 253.87 111.435 256.448 111.435H362.679C365.253 111.435 365.257 107.435 362.679 107.435Z" fill="#211715"/>
<path d="M303.161 65.32C301.777 65.32 273.317 65.348 271.006 65.348V78.058H303.1C303.1 75.592 303.161 66.018 303.161 65.32Z" fill="#87CCE3"/>
<path d="M349.671 65.32C348.288 65.32 319.827 65.348 317.516 65.348V78.058H349.607C349.607 75.592 349.671 66.018 349.671 65.32Z" fill="#87CCE3"/>
<path d="M362.679 76.058H256.448C253.874 76.058 253.87 80.058 256.448 80.058H362.679C365.253 80.058 365.257 76.058 362.679 76.058Z" fill="#211715"/>
<path d="M362.679 63.32H256.448C253.874 63.32 253.87 67.32 256.448 67.32H362.679C365.253 67.32 365.257 63.32 362.679 63.32Z" fill="#211715"/>
<path d="M362.679 62.7H256.448C253.874 62.7 253.87 66.7 256.448 66.7H362.679C365.253 66.7 365.257 62.7 362.679 62.7Z" fill="#211715"/>
<path d="M303.161 42.643C301.777 42.643 273.317 42.671 271.006 42.671V55.381H303.1C303.1 52.915 303.161 43.341 303.161 42.643Z" fill="#87CCE3"/>
<path d="M349.671 42.643C348.288 42.643 319.827 42.671 317.516 42.671V55.381H349.607C349.607 52.915 349.671 43.341 349.671 42.643Z" fill="#87CCE3"/>
<path d="M349.671 40.643C340.563 40.643 331.455 40.651 322.347 40.667C320.737 40.667 319.127 40.667 317.516 40.667C316.988 40.6745 316.484 40.8876 316.11 41.2611C315.737 41.6345 315.523 42.1389 315.516 42.667V55.377C315.524 55.905 315.737 56.4092 316.11 56.7826C316.484 57.1561 316.988 57.3693 317.516 57.377H349.607C350.135 57.3698 350.64 57.1567 351.013 56.7832C351.387 56.4097 351.6 55.9052 351.607 55.377C351.607 51.131 351.666 46.885 351.671 42.639C351.671 40.065 347.671 40.061 347.671 42.639C347.671 46.885 347.609 51.131 347.607 55.377L349.607 53.377H317.516L319.516 55.377V42.671L317.516 44.671C326.783 44.671 336.051 44.6627 345.322 44.646C346.771 44.646 348.22 44.646 349.671 44.646C352.245 44.643 352.249 40.643 349.671 40.643Z" fill="#211715"/>
<path d="M362.679 53.381H256.448C253.874 53.381 253.87 57.381 256.448 57.381H362.679C365.253 57.381 365.257 53.381 362.679 53.381Z" fill="#211715"/>
<path d="M362.679 40.643H256.448C253.874 40.643 253.87 44.643 256.448 44.643H362.679C365.253 44.643 365.257 40.643 362.679 40.643Z" fill="#211715"/>
<path d="M303.161 132.112C301.777 132.112 273.317 132.14 271.006 132.14V144.85H303.1C303.1 142.384 303.161 132.81 303.161 132.112Z" fill="#87CCE3"/>
<path d="M349.671 132.112C348.288 132.112 319.827 132.14 317.516 132.14V144.85H349.607C349.607 142.384 349.671 132.81 349.671 132.112Z" fill="#87CCE3"/>
<path d="M303.161 85.377C294.053 85.377 284.945 85.3853 275.836 85.402C274.226 85.402 272.616 85.402 271.006 85.402C270.478 85.4097 269.974 85.6229 269.6 85.9964C269.227 86.3698 269.014 86.874 269.006 87.402V100.112C269.013 100.64 269.226 101.145 269.6 101.518C269.973 101.892 270.478 102.105 271.006 102.112H303.1C303.628 102.104 304.132 101.891 304.506 101.518C304.879 101.144 305.092 100.64 305.1 100.112C305.1 95.866 305.158 91.62 305.164 87.374C305.164 84.8 301.164 84.796 301.164 87.374C301.158 91.62 301.102 95.866 301.1 100.112L303.1 98.112H271.006L273.006 100.112V87.405L271.006 89.405C280.273 89.405 289.541 89.397 298.811 89.381H303.161C305.735 89.377 305.739 85.377 303.161 85.377Z" fill="#211715"/>
<path d="M349.671 85.377C340.563 85.377 331.455 85.3853 322.347 85.402C320.737 85.402 319.127 85.402 317.516 85.402C316.988 85.4097 316.484 85.6229 316.11 85.9964C315.737 86.3698 315.524 86.874 315.516 87.402V100.112C315.523 100.64 315.737 101.144 316.11 101.518C316.484 101.891 316.988 102.105 317.516 102.112H349.607C350.135 102.105 350.64 101.892 351.013 101.518C351.387 101.145 351.6 100.64 351.607 100.112C351.607 95.866 351.666 91.62 351.671 87.374C351.671 84.8 347.671 84.796 347.671 87.374C347.671 91.62 347.609 95.866 347.607 100.112L349.607 98.112H317.516L319.516 100.112V87.405L317.516 89.405C326.783 89.405 336.051 89.397 345.322 89.381H349.671C352.245 89.377 352.249 85.377 349.671 85.377Z" fill="#211715"/>
<path d="M303.161 107.435C294.053 107.435 284.945 107.443 275.836 107.459C274.226 107.459 272.616 107.459 271.006 107.459C270.478 107.466 269.974 107.68 269.6 108.053C269.227 108.427 269.014 108.931 269.006 109.459V122.169C269.014 122.697 269.227 123.201 269.6 123.575C269.974 123.948 270.478 124.162 271.006 124.169H303.1C303.628 124.161 304.132 123.948 304.506 123.575C304.879 123.201 305.092 122.697 305.1 122.169C305.1 117.923 305.158 113.677 305.164 109.431C305.164 106.857 301.164 106.853 301.164 109.431C301.158 113.677 301.102 117.923 301.1 122.169L303.1 120.169H271.006L273.006 122.169V109.459L271.006 111.459C280.273 111.459 289.541 111.451 298.811 111.434C300.261 111.434 301.711 111.434 303.161 111.434C305.735 111.435 305.739 107.435 303.161 107.435Z" fill="#211715"/>
<path d="M349.671 107.435C340.563 107.435 331.455 107.443 322.347 107.459C320.737 107.459 319.127 107.459 317.516 107.459C316.988 107.466 316.484 107.68 316.11 108.053C315.737 108.427 315.523 108.931 315.516 109.459V122.169C315.524 122.697 315.737 123.201 316.11 123.575C316.484 123.948 316.988 124.161 317.516 124.169H349.607C350.135 124.162 350.64 123.949 351.013 123.575C351.387 123.202 351.6 122.697 351.607 122.169C351.607 117.923 351.666 113.677 351.671 109.431C351.671 106.857 347.671 106.853 347.671 109.431C347.671 113.677 347.609 117.923 347.607 122.169L349.607 120.169H317.516L319.516 122.169V109.459L317.516 111.459C326.783 111.459 336.051 111.451 345.322 111.434C346.771 111.434 348.22 111.434 349.671 111.434C352.245 111.435 352.249 107.435 349.671 107.435Z" fill="#211715"/>
<path d="M303.161 63.32C294.053 63.32 284.945 63.328 275.836 63.344C274.226 63.344 272.616 63.344 271.006 63.344C270.478 63.3515 269.974 63.5646 269.6 63.9381C269.227 64.3115 269.014 64.8159 269.006 65.344V78.054C269.014 78.5821 269.227 79.0865 269.6 79.4599C269.974 79.8334 270.478 80.0465 271.006 80.054H303.1C303.628 80.0463 304.132 79.8331 304.506 79.4597C304.879 79.0862 305.092 78.582 305.1 78.054C305.1 73.808 305.158 69.562 305.164 65.316C305.164 62.742 301.164 62.738 301.164 65.316C301.158 69.562 301.102 73.808 301.1 78.054L303.1 76.054H271.006L273.006 78.054V65.348L271.006 67.348C280.273 67.348 289.541 67.3397 298.811 67.323C300.261 67.323 301.711 67.323 303.161 67.323C305.735 67.32 305.739 63.32 303.161 63.32Z" fill="#211715"/>
<path d="M349.671 63.32C340.563 63.32 331.455 63.328 322.347 63.344C320.737 63.344 319.127 63.344 317.516 63.344C316.988 63.3515 316.484 63.5646 316.11 63.9381C315.737 64.3115 315.523 64.8159 315.516 65.344V78.054C315.524 78.582 315.737 79.0862 316.11 79.4597C316.484 79.8331 316.988 80.0463 317.516 80.054H349.607C350.135 80.0468 350.64 79.8337 351.013 79.4602C351.387 79.0867 351.6 78.5822 351.607 78.054C351.607 73.808 351.666 69.562 351.671 65.316C351.671 62.742 347.671 62.738 347.671 65.316C347.671 69.562 347.609 73.808 347.607 78.054L349.607 76.054H317.516L319.516 78.054V65.348L317.516 67.348C326.783 67.348 336.051 67.3397 345.322 67.323C346.771 67.323 348.22 67.323 349.671 67.323C352.245 67.32 352.249 63.32 349.671 63.32Z" fill="#211715"/>
<path d="M303.161 40.643C294.053 40.643 284.945 40.651 275.836 40.667C274.226 40.667 272.616 40.667 271.006 40.667C270.478 40.6745 269.974 40.8876 269.6 41.2611C269.227 41.6345 269.014 42.1389 269.006 42.667V55.377C269.014 55.9051 269.227 56.4095 269.6 56.7829C269.974 57.1564 270.478 57.3695 271.006 57.377H303.1C303.628 57.3693 304.132 57.1561 304.506 56.7826C304.879 56.4092 305.092 55.905 305.1 55.377C305.1 51.131 305.158 46.885 305.164 42.639C305.164 40.065 301.164 40.061 301.164 42.639C301.158 46.885 301.102 51.131 301.1 55.377L303.1 53.377H271.006L273.006 55.377V42.671L271.006 44.671C280.273 44.671 289.541 44.6627 298.811 44.646H303.161C305.735 44.643 305.739 40.643 303.161 40.643Z" fill="#211715"/>
<path d="M303.161 130.112C294.053 130.112 284.945 130.12 275.836 130.136C274.226 130.136 272.616 130.136 271.006 130.136C270.478 130.143 269.974 130.357 269.6 130.73C269.227 131.104 269.014 131.608 269.006 132.136V144.846C269.014 145.374 269.227 145.878 269.6 146.252C269.974 146.625 270.478 146.838 271.006 146.846H303.1C303.628 146.838 304.132 146.625 304.506 146.252C304.879 145.878 305.092 145.374 305.1 144.846C305.1 140.6 305.158 136.354 305.164 132.108C305.164 129.534 301.164 129.53 301.164 132.108C301.158 136.354 301.102 140.6 301.1 144.846L303.1 142.846H271.006L273.006 144.846V132.14L271.006 134.14C280.273 134.14 289.541 134.132 298.811 134.115C300.261 134.115 301.711 134.115 303.161 134.115C305.735 134.112 305.739 130.112 303.161 130.112Z" fill="#211715"/>
<path d="M349.671 130.112C340.563 130.112 331.455 130.12 322.347 130.136C320.737 130.136 319.127 130.136 317.516 130.136C316.988 130.143 316.484 130.357 316.11 130.73C315.737 131.104 315.523 131.608 315.516 132.136V144.846C315.524 145.374 315.737 145.878 316.11 146.252C316.484 146.625 316.988 146.838 317.516 146.846H349.607C350.135 146.839 350.64 146.626 351.013 146.252C351.387 145.879 351.6 145.374 351.607 144.846C351.607 140.6 351.666 136.354 351.671 132.108C351.671 129.534 347.671 129.53 347.671 132.108C347.671 136.354 347.609 140.6 347.607 144.846L349.607 142.846H317.516L319.516 144.846V132.14L317.516 134.14C326.783 134.14 336.051 134.132 345.322 134.115C346.771 134.115 348.22 134.115 349.671 134.115C352.245 134.112 352.249 130.112 349.671 130.112Z" fill="#211715"/>
<path d="M362.679 142.85H256.448C253.874 142.85 253.87 146.85 256.448 146.85H362.679C365.253 146.85 365.257 142.85 362.679 142.85Z" fill="#211715"/>
<path d="M362.679 130.112H256.448C253.874 130.112 253.87 134.112 256.448 134.112H362.679C365.253 134.112 365.257 130.112 362.679 130.112Z" fill="#211715"/>
<path d="M362.679 85.377H256.448C253.874 85.377 253.87 89.377 256.448 89.377H362.679C365.253 89.377 365.257 85.377 362.679 85.377Z" fill="#211715"/>
<path d="M224.755 265.746C224.755 254.214 224.513 157.886 224.513 145.185H131.5C131.5 145.185 131.766 265.485 131.5 265.746" fill="white"/>
<path d="M226.755 195.206C226.755 181.851 226.608 168.497 226.543 155.143C226.527 151.824 226.517 148.505 226.513 145.185C226.505 144.657 226.292 144.153 225.919 143.779C225.545 143.406 225.041 143.192 224.513 143.185H142.84C140.266 143.185 140.262 147.185 142.84 147.185H224.513L222.513 145.185C222.513 158.739 222.657 172.293 222.725 185.848C222.741 188.967 222.751 192.086 222.755 195.206C222.755 197.78 226.755 197.784 226.755 195.206Z" fill="#211715"/>
<path d="M186.9 158.661C195.652 158.661 204.4 158.553 213.156 158.551C215.73 158.551 215.735 154.551 213.156 154.551C204.404 154.551 195.656 154.66 186.9 154.661C184.326 154.661 184.322 158.661 186.9 158.661Z" fill="#211715"/>
<path d="M198.239 167.009C203.211 167.009 208.184 166.901 213.156 166.899C215.73 166.899 215.735 162.899 213.156 162.899C208.184 162.899 203.211 163.007 198.239 163.009C195.665 163.009 195.66 167.009 198.239 167.009Z" fill="#211715"/>
<path d="M277.556 265.746C277.536 247.838 277.517 171.837 277.516 167.891C287.345 167.891 387.738 167.891 414.577 167.891V169.046C414.577 174.946 414.66 252.329 414.66 265.117" fill="white"/>
<path d="M279.557 265.746C279.542 252.426 279.534 239.106 279.535 225.785C279.529 210.345 279.524 194.905 279.52 179.465C279.52 175.606 279.52 171.746 279.52 167.886L277.52 169.886H414.58L412.58 167.886C412.58 185.295 412.595 202.704 412.624 220.113C412.63 226.704 412.635 233.295 412.64 239.886C412.64 242.46 416.64 242.465 416.64 239.886C416.624 218.433 416.606 196.98 416.585 175.525C416.585 172.979 416.585 170.433 416.585 167.886C416.577 167.358 416.364 166.854 415.991 166.48C415.617 166.107 415.113 165.893 414.585 165.886H277.517C276.989 165.894 276.485 166.107 276.111 166.48C275.738 166.854 275.525 167.358 275.517 167.886C275.517 177.881 275.52 187.876 275.525 197.869C275.53 214.249 275.536 230.629 275.544 247.009C275.544 253.254 275.548 259.499 275.557 265.746C275.557 268.32 279.557 268.325 279.557 265.746Z" fill="#211715"/>
<path d="M361.914 219.569C360.538 219.569 332.225 219.608 329.926 219.608V258.6H361.851C361.851 255.151 361.914 220.545 361.914 219.569Z" fill="#87CCE3"/>
<path d="M361.914 217.569C352.835 217.569 343.756 217.58 334.677 217.603C333.093 217.603 331.509 217.603 329.926 217.603C329.398 217.61 328.894 217.824 328.52 218.197C328.147 218.571 327.933 219.075 327.926 219.603V258.6C327.933 259.128 328.147 259.632 328.52 260.006C328.894 260.379 329.398 260.593 329.926 260.6H361.851C362.379 260.593 362.883 260.379 363.257 260.006C363.63 259.632 363.844 259.128 363.851 258.6C363.851 247.216 363.869 235.832 363.906 224.449C363.906 222.822 363.909 221.195 363.914 219.568C363.914 216.994 359.914 216.99 359.914 219.568C359.914 230.525 359.896 241.483 359.859 252.44C359.859 254.494 359.856 256.547 359.851 258.6L361.851 256.6H329.926L331.926 258.6V219.608L329.926 221.608C339.164 221.608 348.402 221.597 357.639 221.574C359.064 221.574 360.489 221.572 361.914 221.569C364.488 221.568 364.493 217.568 361.914 217.569Z" fill="#211715"/>
<path d="M337.084 217.826V258.6C337.084 261.174 341.084 261.178 341.084 258.6V217.826C341.084 215.252 337.084 215.248 337.084 217.826Z" fill="#211715"/>
<path d="M401.439 190.39C400.056 190.39 371.595 190.418 369.284 190.418V205.962H401.375C401.375 203.5 401.439 191.088 401.439 190.39Z" fill="#87CCE3"/>
<path d="M401.439 188.39C392.331 188.39 383.223 188.398 374.115 188.414H369.284C368.756 188.421 368.252 188.635 367.878 189.008C367.505 189.382 367.291 189.886 367.284 190.414V205.958C367.291 206.486 367.505 206.99 367.878 207.364C368.252 207.737 368.756 207.95 369.284 207.958H401.375C401.903 207.951 402.408 207.738 402.781 207.364C403.155 206.991 403.368 206.486 403.375 205.958C403.375 200.767 403.434 195.577 403.439 190.386C403.439 187.812 399.439 187.808 399.439 190.386C399.439 195.577 399.377 200.767 399.375 205.958L401.375 203.958H369.284L371.284 205.958V190.418L369.284 192.418C378.551 192.418 387.819 192.41 397.09 192.393C398.54 192.393 399.99 192.393 401.439 192.393C404.013 192.389 404.017 188.389 401.439 188.39Z" fill="#211715"/>
<path d="M383.241 190.418V211C383.241 213.573 387.241 213.578 387.241 211V205.965C387.241 203.392 383.241 203.387 383.241 205.965V211C383.241 213.573 387.241 213.578 387.241 211V190.418C387.241 187.844 383.241 187.839 383.241 190.418Z" fill="#211715"/>
<path d="M287.228 178.545C291.731 178.545 296.234 178.541 300.739 178.534L328.655 178.508L361.87 178.476L390.849 178.448C396.057 178.443 401.265 178.439 406.474 178.435H407.027C409.601 178.435 409.606 174.435 407.027 174.435C402.564 174.435 398.101 174.439 393.636 174.446L365.781 174.473L332.57 174.505L303.536 174.532C298.29 174.537 293.044 174.541 287.799 174.546H287.228C284.654 174.546 284.65 178.546 287.228 178.546V178.545Z" fill="#211715"/>
<path d="M352.927 228.533C353.327 229.184 354.256 230.309 354.66 230.95Z" fill="white"/>
<path d="M351.2 229.543C351.722 230.387 352.4 231.122 352.933 231.96C353.204 232.404 353.63 232.731 354.128 232.879C354.387 232.962 354.663 232.974 354.928 232.915C355.193 232.903 355.45 232.821 355.672 232.677C356.121 232.412 356.451 231.984 356.591 231.482C356.731 230.962 356.659 230.408 356.391 229.941C355.861 229.103 355.18 228.368 354.658 227.524C354.388 227.08 353.962 226.752 353.463 226.605C353.204 226.522 352.928 226.509 352.663 226.569C352.399 226.58 352.142 226.662 351.92 226.806C351.471 227.07 351.141 227.498 351 228C350.862 228.52 350.934 229.073 351.2 229.541V229.543Z" fill="#211715"/>
<path d="M346.243 229.479C348.784 233.128 351.455 236.681 354.256 240.139Z" fill="white"/>
<path d="M344.516 230.489C347.157 234.276 349.932 237.964 352.842 241.553C353.218 241.927 353.726 242.137 354.256 242.137C354.787 242.137 355.295 241.927 355.671 241.553C356.033 241.171 356.234 240.665 356.234 240.139C356.234 239.613 356.033 239.107 355.671 238.725C352.971 235.393 350.522 232.13 347.971 228.47C347.838 228.243 347.662 228.045 347.453 227.886C347.244 227.727 347.005 227.611 346.751 227.545C346.497 227.478 346.232 227.462 345.972 227.498C345.712 227.533 345.461 227.62 345.234 227.753C345.008 227.885 344.809 228.061 344.65 228.27C344.492 228.48 344.376 228.718 344.309 228.972C344.242 229.226 344.226 229.491 344.262 229.751C344.298 230.012 344.384 230.262 344.517 230.489H344.516Z" fill="#211715"/>
<path d="M329.828 265.6V217.3H272.328C272.411 234.715 272.317 252.52 272.317 265.883" fill="#A18D7D"/>
<path d="M331.828 265.6V219.608C331.828 217.034 327.828 217.03 327.828 219.608V265.6C327.828 268.174 331.828 268.178 331.828 265.6Z" fill="#211715"/>
<path d="M284.7 220.136V265.746C284.7 268.32 288.7 268.324 288.7 265.746V220.136C288.7 217.562 284.7 217.558 284.7 220.136Z" fill="#211715"/>
<path d="M299.077 220.136C299.077 233.124 299.077 246.112 299.077 259.101C299.077 261.362 299.077 263.623 299.077 265.883C299.077 268.457 303.077 268.461 303.077 265.883C303.077 253.021 303.077 240.159 303.077 227.298V220.136C303.077 217.562 299.077 217.558 299.077 220.136Z" fill="#211715"/>
<path d="M313.453 220.136V265.117C313.453 267.691 317.453 267.695 317.453 265.117V220.136C317.453 217.562 313.453 217.558 313.453 220.136Z" fill="#211715"/>
<path d="M270.326 220.136C270.397 235.385 270.316 250.636 270.315 265.884C270.315 268.458 274.315 268.462 274.315 265.884C274.315 250.634 274.397 235.384 274.326 220.136C274.314 217.562 270.314 217.557 270.326 220.136Z" fill="#211715"/>
<path d="M272.326 205.962H420.326V220.136H272.326V205.962Z" fill="#CFCFCF"/>
<path d="M272.326 207.962H420.326L418.326 205.962V220.136L420.326 218.136H272.326L274.326 220.136V205.962C274.326 203.389 270.326 203.384 270.326 205.962V220.136C270.334 220.664 270.547 221.168 270.92 221.542C271.294 221.915 271.798 222.128 272.326 222.136H420.326C420.854 222.128 421.358 221.915 421.732 221.542C422.105 221.168 422.318 220.664 422.326 220.136V205.962C422.318 205.434 422.105 204.93 421.732 204.556C421.358 204.183 420.854 203.97 420.326 203.962H272.326C269.753 203.962 269.748 207.962 272.326 207.962Z" fill="#211715"/>
<path d="M330.076 260.726H414.3C416.874 260.726 416.878 256.726 414.3 256.726H330.076C327.502 256.726 327.498 260.726 330.076 260.726Z" fill="#211715"/>
<path d="M394.927 254.214H387.214C385.414 254.214 383.214 247.789 385.956 243.574C388.929 239.005 395.689 239.83 400.356 239.774C406.598 239.692 412.134 239.752 418.619 240.027C424.519 240.027 427.019 241.367 428.557 244.927C429.444 246.98 429.528 254.22 424.857 254.22L394.927 254.214Z" fill="#7CC67A"/>
<path d="M394.927 252.214H388.557C388.251 252.214 387.943 252.207 387.638 252.214C387.246 252.223 387.088 252.23 387.594 252.281C387.965 252.318 387.781 252.49 387.594 252.16C387.656 252.268 387.28 251.567 387.206 251.382C386.067 248.564 386.555 244.682 389.343 243.046C392.253 241.333 396.097 241.752 399.329 241.771C404.152 241.799 408.97 241.717 413.793 241.851C416.229 241.919 418.7 241.905 421.127 242.122C422.524 242.167 423.881 242.595 425.052 243.358C425.397 243.644 425.707 243.97 425.975 244.33C426.166 244.608 426.338 244.898 426.49 245.198C426.584 245.361 426.664 245.532 426.731 245.708C426.802 245.918 426.849 246.133 426.902 246.348C426.956 246.492 426.982 246.645 426.979 246.799C427.044 247.451 427.055 248.107 427.011 248.76C426.98 249.313 426.879 249.861 426.711 250.389C426.578 250.833 426.376 251.252 426.111 251.632C425.711 252.142 425.368 252.19 424.669 252.21C422.862 252.262 421.046 252.21 419.238 252.21H394.921C392.347 252.21 392.343 256.21 394.921 256.21H419.496C421.277 256.21 423.068 256.263 424.849 256.21C428.804 256.092 430.649 252.679 430.974 249.124C431.174 247.599 431.019 246.049 430.521 244.593C430.024 243.138 429.198 241.817 428.107 240.733C424.792 237.676 419.864 238.051 415.683 237.91C410.176 237.724 404.677 237.81 399.17 237.77C395.117 237.739 390.454 237.461 386.926 239.836C382.726 242.665 381.671 248.386 383.54 252.919C384.268 254.684 385.416 256.142 387.448 256.214C389.932 256.301 392.436 256.214 394.921 256.214C397.5 256.214 397.505 252.214 394.927 252.214Z" fill="#211715"/>
<path d="M384.407 265.6V252.009H429.693V265.6" fill="white"/>
<path d="M386.407 265.6V252.009L384.407 254.009H429.693L427.693 252.009V265.6C427.693 268.174 431.693 268.178 431.693 265.6V252.009C431.685 251.481 431.472 250.977 431.099 250.603C430.725 250.23 430.221 250.016 429.693 250.009H384.407C383.879 250.016 383.374 250.229 383.001 250.603C382.627 250.976 382.414 251.481 382.407 252.009V265.6C382.407 268.174 386.407 268.178 386.407 265.6Z" fill="#211715"/>
<path d="M154.157 265.8C154.157 256.254 154.223 209.623 154.223 205.222H255.958C255.958 209.622 255.892 256.202 255.892 265.748" fill="white"/>
<path d="M156.157 265.8C156.157 258.023 156.164 250.247 156.179 242.471L156.215 213.393C156.215 210.669 156.218 207.945 156.223 205.222L154.223 207.222H255.958L253.958 205.222C253.958 211.769 253.951 218.317 253.936 224.864C253.923 234.889 253.911 244.913 253.9 254.937C253.9 258.541 253.897 262.145 253.892 265.748C253.892 268.322 257.892 268.326 257.892 265.748C257.892 257.978 257.899 250.207 257.914 242.436L257.95 213.387C257.95 210.665 257.953 207.943 257.958 205.222C257.951 204.694 257.737 204.19 257.364 203.816C256.99 203.443 256.486 203.229 255.958 203.222H154.223C153.695 203.229 153.191 203.443 152.817 203.816C152.444 204.19 152.231 204.694 152.223 205.222C152.223 211.775 152.216 218.328 152.201 224.881C152.188 234.915 152.176 244.948 152.165 254.981C152.165 258.586 152.162 262.192 152.157 265.798C152.157 268.372 156.157 268.376 156.157 265.798V265.8Z" fill="#211715"/>
<path d="M244.817 265.746V224.346H219.746C219.783 234.569 219.746 257.899 219.746 265.746" fill="#A18D7D"/>
<path d="M177.232 224.884H186.294C186.282 234.477 186.294 244.27 186.294 251.631H177.232V224.884Z" fill="#87CCE3"/>
<path d="M194.22 224.884H203.282C203.269 234.477 203.282 244.27 203.282 251.631H194.22V224.884Z" fill="#87CCE3"/>
<path d="M246.817 265.746V224.346C246.809 223.818 246.596 223.314 246.223 222.94C245.849 222.567 245.345 222.354 244.817 222.346H219.746C219.218 222.354 218.714 222.567 218.34 222.94C217.967 223.314 217.754 223.818 217.746 224.346C217.786 235.752 217.76 247.158 217.746 258.564C217.746 260.957 217.746 263.35 217.746 265.742C217.746 268.316 221.746 268.32 221.746 265.742C221.746 254.746 221.751 243.75 221.761 232.754C221.761 229.954 221.756 227.151 221.746 224.346L219.746 226.346H244.817L242.817 224.346V265.746C242.817 268.32 246.817 268.324 246.817 265.746Z" fill="#211715"/>
<path d="M177.232 226.884H186.294L184.294 224.884C184.283 233.8 184.283 242.716 184.294 251.631L186.294 249.631H177.232L179.232 251.631V224.884C179.232 222.31 175.232 222.306 175.232 224.884V251.631C175.24 252.159 175.453 252.663 175.826 253.037C176.2 253.41 176.704 253.623 177.232 253.631H186.294C186.822 253.624 187.326 253.41 187.7 253.037C188.073 252.663 188.287 252.159 188.294 251.631C188.294 242.715 188.294 233.799 188.294 224.884C188.287 224.356 188.073 223.852 187.7 223.478C187.326 223.105 186.822 222.891 186.294 222.884H177.232C174.659 222.884 174.654 226.884 177.232 226.884Z" fill="#211715"/>
<path d="M194.22 226.884H203.282L201.282 224.884C201.271 233.8 201.271 242.716 201.282 251.631L203.282 249.631H194.22L196.22 251.631V224.884C196.22 222.31 192.22 222.306 192.22 224.884V251.631C192.227 252.159 192.441 252.663 192.814 253.037C193.188 253.41 193.692 253.624 194.22 253.631H203.282C203.81 253.624 204.314 253.41 204.688 253.037C205.061 252.663 205.275 252.159 205.282 251.631C205.282 242.715 205.282 233.799 205.282 224.884C205.274 224.356 205.061 223.852 204.688 223.478C204.314 223.105 203.81 222.892 203.282 222.884H194.22C191.646 222.884 191.642 226.884 194.22 226.884Z" fill="#211715"/>
<path d="M225.424 244.757C225.454 246.657 225.424 248.566 225.424 250.47C225.424 251 225.635 251.509 226.01 251.884C226.385 252.259 226.894 252.47 227.424 252.47C227.954 252.47 228.463 252.259 228.838 251.884C229.213 251.509 229.424 251 229.424 250.47C229.424 248.57 229.453 246.661 229.424 244.757C229.424 244.227 229.213 243.718 228.838 243.343C228.463 242.968 227.954 242.757 227.424 242.757C226.894 242.757 226.385 242.968 226.01 243.343C225.635 243.718 225.424 244.227 225.424 244.757Z" fill="#211715"/>
<path d="M133.585 265.735C133.585 251.394 132.933 114.335 132.933 98.543H24.983C24.983 100.709 25.159 239.681 25.159 265.968" fill="white"/>
<path d="M135.585 265.735C135.585 258.842 135.547 251.949 135.52 245.057C135.471 232.469 135.419 219.881 135.364 207.293C135.302 192.62 135.239 177.947 135.176 163.275C135.12 150.102 135.066 136.929 135.013 123.756C134.982 115.806 134.955 107.856 134.934 99.906C134.934 99.452 134.934 98.9977 134.934 98.543C134.927 98.0149 134.713 97.5105 134.34 97.1371C133.966 96.7636 133.462 96.5505 132.934 96.543H24.983C24.455 96.5507 23.9508 96.7639 23.5774 97.1374C23.2039 97.5108 22.9907 98.015 22.983 98.543C22.983 103.571 22.9887 108.599 23 113.628C23.014 125.382 23.0283 137.136 23.043 148.891C23.0603 163.601 23.077 178.311 23.093 193.02C23.109 207.02 23.1237 221.02 23.137 235.02C23.1463 244.641 23.1537 254.262 23.159 263.883V265.965C23.159 268.539 27.159 268.543 27.159 265.965C27.159 257.144 27.153 248.323 27.141 239.502C27.129 225.797 27.115 212.093 27.099 198.388C27.083 183.568 27.066 168.748 27.048 153.929C27.034 141.65 27.0193 129.371 27.004 117.091C27.0013 113.03 26.9967 108.969 26.99 104.906C26.99 102.931 27.119 100.906 26.983 98.932C26.974 98.804 26.983 98.672 26.983 98.543L24.983 100.543H132.933L130.933 98.543C130.933 105.665 130.971 112.787 130.998 119.908C131.047 132.613 131.099 145.318 131.154 158.024C131.216 172.703 131.279 187.383 131.342 202.062C131.398 215.129 131.452 228.197 131.505 241.268C131.536 249.001 131.563 256.737 131.584 264.476C131.584 264.896 131.584 265.316 131.584 265.735C131.584 268.309 135.584 268.313 135.584 265.735H135.585Z" fill="#211715"/>
<path d="M132.4 236.911H26.169C23.595 236.911 23.59 240.911 26.169 240.911H132.4C134.974 240.911 134.978 236.911 132.4 236.911Z" fill="#211715"/>
<path d="M132.4 224.757H26.169C23.595 224.757 23.59 228.757 26.169 228.757H132.4C134.974 228.757 134.978 224.757 132.4 224.757Z" fill="#211715"/>
<path d="M132.4 194.276H26.169C23.595 194.276 23.59 198.276 26.169 198.276H132.4C134.974 198.276 134.978 194.276 132.4 194.276Z" fill="#211715"/>
<path d="M132.4 182.122H26.169C23.595 182.122 23.59 186.122 26.169 186.122H132.4C134.974 186.122 134.978 182.122 132.4 182.122Z" fill="#211715"/>
<path d="M119.127 125.915C115.754 125.915 46.361 125.943 40.727 125.943V141.488H118.971C118.971 139.021 119.127 126.613 119.127 125.915Z" fill="#87CCE3"/>
<path d="M90.994 126.2V140.455C90.994 140.985 91.2047 141.494 91.5798 141.869C91.9549 142.244 92.4636 142.455 92.994 142.455C93.5244 142.455 94.0331 142.244 94.4082 141.869C94.7833 141.494 94.994 140.985 94.994 140.455V126.2C94.994 125.67 94.7833 125.161 94.4082 124.786C94.0331 124.411 93.5244 124.2 92.994 124.2C92.4636 124.2 91.9549 124.411 91.5798 124.786C91.2047 125.161 90.994 125.67 90.994 126.2Z" fill="#211715"/>
<path d="M64.86 126.2V141.46C64.86 144.034 68.86 144.038 68.86 141.46V126.2C68.86 123.627 64.86 123.622 64.86 126.2Z" fill="#211715"/>
<path d="M119.127 168.359C115.754 168.359 46.361 168.387 40.727 168.387V183.932H118.971C118.971 181.466 119.127 169.057 119.127 168.359Z" fill="#87CCE3"/>
<path d="M90.994 168.643V182.9C90.994 183.43 91.2047 183.939 91.5798 184.314C91.9549 184.689 92.4636 184.9 92.994 184.9C93.5244 184.9 94.0331 184.689 94.4082 184.314C94.7833 183.939 94.994 183.43 94.994 182.9V168.643C94.994 168.113 94.7833 167.604 94.4082 167.229C94.0331 166.854 93.5244 166.643 92.994 166.643C92.4636 166.643 91.9549 166.854 91.5798 167.229C91.2047 167.604 90.994 168.113 90.994 168.643Z" fill="#211715"/>
<path d="M64.86 168.359V183.9C64.86 186.474 68.86 186.478 68.86 183.9V168.359C68.86 165.785 64.86 165.781 64.86 168.359Z" fill="#211715"/>
<path d="M119.127 210.582C115.754 210.582 46.361 210.609 40.727 210.609V226.154H118.971C118.971 223.688 119.127 211.28 119.127 210.582Z" fill="#87CCE3"/>
<path d="M119.127 123.915C110.305 123.915 101.483 123.918 92.66 123.924C79.198 123.929 65.736 123.934 52.274 123.939C48.4247 123.939 44.5757 123.939 40.727 123.939C40.1988 123.946 39.6943 124.159 39.3208 124.533C38.9473 124.906 38.7342 125.411 38.727 125.939V141.484C38.7345 142.012 38.9476 142.516 39.3211 142.89C39.6945 143.263 40.1989 143.477 40.727 143.484H118.971C119.499 143.476 120.003 143.263 120.377 142.89C120.75 142.516 120.963 142.012 120.971 141.484C120.971 136.292 121.115 131.102 121.127 125.911C121.133 123.337 117.133 123.333 117.127 125.911C117.115 131.102 116.975 136.292 116.971 141.484L118.971 139.484H40.727L42.727 141.484V125.943L40.727 127.943C50.087 127.943 59.4473 127.94 68.808 127.933L108.742 127.918C112.203 127.918 115.665 127.918 119.127 127.918C121.7 127.915 121.705 123.915 119.127 123.915Z" fill="#211715"/>
<path d="M119.127 166.359C110.305 166.359 101.483 166.362 92.66 166.369L52.274 166.384C48.4247 166.384 44.5757 166.384 40.727 166.384C40.1988 166.391 39.6943 166.604 39.3208 166.978C38.9473 167.351 38.7342 167.856 38.727 168.384V183.929C38.7345 184.457 38.9476 184.961 39.3211 185.335C39.6945 185.708 40.1989 185.922 40.727 185.929H118.971C119.499 185.922 120.003 185.708 120.377 185.335C120.75 184.961 120.964 184.457 120.971 183.929C120.971 178.738 121.115 173.547 121.127 168.356C121.133 165.782 117.133 165.779 117.127 168.356C117.115 173.547 116.975 178.738 116.971 183.929L118.971 181.929H40.727L42.727 183.929V168.387L40.727 170.387C50.087 170.387 59.4473 170.384 68.808 170.378L108.742 170.363C112.203 170.363 115.665 170.363 119.127 170.363C121.7 170.359 121.705 166.359 119.127 166.359Z" fill="#211715"/>
<path d="M119.127 208.582C110.305 208.582 101.483 208.585 92.66 208.591L52.274 208.606C48.4247 208.606 44.5757 208.606 40.727 208.606C40.1989 208.613 39.6945 208.827 39.3211 209.2C38.9476 209.574 38.7345 210.078 38.727 210.606V226.151C38.7345 226.679 38.9476 227.183 39.3211 227.557C39.6945 227.93 40.1989 228.144 40.727 228.151H118.971C119.499 228.144 120.003 227.93 120.377 227.557C120.75 227.183 120.964 226.679 120.971 226.151C120.971 220.96 121.115 215.77 121.127 210.579C121.133 208.004 117.133 208.001 117.127 210.579C117.115 215.77 116.975 220.96 116.971 226.151L118.971 224.151H40.727L42.727 226.151V210.609L40.727 212.609C50.087 212.609 59.4473 212.606 68.808 212.6L108.742 212.585C112.203 212.585 115.665 212.585 119.127 212.585C121.7 212.581 121.705 208.581 119.127 208.582Z" fill="#211715"/>
<path d="M90.994 210.865V225.119C90.994 225.649 91.2047 226.158 91.5798 226.533C91.9549 226.908 92.4636 227.119 92.994 227.119C93.5244 227.119 94.0331 226.908 94.4082 226.533C94.7833 226.158 94.994 225.649 94.994 225.119V210.865C94.994 210.335 94.7833 209.826 94.4082 209.451C94.0331 209.076 93.5244 208.865 92.994 208.865C92.4636 208.865 91.9549 209.076 91.5798 209.451C91.2047 209.826 90.994 210.335 90.994 210.865Z" fill="#211715"/>
<path d="M64.86 210.582V226.126C64.86 228.7 68.86 228.704 68.86 226.126V210.582C68.86 208.008 64.86 208.003 64.86 210.582Z" fill="#211715"/>
<path d="M132.4 151.642H26.169C23.595 151.642 23.59 155.642 26.169 155.642H132.4C134.974 155.642 134.978 151.642 132.4 151.642Z" fill="#211715"/>
<path d="M132.4 139.488H26.169C23.595 139.488 23.59 143.488 26.169 143.488H132.4C134.974 143.488 134.978 139.488 132.4 139.488Z" fill="#211715"/>
<path d="M132.4 108.481H26.169C23.595 108.481 23.59 112.481 26.169 112.481H132.4C134.974 112.481 134.978 108.481 132.4 108.481Z" fill="#211715"/>
<path d="M438.363 174.188C438.422 176.344 438.305 178.502 438.363 180.658C438.363 181.188 438.574 181.697 438.949 182.072C439.324 182.447 439.833 182.658 440.363 182.658C440.893 182.658 441.402 182.447 441.777 182.072C442.152 181.697 442.363 181.188 442.363 180.658C442.304 178.502 442.421 176.344 442.363 174.188C442.363 173.658 442.152 173.149 441.777 172.774C441.402 172.399 440.893 172.188 440.363 172.188C439.833 172.188 439.324 172.399 438.949 172.774C438.574 173.149 438.363 173.658 438.363 174.188Z" fill="#211715"/>
<path d="M445.153 174.188C445.212 176.344 445.095 178.502 445.153 180.658C445.153 181.188 445.364 181.697 445.739 182.072C446.114 182.447 446.623 182.658 447.153 182.658C447.683 182.658 448.192 182.447 448.567 182.072C448.942 181.697 449.153 181.188 449.153 180.658C449.094 178.502 449.211 176.344 449.153 174.188C449.153 173.658 448.942 173.149 448.567 172.774C448.192 172.399 447.683 172.188 447.153 172.188C446.623 172.188 446.114 172.399 445.739 172.774C445.364 173.149 445.153 173.658 445.153 174.188Z" fill="#211715"/>
<path d="M438.363 208.2C438.422 210.356 438.305 212.514 438.363 214.67C438.363 215.2 438.574 215.709 438.949 216.084C439.324 216.459 439.833 216.67 440.363 216.67C440.893 216.67 441.402 216.459 441.777 216.084C442.152 215.709 442.363 215.2 442.363 214.67C442.304 212.514 442.421 210.356 442.363 208.2C442.363 207.67 442.152 207.161 441.777 206.786C441.402 206.411 440.893 206.2 440.363 206.2C439.833 206.2 439.324 206.411 438.949 206.786C438.574 207.161 438.363 207.67 438.363 208.2Z" fill="#211715"/>
<path d="M445.153 208.2C445.212 210.356 445.095 212.514 445.153 214.67C445.153 215.2 445.364 215.709 445.739 216.084C446.114 216.459 446.623 216.67 447.153 216.67C447.683 216.67 448.192 216.459 448.567 216.084C448.942 215.709 449.153 215.2 449.153 214.67C449.094 212.514 449.211 210.356 449.153 208.2C449.153 207.67 448.942 207.161 448.567 206.786C448.192 206.411 447.683 206.2 447.153 206.2C446.623 206.2 446.114 206.411 445.739 206.786C445.364 207.161 445.153 207.67 445.153 208.2Z" fill="#211715"/>
<path d="M420.972 186.208C425.516 187.891 430.523 187.831 435.025 186.039C435.528 185.885 435.953 185.544 436.213 185.087C436.474 184.63 436.549 184.09 436.425 183.579C436.282 183.069 435.943 182.636 435.483 182.374C435.022 182.112 434.477 182.042 433.965 182.179C430.163 183.783 425.885 183.844 422.039 182.348C421.527 182.209 420.981 182.279 420.52 182.541C420.06 182.803 419.721 183.237 419.579 183.748C419.453 184.259 419.528 184.799 419.789 185.257C420.049 185.715 420.475 186.055 420.979 186.208H420.972Z" fill="#211715"/>
<path d="M426.333 217.868C428.778 218.766 431.467 218.735 433.891 217.783C434.386 217.628 434.809 217.302 435.086 216.864C435.353 216.397 435.425 215.843 435.286 215.323C435.146 214.819 434.816 214.389 434.366 214.123C434.137 213.985 433.882 213.896 433.616 213.862C433.351 213.827 433.082 213.848 432.825 213.923C432.153 214.193 431.452 214.381 430.735 214.483L431.267 214.411C430.428 214.525 429.578 214.527 428.739 214.419L429.271 214.49C428.629 214.401 427.999 214.239 427.394 214.008C427.137 213.937 426.868 213.919 426.603 213.953C426.339 213.987 426.084 214.074 425.853 214.208C425.626 214.34 425.427 214.516 425.269 214.726C425.11 214.935 424.994 215.174 424.927 215.428C424.86 215.682 424.844 215.947 424.88 216.207C424.916 216.467 425.002 216.718 425.135 216.945C425.42 217.378 425.843 217.702 426.335 217.864L426.333 217.868Z" fill="#211715"/>
<path d="M464.225 265.506C464.225 256.806 463.88 188.65 463.793 168.198C463.788 167.141 463.364 166.129 462.615 165.384C461.865 164.639 460.85 164.222 459.793 164.224H457.317C456.257 164.226 455.241 164.648 454.492 165.398C453.744 166.148 453.323 167.164 453.323 168.224C453.335 184.04 453.36 237.944 453.384 265.415" fill="#CFCFCF"/>
<path d="M466.225 265.506C466.225 255.706 466.155 245.906 466.111 236.111C466.041 220.895 465.969 205.679 465.895 190.463C465.867 184.396 465.839 178.332 465.81 172.269C465.796 169.045 466.235 165.481 463.26 163.337C461.346 161.958 458.347 161.927 456.1 162.358C454.956 162.598 453.906 163.166 453.08 163.994C452.254 164.821 451.687 165.871 451.448 167.015C450.983 169.457 451.322 172.237 451.324 174.715C451.324 177.896 451.324 181.077 451.324 184.258C451.329 192.382 451.333 200.506 451.338 208.629C451.347 225.862 451.358 243.096 451.371 260.329C451.371 262.026 451.371 263.724 451.371 265.421C451.371 267.995 455.371 268 455.371 265.421C455.357 249.231 455.346 233.04 455.338 216.849C455.33 202.08 455.322 187.311 455.313 172.542C455.313 171.437 455.313 170.332 455.313 169.227C455.313 167.957 455.413 166.527 456.962 166.244C458.055 166.059 459.173 166.07 460.262 166.279C460.637 166.373 460.977 166.571 461.244 166.849C461.512 167.128 461.695 167.477 461.773 167.855C461.878 168.926 461.887 170.005 461.802 171.078C461.827 176.726 461.853 182.374 461.881 188.022C461.948 202.721 462.017 217.421 462.089 232.122C462.138 242.74 462.182 253.358 462.22 263.975C462.22 264.487 462.22 264.999 462.22 265.511C462.22 268.084 466.22 268.089 466.22 265.511L466.225 265.506Z" fill="#211715"/>
<path d="M440.351 182.658C449.328 182.658 458.306 182.593 467.283 182.558C469.121 182.551 470.959 182.546 472.798 182.544C475.372 182.544 475.376 178.544 472.798 178.544C463.864 178.544 454.931 178.61 445.998 178.644C444.116 178.651 442.234 178.656 440.352 178.658C437.778 178.658 437.773 182.658 440.351 182.658Z" fill="#211715"/>
<path d="M440.351 216.674C449.328 216.674 458.306 216.609 467.283 216.574C469.121 216.568 470.959 216.563 472.798 216.56C475.372 216.56 475.376 212.56 472.798 212.56C463.864 212.56 454.931 212.626 445.998 212.66C444.116 212.666 442.234 212.674 440.352 212.674C437.778 212.674 437.773 216.674 440.351 216.674Z" fill="#211715"/>
<path d="M151.088 265.2V254.62H160.447V265.2" fill="#957F6E"/>
<path d="M158.676 221.831C157.908 221.237 156.964 220.915 155.993 220.915C155.022 220.915 154.078 221.237 153.31 221.831C149.596 224.739 146.723 228.583 144.985 232.968C144.441 234.29 144.031 235.664 143.76 237.068C143.54 238.41 143.4 239.764 143.341 241.122C143.19 243.513 143.051 245.993 143.914 248.228C144.684 250.179 146.138 251.784 148.004 252.742C149.852 253.688 153.925 254.19 155.995 254.19C157.556 254.19 162.139 253.69 163.987 252.742C165.853 251.784 167.307 250.179 168.077 248.228C168.94 245.993 168.801 243.513 168.649 241.122C168.59 239.764 168.45 238.41 168.231 237.068C167.96 235.664 167.55 234.291 167.006 232.968C165.267 228.582 162.392 224.738 158.676 221.831Z" fill="#7CC67A"/>
<path d="M159.686 220.1C158.977 219.603 158.175 219.253 157.328 219.071C156.481 218.889 155.606 218.878 154.755 219.04C153.068 219.498 151.544 220.42 150.355 221.702C147.702 224.135 145.539 227.055 143.985 230.302C142.372 233.769 141.468 237.523 141.324 241.344C141.088 245.176 141.318 248.93 143.89 251.99C147.621 256.427 154.627 256.573 159.926 255.818C162.866 255.399 165.62 254.628 167.731 252.401C170.438 249.545 170.903 245.801 170.701 242.019C170.603 237.767 169.591 233.586 167.733 229.76C165.895 226.126 163.286 222.937 160.088 220.415C159.705 220.055 159.199 219.855 158.673 219.855C158.148 219.855 157.642 220.055 157.259 220.415C156.887 220.792 156.679 221.3 156.679 221.829C156.679 222.358 156.887 222.866 157.259 223.243C161.967 226.828 165.196 232.014 166.337 237.82C166.561 239.361 166.69 240.914 166.724 242.471C166.883 244.084 166.737 245.712 166.295 247.271C165.915 248.335 165.266 249.283 164.412 250.022C163.558 250.762 162.527 251.268 161.419 251.491C157.614 252.405 152.919 252.652 149.233 251.119C148.058 250.569 147.061 249.699 146.358 248.609C145.655 247.519 145.273 246.252 145.257 244.955C145.027 241.779 145.344 238.587 146.195 235.518C147.132 232.459 148.661 229.615 150.695 227.146C152.289 225.219 154.95 221.64 157.668 223.556C159.775 225.044 161.776 221.577 159.686 220.1Z" fill="#211715"/>
<path d="M158.447 254.62V265.2C158.447 265.73 158.658 266.239 159.033 266.614C159.408 266.989 159.917 267.2 160.447 267.2C160.977 267.2 161.486 266.989 161.861 266.614C162.236 266.239 162.447 265.73 162.447 265.2V254.62C162.447 254.09 162.236 253.581 161.861 253.206C161.486 252.831 160.977 252.62 160.447 252.62C159.917 252.62 159.408 252.831 159.033 253.206C158.658 253.581 158.447 254.09 158.447 254.62Z" fill="#211715"/>
<path d="M149.088 254.62V265.2C149.088 265.73 149.299 266.239 149.674 266.614C150.049 266.989 150.558 267.2 151.088 267.2C151.618 267.2 152.127 266.989 152.502 266.614C152.877 266.239 153.088 265.73 153.088 265.2V254.62C153.088 254.09 152.877 253.581 152.502 253.206C152.127 252.831 151.618 252.62 151.088 252.62C150.558 252.62 150.049 252.831 149.674 253.206C149.299 253.581 149.088 254.09 149.088 254.62Z" fill="#211715"/>
<path d="M20.694 265.766V255.187H30.053V265.766" fill="#957F6E"/>
<path d="M28.283 222.4C27.5147 221.806 26.5711 221.484 25.6 221.484C24.6289 221.484 23.6853 221.806 22.917 222.4C19.2027 225.308 16.329 229.152 14.591 233.537C14.0474 234.86 13.637 236.233 13.366 237.637C13.1463 238.979 13.0064 240.333 12.947 241.691C12.796 244.082 12.657 246.562 13.52 248.797C14.2904 250.748 15.7441 252.353 17.61 253.311C19.458 254.257 23.532 254.759 25.602 254.759C27.163 254.759 31.745 254.259 33.593 253.311C35.4592 252.353 36.9129 250.748 37.683 248.797C38.546 246.562 38.407 244.082 38.256 241.691C38.1966 240.333 38.0567 238.979 37.837 237.637C37.566 236.233 37.1556 234.86 36.612 233.537C34.8737 229.151 31.9989 225.307 28.283 222.4Z" fill="#7CC67A"/>
<path d="M29.292 220.671C28.5827 220.174 27.781 219.824 26.9343 219.642C26.0875 219.46 25.2129 219.449 24.362 219.611C22.675 220.069 21.1505 220.991 19.962 222.273C17.3086 224.706 15.1463 227.626 13.592 230.873C11.9795 234.34 11.0748 238.094 10.931 241.915C10.696 245.747 10.925 249.501 13.497 252.561C17.228 256.998 24.234 257.144 29.534 256.389C32.473 255.97 35.228 255.199 37.334 252.972C40.042 250.116 40.507 246.372 40.304 242.59C40.2062 238.338 39.1939 234.157 37.336 230.331C35.4983 226.697 32.8892 223.507 29.691 220.986C29.3079 220.626 28.8021 220.426 28.2765 220.426C27.7509 220.426 27.2451 220.626 26.862 220.986C26.4902 221.363 26.2817 221.871 26.2817 222.4C26.2817 222.929 26.4902 223.437 26.862 223.814C31.5695 227.399 34.7996 232.585 35.941 238.391C36.1642 239.932 36.2931 241.485 36.327 243.042C36.4856 244.655 36.3405 246.283 35.899 247.842C35.5189 248.906 34.8703 249.854 34.0159 250.593C33.1616 251.333 32.1306 251.839 31.023 252.062C27.217 252.976 22.523 253.223 18.836 251.69C17.6608 251.14 16.6645 250.27 15.9614 249.179C15.2583 248.089 14.8769 246.822 14.861 245.525C14.6297 242.349 14.947 239.157 15.799 236.089C16.7355 233.03 18.2645 230.186 20.299 227.717C21.893 225.79 24.555 222.211 27.272 224.127C29.381 225.611 31.382 222.144 29.292 220.671Z" fill="#211715"/>
<path d="M28.053 255.187V265.766C28.053 266.029 28.1047 266.289 28.2052 266.531C28.3057 266.774 28.4531 266.994 28.6388 267.18C28.8245 267.366 29.045 267.513 29.2876 267.614C29.5303 267.714 29.7904 267.766 30.053 267.766C30.3156 267.766 30.5757 267.714 30.8184 267.614C31.061 267.513 31.2815 267.366 31.4672 267.18C31.6529 266.994 31.8002 266.774 31.9008 266.531C32.0013 266.289 32.053 266.029 32.053 265.766V255.187C32.053 254.657 31.8423 254.148 31.4672 253.773C31.0921 253.398 30.5834 253.187 30.053 253.187C29.5226 253.187 29.0139 253.398 28.6388 253.773C28.2637 254.148 28.053 254.657 28.053 255.187Z" fill="#211715"/>
<path d="M18.694 255.187V265.766C18.694 266.296 18.9047 266.805 19.2798 267.18C19.6549 267.555 20.1636 267.766 20.694 267.766C21.2244 267.766 21.7331 267.555 22.1082 267.18C22.4833 266.805 22.694 266.296 22.694 265.766V255.187C22.694 254.657 22.4833 254.148 22.1082 253.773C21.7331 253.398 21.2244 253.187 20.694 253.187C20.1636 253.187 19.6549 253.398 19.2798 253.773C18.9047 254.148 18.694 254.657 18.694 255.187Z" fill="#211715"/>
<path d="M1.93201 265.968C17.317 265.968 465.779 265.798 480.322 265.798Z" fill="white"/>
<path d="M1.932 267.968C7.302 267.968 12.672 267.968 18.042 267.968L54.112 267.956L105.081 267.938L166.481 267.915L233.293 267.891L300.424 267.866L363.524 267.843L417.488 267.824L457.35 267.81L478.559 267.803H480.324C482.898 267.803 482.902 263.803 480.324 263.803C475.029 263.803 469.734 263.803 464.437 263.803L428.537 263.816L377.694 263.834L316.374 263.856L249.591 263.881L182.442 263.906L119.277 263.929L65.198 263.948L25.174 263.962L3.754 263.969H1.932C-0.642 263.969 -0.646 267.969 1.932 267.969V267.968Z" fill="#211715"/>
</g>
<defs>
<clipPath id="clip0_1_50">
<rect width="482.254" height="267.968" fill="white"/>
</clipPath>
</defs>
</svg>
