<?xml version="1.0" encoding="UTF-8"?><svg id="b" xmlns="http://www.w3.org/2000/svg" width="323.864" height="186.876" viewBox="0 0 323.864 186.876"><defs><style>.d{fill:#95cbeb;}.d,.e,.f,.g,.h{stroke-width:0px;}.e{fill:#957f6e;}.f{fill:#211715;}.g{fill:#fff;}.h{fill:#74c66d;}</style></defs><g id="c"><path class="g" d="M21.042,62.017v122.861c93.333-.001,186.667-.002,280-.002,0-47.138,0-86.253,0-132.767,0-.55-.45-1.005-1-1.005h-98.994s-80,0-80,0H22.042c-.552,0-1,.448-1,1v9.914Z"/><path class="g" d="M121.048,184.873V3.043c0-.552.448-1,1-1h78c.552,0,1,.448,1,1v181.83"/><path class="d" d="M191.048,137.877c0-1.408,0-2.816,0-4.224h-60v51.223c12.101,0,35.619,0,60,0,0-15.661,0-31.333,0-46.999Z"/><path class="d" d="M235.052,139.871c0-1.653,0-3.325.002-4.997-6.358,0-19.549,0-34.005,0v31.209c8.33,0,20.925,0,34-.003,0,0,0-12.438.004-26.209Z"/><path class="d" d="M87.039,139.871c0-1.653,0-3.325-.002-4.997,6.358,0,19.549,0,34.005,0v31.209c-8.33,0-20.925,0-34-.003,0,0,0-12.438-.004-26.209Z"/><path class="d" d="M87.039,77.871c0-1.653,0-3.325-.002-4.997,6.358,0,19.549,0,34.005,0v31.209c-8.33,0-20.925,0-34-.003,0,0,0-12.438-.004-26.209Z"/><path class="f" d="M220.048,166.079v-31.203c0-2.574-4-2.578-4,0v31.203c0,2.574,4,2.578,4,0h0Z"/><path class="f" d="M237.048,166.079v-31.203c0-2.574-4-2.578-4,0v31.203c0,2.574,4,2.578,4,0h0Z"/><path class="d" d="M287.041,139.871c0-1.653,0-3.325.002-4.997-6.358,0-19.549,0-34.005,0v31.209c8.33,0,20.925,0,34-.003,0,0,0-12.438.004-26.209Z"/><path class="f" d="M272.038,166.079v-31.203c0-2.574-4-2.578-4,0v31.203c0,2.574,4,2.578,4,0h0Z"/><path class="f" d="M255.038,166.079v-31.203c0-2.574-4-2.578-4,0v31.203c0,2.574,4,2.578,4,0h0Z"/><path class="f" d="M289.038,166.079v-31.203c0-2.574-4-2.578-4,0v31.203c0,2.574,4,2.578,4,0h0Z"/><path class="d" d="M235.052,77.871c0-1.653,0-3.325.002-4.997-6.358,0-19.549,0-34.005,0v31.209c8.33,0,20.925,0,34-.003,0,0,0-12.438.004-26.209Z"/><path class="f" d="M220.048,104.079v-31.203c0-2.574-4-2.578-4,0v31.203c0,2.574,4,2.578,4,0h0Z"/><path class="f" d="M203.048,104.079v-31.203c0-2.574-4-2.578-4,0v31.203c0,2.574,4,2.578,4,0h0Z"/><path class="f" d="M237.048,104.079v-31.203c0-2.574-4-2.578-4,0v31.203c0,2.574,4,2.578,4,0h0Z"/><path class="d" d="M287.041,77.871c0-1.653,0-3.325.002-4.997-6.358,0-19.549,0-34.005,0v31.209c8.33,0,20.925,0,34-.003,0,0,0-12.438.004-26.209Z"/><path class="f" d="M272.038,104.079v-31.203c0-2.574-4-2.578-4,0v31.203c0,2.574,4,2.578,4,0h0Z"/><path class="f" d="M255.038,104.079v-31.203c0-2.574-4-2.578-4,0v31.203c0,2.574,4,2.578,4,0h0Z"/><path class="f" d="M289.038,104.079v-31.203c0-2.574-4-2.578-4,0v31.203c0,2.574,4,2.578,4,0h0Z"/><path class="f" d="M123.048,184.873V4.48c0-.353.083-.822,0-1.166-.01-.043.031-.21,0-.242.168.172-1.291.732-.915.971.285.181,1.28,0,1.606,0h3.476c8.709,0,17.419,0,26.128,0,10.257,0,20.515,0,30.772,0,3.697,0,7.394,0,11.091,0h3.306c.413,0,1.092.133,1.49,0-1.161.389-.834-1.684-.955-.683-.048.394,0,.825,0,1.221v180.292c0,2.574,4,2.578,4,0V4.047c0-1.969-.625-3.861-3.052-4.004-1.627-.096-3.289,0-4.919,0-8.734,0-17.468,0-26.202,0-10.367,0-20.734,0-31.101,0-3.671,0-7.342,0-11.014,0-1.553,0-3.141-.097-4.691,0-1.784.112-2.94,1.376-3.022,3.131-.015.318,0,.64,0,.958v180.741c0,2.574,4,2.578,4,0h0Z"/><path class="f" d="M23.042,184.881V53.605c0-.346.133-1.018,0-1.344-.254-.624-.721,1.165-.997.842.03.036.247-.01.293,0,.573.13,1.336,0,1.92,0h3.514c3.61,0,7.219,0,10.829,0,10.399,0,20.798,0,31.196,0,10.608,0,21.217,0,31.825,0h18.545c.293,0,.587,0,.88,0,2.574,0,2.578-4,0-4-4.443,0-8.886,0-13.33,0-10.107,0-20.213,0-30.32,0h-32.808c-6.931,0-13.862,0-20.793,0-2.18,0-4.593.109-4.756,3.069-.065,1.188,0,2.398,0,3.586v20.316c0,10.366,0,20.731,0,31.097v77.71c0,2.574,4,2.578,4,0h0Z"/><path class="f" d="M201.048,53.103c6.63,0,13.259,0,19.889,0,13.591,0,27.181,0,40.772,0,11.104,0,22.209,0,33.313,0h3.857c.284,0,.647.062.925,0,.027-.006.186.021.203,0,.003-.004.033.004.035,0l-.5-.251c-.48-.427-.646-.347-.5.241-.179.499,0,1.428,0,1.964,0,13.38,0,26.761,0,40.141,0,26.438,0,52.876,0,79.314,0,3.456,0,6.912,0,10.368,0,2.574,4,2.578,4,0,0-27.145,0-54.291,0-81.436,0-13.378,0-26.755,0-40.133,0-3.563.12-7.149,0-10.71-.065-1.924-1.03-3.39-3.083-3.498-.709-.037-1.431,0-2.14,0h-29.863c-14.006,0-28.011,0-42.017,0-8.168,0-16.362-.188-24.529,0-.121.003-.242,0-.362,0-2.574,0-2.578,4,0,4h0Z"/><path class="f" d="M133.048,184.873v-51.22c0-2.574-4-2.578-4,0v51.22c0,2.574,4,2.578,4,0h0Z"/><path class="f" d="M193.048,184.873v-51.22c0-2.574-4-2.578-4,0v51.22c0,2.574,4,2.578,4,0h0Z"/><path class="f" d="M164.016,29.924v-9.38c0-1.046-.92-2.048-2-2s-2,.879-2,2v9.38c0,1.046.92,2.048,2,2s2-.879,2-2h0Z"/><path class="f" d="M156.43,31.924c1.862,0,3.724,0,5.586,0,1.046,0,2.048-.92,2-2s-.879-2-2-2c-1.862,0-3.724,0-5.586,0-1.046,0-2.048.92-2,2s.879,2,2,2h0Z"/><path class="f" d="M201.048,106.083h100c2.574,0,2.578-4,0-4h-100c-2.574,0-2.578,4,0,4h0Z"/><path class="f" d="M201.048,74.873h99.73c2.574,0,2.578-4,0-4h-99.73c-2.574,0-2.578,4,0,4h0Z"/><path class="f" d="M201.048,168.083h100c2.574,0,2.578-4,0-4h-100c-2.574,0-2.578,4,0,4h0Z"/><path class="f" d="M201.048,136.873h100c2.574,0,2.578-4,0-4h-100c-2.574,0-2.578,4,0,4h0Z"/><path class="f" d="M106.043,166.079v-31.203c0-2.574-4-2.578-4,0v31.203c0,2.574,4,2.578,4,0h0Z"/><path class="f" d="M89.043,166.079v-31.203c0-2.574-4-2.578-4,0v31.203c0,2.574,4,2.578,4,0h0Z"/><path class="d" d="M35.049,139.871c0-1.653,0-3.325-.002-4.997,6.358,0,19.549,0,34.005,0v31.209c-8.33,0-20.925,0-34-.003,0,0,0-12.438-.004-26.209Z"/><path class="f" d="M54.053,166.079v-31.203c0-2.574-4-2.578-4,0v31.203c0,2.574,4,2.578,4,0h0Z"/><path class="f" d="M71.053,166.079v-31.203c0-2.574-4-2.578-4,0v31.203c0,2.574,4,2.578,4,0h0Z"/><path class="f" d="M106.043,104.079v-31.203c0-2.574-4-2.578-4,0v31.203c0,2.574,4,2.578,4,0h0Z"/><path class="f" d="M89.043,104.079v-31.203c0-2.574-4-2.578-4,0v31.203c0,2.574,4,2.578,4,0h0Z"/><path class="d" d="M35.049,77.871c0-1.653,0-3.325-.002-4.997,6.358,0,19.549,0,34.005,0v31.209c-8.33,0-20.925,0-34-.003,0,0,0-12.438-.004-26.209Z"/><path class="f" d="M54.053,104.079v-31.203c0-2.574-4-2.578-4,0v31.203c0,2.574,4,2.578,4,0h0Z"/><path class="f" d="M71.053,104.079v-31.203c0-2.574-4-2.578-4,0v31.203c0,2.574,4,2.578,4,0h0Z"/><path class="f" d="M37.053,104.079v-31.203c0-2.574-4-2.578-4,0v31.203c0,2.574,4,2.578,4,0h0Z"/><path class="f" d="M37.053,166.083v-31.203c0-2.574-4-2.578-4,0v31.203c0,2.574,4,2.578,4,0h0Z"/><path class="f" d="M121.043,102.083H21.043c-2.574,0-2.578,4,0,4h100c2.574,0,2.578-4,0-4h0Z"/><path class="f" d="M121.043,70.873H21.313c-2.574,0-2.578,4,0,4h99.73c2.574,0,2.578-4,0-4h0Z"/><path class="f" d="M121.043,164.083H21.043c-2.574,0-2.578,4,0,4h100c2.574,0,2.578-4,0-4h0Z"/><path class="f" d="M21.048,136.873h100c2.574,0,2.578-4,0-4H21.048c-2.574,0-2.578,4,0,4h0Z"/><path class="e" d="M15.209,184.517v-14.468h12.8v14.468"/><path class="h" d="M25.587,125.206c-2.171-1.67-5.168-1.669-7.339.001-5.078,3.909-8.994,9.279-11.386,15.231-.728,1.812-1.322,3.684-1.676,5.605-.337,1.828-.455,3.688-.573,5.544-.207,3.27-.397,6.661.783,9.718,1.023,2.649,3.067,4.878,5.593,6.173,2.527,1.295,8.098,1.981,10.929,1.981,2.135,0,8.402-.686,10.929-1.981,2.527-1.295,4.571-3.525,5.593-6.173,1.18-3.057.991-6.448.783-9.718-.118-1.855-.236-3.716-.573-5.544-.354-1.921-.947-3.793-1.676-5.605-2.392-5.953-6.31-11.324-11.391-15.232Z"/><path class="f" d="M26.597,123.479c-1.868-1.345-4.248-1.824-6.495-1.314-2.278.517-4.099,2.192-5.757,3.747-3.449,3.234-6.287,7.182-8.306,11.453-1.066,2.256-1.983,4.61-2.549,7.044-.597,2.571-.759,5.221-.916,7.848-.3,5.008.058,9.98,3.516,13.911,2.865,3.257,6.82,4.331,10.958,4.895,3.483.474,6.755.395,10.228-.106,3.925-.567,7.585-1.609,10.35-4.643,3.514-3.857,3.946-8.844,3.657-13.832-.169-2.926-.349-5.882-1.091-8.729-.691-2.655-1.759-5.242-3.025-7.674-2.471-4.746-5.941-8.997-10.164-12.288-.851-.663-1.998-.83-2.828,0-.691.691-.857,2.161,0,2.828,6.4,4.986,11.436,12.526,12.668,20.642.328,2.161.425,4.385.508,6.568.084,2.195.054,4.429-.682,6.524-1.141,3.251-3.873,5.335-7.051,6.107-2.647.643-5.477,1.057-8.207.991-2.984-.072-6.427-.375-9.185-1.592-3.638-1.604-5.513-5.293-5.727-9.112-.242-4.327.09-9.087,1.381-13.233,1.355-4.35,3.655-8.501,6.614-11.966,1.439-1.685,3.049-3.369,4.847-4.678,1.69-1.23,3.567-1.143,5.238.06.877.631,2.228.152,2.736-.718.589-1.008.162-2.103-.718-2.736Z"/><path class="f" d="M26.009,170.049v14.468c0,1.081.919,2,2,2s2-.915,2-2v-14.468c0-1.081-.919-2-2-2s-2,.915-2,2h0Z"/><path class="f" d="M13.209,170.049v14.468c0,1.081.919,2,2,2s2-.915,2-2v-14.468c0-1.081-.919-2-2-2s-2,.915-2,2h0Z"/><path class="e" d="M294.209,184.517v-14.468h12.8v14.468"/><path class="h" d="M304.587,125.206c-2.171-1.67-5.168-1.669-7.339.001-5.078,3.909-8.994,9.279-11.386,15.231-.728,1.812-1.322,3.684-1.676,5.605-.337,1.828-.455,3.688-.573,5.544-.207,3.27-.397,6.661.783,9.718,1.023,2.649,3.067,4.878,5.593,6.173,2.527,1.295,8.098,1.981,10.929,1.981,2.135,0,8.402-.686,10.929-1.981,2.527-1.295,4.571-3.525,5.593-6.173,1.18-3.057.991-6.448.783-9.718-.118-1.855-.236-3.716-.573-5.544-.354-1.921-.947-3.793-1.676-5.605-2.392-5.953-6.31-11.324-11.391-15.232Z"/><path class="f" d="M305.597,123.479c-1.868-1.345-4.248-1.824-6.495-1.314-2.278.517-4.099,2.192-5.757,3.747-3.449,3.234-6.287,7.182-8.306,11.453-1.066,2.256-1.983,4.61-2.549,7.044-.597,2.571-.759,5.221-.916,7.848-.3,5.008.058,9.98,3.516,13.911,2.865,3.257,6.82,4.331,10.958,4.895,3.483.474,6.755.395,10.228-.106,3.925-.567,7.585-1.609,10.35-4.643,3.514-3.857,3.946-8.844,3.657-13.832-.169-2.926-.349-5.882-1.091-8.729-.691-2.655-1.759-5.242-3.025-7.674-2.471-4.746-5.941-8.997-10.164-12.288-.851-.663-1.998-.83-2.828,0-.691.691-.857,2.161,0,2.828,6.4,4.986,11.436,12.526,12.668,20.642.328,2.161.425,4.385.508,6.568.084,2.195.054,4.429-.682,6.524-1.141,3.251-3.873,5.335-7.051,6.107-2.647.643-5.477,1.057-8.207.991-2.984-.072-6.427-.375-9.185-1.592-3.638-1.604-5.513-5.293-5.727-9.112-.242-4.327.09-9.087,1.381-13.233,1.355-4.35,3.655-8.501,6.614-11.966,1.439-1.685,3.049-3.369,4.847-4.678,1.69-1.23,3.567-1.143,5.238.06.877.631,2.228.152,2.736-.718.589-1.008.162-2.103-.718-2.736Z"/><path class="f" d="M305.009,170.049v14.468c0,1.081.919,2,2,2s2-.915,2-2v-14.468c0-1.081-.919-2-2-2s-2,.915-2,2h0Z"/><path class="f" d="M292.209,170.049v14.468c0,1.081.919,2,2,2s2-.915,2-2v-14.468c0-1.081-.919-2-2-2s-2,.915-2,2h0Z"/><path class="f" d="M1.932,186.876h320c2.574,0,2.578-4,0-4H1.932c-2.574,0-2.578,4,0,4h0Z"/><path class="f" d="M161.042,9.953c-8.126.079-15.354,5.06-17.825,12.892-2.288,7.251-.064,15.945,6.001,20.682,6.015,4.697,15.076,5.196,21.689,1.432,6.775-3.857,9.699-11.956,8.571-19.444-1.377-9.138-9.346-15.474-18.436-15.561-2.575-.025-2.577,3.975,0,4,6.367.061,12.122,3.885,14.013,10.086,1.722,5.65.239,12.568-4.491,16.349-4.621,3.694-11.898,4.046-17.024,1.229-5.371-2.951-7.877-9.238-7.053-15.188,1.017-7.339,7.266-12.406,14.555-12.477,2.572-.025,2.579-4.025,0-4Z"/><path class="d" d="M170.048,64.083h-18c-.552,0-1,.448-1,1v37.999c0,.552.453,1,1.005,1,7.345,0,10.921.001,17.99.001.552,0,1.004-.444,1.004-.997,0-5.517,0-31.772.001-38.009,0-.552-.448-.994-1-.994Z"/><path class="f" d="M170.048,62.083h-9.749c-2.05,0-4.1,0-6.149,0-1.44,0-3.098-.23-4.214.887-.914.914-.887,2.031-.887,3.195v29.817c0,2.329-.126,4.697,0,7.023.216,3.992,5.041,3.078,7.822,3.078,3.575,0,7.15,0,10.725,0,1.989,0,4.631.282,5.329-2.149.219-.763.123-1.658.123-2.445,0-2.015,0-4.031,0-6.046,0-9.951,0-19.902.001-29.853,0-1.601-.724-3.156-2.468-3.435-1.065-.17-2.152.274-2.46,1.397-.262.952.324,2.289,1.397,2.46-.384-.061-.282-1.204-.468-.557-.039.136,0,.354,0,.492,0,.351,0,.703,0,1.054,0,.867,0,1.734,0,2.6,0,2.276,0,4.553,0,6.829,0,5.167,0,10.334,0,15.501,0,2.238,0,4.476,0,6.714,0,.325-.143,4.303,0,4.334l.265-.448c.389-.364.401-.513.037-.448-.12-.067-.534,0-.675,0-.43,0-.859,0-1.289,0-.923,0-1.846,0-2.768,0-1.576,0-3.152,0-4.728,0-1.693,0-3.387,0-5.08,0-.444,0-.889,0-1.333,0,.06,0-.928-.024-.937,0-.005.013.518.992.511.994.01-.004-.005-.12,0-.132.22-.537,0-1.64,0-2.21v-32.974c0-.713.199-1.753,0-2.442-.22-.764-.653,1-.943.765.152.122.884,0,1.076,0h5.036c3.704,0,7.408,0,11.112,0h.72c2.574,0,2.578-4,0-4Z"/><rect class="g" x="119.048" y="121.653" width="84" height="12" rx="1" ry="1"/><path class="f" d="M120.048,123.653h80.814c.209,0,.936.125,1.113,0,.012-.008.06.011.069,0-.271.33-.772-1.571-.996-.72-.168.636,0,1.55,0,2.203v6.225c0,.292-.045.627,0,.916.01.062-.032.196,0,.249.299.505.767-1.167.999-.873-.02-.025-.163.011-.194,0-.371-.13-1.029,0-1.418,0h-75.251c-1.537,0-3.169-.156-4.7,0-.072.007-.319-.046-.379,0-.009.007-.049-.009-.056,0,.197-.25.733,1.264.999.927.041-.052-.01-.239,0-.304.264-1.743,0-3.733,0-5.494v-2.837c0-.301.025-.615,0-.916-.075-.893.32.425-.468.552,1.067-.172,1.661-1.5,1.397-2.46-.312-1.135-1.39-1.57-2.46-1.397-2.64.426-2.468,3.078-2.468,5.089v6.461c0,.456-.031.924,0,1.379.115,1.704,1.309,2.891,3.009,3,.306.02.62,0,.926,0h67.875c4.326,0,8.697.181,13.021,0,1.833-.077,3.079-1.277,3.169-3.127.086-1.782,0-3.588,0-5.372,0-1.488.1-3.015,0-4.501-.126-1.874-1.499-2.947-3.287-3-4.547-.136-9.12,0-13.669,0h-68.044c-2.574,0-2.578,4,0,4Z"/></g></svg>